<?xml version="1.0" encoding="utf-8"?>
<!-- Generator: Adobe Illustrator 22.0.1, SVG Export Plug-In . SVG Version: 6.00 Build 0)  -->
<svg version="1.1" id="Layer_1" xmlns="http://www.w3.org/2000/svg" xmlns:xlink="http://www.w3.org/1999/xlink" x="0px" y="0px"
	 viewBox="0 0 428.3 196.1" style="enable-background:new 0 0 428.3 196.1;" xml:space="preserve">
<style type="text/css">
	.st0{fill:#DAE5ED;}
	.st1{fill-rule:evenodd;clip-rule:evenodd;fill:#18B9E7;}
	.st2{fill-rule:evenodd;clip-rule:evenodd;fill:#FFFFFF;}
</style>
<g>
	<path class="st0" d="M62,180.3c0-0.9-0.5-5.9-7.2-5.9c-3.7,0-7.1,1.9-7.1,6c0,2.6,1.7,3.9,4.4,4.6l3.7,0.9c2.7,0.7,3.7,1.2,3.7,2.7
		c0,2.1-2.1,3-4.3,3c-4.5,0-4.9-2.4-5-3.9h-3.1c0.1,2.3,0.6,6.6,8.1,6.6c4.2,0,7.5-2.3,7.5-6.2c0-2.6-1.4-4-5.3-5l-3.2-0.8
		c-2.4-0.6-3.4-1-3.4-2.5c0-2.3,2.8-2.7,3.7-2.7c4,0,4.4,2,4.5,3.2H62z"/>
	<path class="st0" d="M65.2,184.3c0,4.9,2.7,9.9,8.7,9.9c6,0,8.7-5.1,8.7-9.9c0-4.9-2.7-9.9-8.7-9.9
		C67.9,174.4,65.2,179.4,65.2,184.3z M68.5,184.3c0-2.5,0.9-7.2,5.5-7.2c4.5,0,5.5,4.7,5.5,7.2c0,2.5-0.9,7.2-5.5,7.2
		C69.4,191.5,68.5,186.8,68.5,184.3z"/>
	<path class="st0" d="M101.5,193.7v-18.8h-3.2v10.4c0,2.7-1.2,6.3-5.2,6.3c-2.1,0-3.6-1-3.6-4.1v-12.5h-3.2v13.5
		c0,4.5,3.3,5.8,6.1,5.8c3,0,4.6-1.2,6-3.3l0.1,0.1v2.7H101.5z"/>
	<path class="st0" d="M109.9,182.8c0-2.7,1.9-5,4.8-5h1.2v-3.3c-0.3-0.1-0.4-0.1-0.8-0.1c-2.4,0-4,1.5-5.3,3.7h-0.1v-3.1h-3v18.8
		h3.2V182.8z"/>
	<path class="st0" d="M133.1,181.2c-0.3-3.3-2.1-6.9-7.1-6.9c-6.2,0-9,4.6-9,10.5c0,5.4,3.1,9.4,8.4,9.4c5.5,0,7.3-4.2,7.7-7.2h-3.1
		c-0.5,2.9-2.4,4.5-4.5,4.5c-4.4,0-5.1-4-5.1-7.2c0-3.3,1.3-7.1,5.2-7.1c2.7,0,4.1,1.5,4.5,4H133.1z"/>
	<path class="st0" d="M149.1,187.8c-0.1,1.4-1.9,3.7-4.9,3.7c-3.6,0-5.5-2.3-5.5-6.2h13.8c0-6.7-2.7-11-8.1-11c-6.2,0-9,4.6-9,10.5
		c0,5.4,3.1,9.4,8.4,9.4c3,0,4.2-0.7,5.1-1.3c2.4-1.6,3.2-4.2,3.3-5.1H149.1z M138.8,182.8c0-2.9,2.3-5.6,5.2-5.6
		c3.9,0,5.1,2.7,5.3,5.6H138.8z"/>
	<path class="st0" d="M173.4,177.5v-2.6h-3.2v-2.3c0-1.5,0.5-2.2,1.9-2.2c0.4,0,0.9,0,1.3,0.1v-2.8c-0.5,0-1-0.1-1.4-0.1
		c-3.1,0-4.9,1.3-4.9,4.1v3.2h-2.6v2.6h2.6v16.2h3.2v-16.2H173.4z"/>
	<path class="st0" d="M174.2,184.3c0,4.9,2.7,9.9,8.7,9.9c6,0,8.7-5.1,8.7-9.9c0-4.9-2.7-9.9-8.7-9.9
		C176.9,174.4,174.2,179.4,174.2,184.3z M177.4,184.3c0-2.5,0.9-7.2,5.5-7.2c4.5,0,5.5,4.7,5.5,7.2c0,2.5-0.9,7.2-5.5,7.2
		C178.4,191.5,177.4,186.8,177.4,184.3z"/>
	<path class="st0" d="M198.9,182.8c0-2.7,1.9-5,4.8-5h1.2v-3.3c-0.3-0.1-0.4-0.1-0.8-0.1c-2.4,0-4,1.5-5.3,3.7h-0.1v-3.1h-3v18.8
		h3.2V182.8z"/>
	<path class="st0" d="M220.9,182.8c0-2.7,1.9-5,4.8-5h1.2v-3.3c-0.3-0.1-0.4-0.1-0.8-0.1c-2.4,0-4,1.5-5.3,3.7h-0.1v-3.1h-3v18.8
		h3.2V182.8z"/>
	<path class="st0" d="M242.1,187.8c-0.1,1.4-1.9,3.7-4.9,3.7c-3.6,0-5.5-2.3-5.5-6.2h13.8c0-6.7-2.7-11-8.1-11c-6.2,0-9,4.6-9,10.5
		c0,5.4,3.1,9.4,8.4,9.4c3,0,4.2-0.7,5.1-1.3c2.4-1.6,3.2-4.2,3.3-5.1H242.1z M231.7,182.8c0-2.9,2.3-5.6,5.2-5.6
		c3.9,0,5.1,2.7,5.3,5.6H231.7z"/>
	<path class="st0" d="M252.1,180.6c0.2-1.4,0.7-3.6,4.3-3.6c3,0,4.4,1.1,4.4,3.1c0,1.9-0.9,2.2-1.7,2.2l-5.2,0.6
		c-5.3,0.6-5.7,4.3-5.7,5.9c0,3.2,2.4,5.4,5.9,5.4c3.7,0,5.6-1.7,6.8-3.1c0.1,1.4,0.5,2.9,3.3,2.9c0.7,0,1.2-0.2,1.7-0.4v-2.3
		c-0.4,0.1-0.8,0.1-1,0.1c-0.6,0-1-0.3-1-1.1v-10.8c0-4.8-5.5-5.3-7-5.3c-4.6,0-7.6,1.8-7.8,6.3H252.1z M260.7,187.2
		c0,2.5-2.9,4.4-5.8,4.4c-2.4,0-3.4-1.2-3.4-3.3c0-2.4,2.5-2.8,4-3.1c3.9-0.5,4.7-0.8,5.2-1.2V187.2z"/>
	<path class="st0" d="M272.5,167.9h-3.2v25.8h3.2V167.9z"/>
	<path class="st0" d="M300.1,187.8c-0.1,1.4-1.9,3.7-4.9,3.7c-3.6,0-5.5-2.3-5.5-6.2h13.8c0-6.7-2.7-11-8.1-11c-6.2,0-9,4.6-9,10.5
		c0,5.4,3.1,9.4,8.4,9.4c3,0,4.2-0.7,5.1-1.3c2.4-1.6,3.2-4.2,3.3-5.1H300.1z M289.8,182.8c0-2.9,2.3-5.6,5.2-5.6
		c3.9,0,5.1,2.7,5.3,5.6H289.8z"/>
	<path class="st0" d="M321,180.3c0-0.9-0.5-5.9-7.2-5.9c-3.7,0-7.1,1.9-7.1,6c0,2.6,1.7,3.9,4.4,4.6l3.7,0.9
		c2.7,0.7,3.7,1.2,3.7,2.7c0,2.1-2.1,3-4.3,3c-4.5,0-4.9-2.4-5-3.9h-3.1c0.1,2.3,0.6,6.6,8.1,6.6c4.2,0,7.5-2.3,7.5-6.2
		c0-2.6-1.4-4-5.3-5l-3.2-0.8c-2.4-0.6-3.4-1-3.4-2.5c0-2.3,2.8-2.7,3.7-2.7c4,0,4.4,2,4.5,3.2H321z"/>
	<path class="st0" d="M332.2,177.5v-2.6h-3v-5.3H326v5.3h-2.6v2.6h2.6V190c0,2.3,0.7,4,3.8,4c0.3,0,1.2-0.1,2.4-0.3v-2.5h-1.1
		c-0.6,0-1.9,0-1.9-1.5v-12.2H332.2z"/>
	<path class="st0" d="M338.1,180.6c0.2-1.4,0.7-3.6,4.3-3.6c3,0,4.4,1.1,4.4,3.1c0,1.9-0.9,2.2-1.7,2.2l-5.2,0.6
		c-5.3,0.6-5.7,4.3-5.7,5.9c0,3.2,2.4,5.4,5.9,5.4c3.7,0,5.6-1.7,6.8-3.1c0.1,1.4,0.5,2.9,3.3,2.9c0.7,0,1.2-0.2,1.7-0.4v-2.3
		c-0.4,0.1-0.8,0.1-1,0.1c-0.6,0-1-0.3-1-1.1v-10.8c0-4.8-5.5-5.3-7-5.3c-4.6,0-7.6,1.8-7.8,6.3H338.1z M346.8,187.2
		c0,2.5-2.9,4.4-5.8,4.4c-2.4,0-3.4-1.2-3.4-3.3c0-2.4,2.5-2.8,4-3.1c3.9-0.5,4.7-0.8,5.2-1.2V187.2z"/>
	<path class="st0" d="M362.2,177.5v-2.6h-3v-5.3H356v5.3h-2.6v2.6h2.6V190c0,2.3,0.7,4,3.8,4c0.3,0,1.2-0.1,2.4-0.3v-2.5h-1.1
		c-0.6,0-1.9,0-1.9-1.5v-12.2H362.2z"/>
	<path class="st0" d="M378.1,187.8c-0.1,1.4-1.9,3.7-4.9,3.7c-3.6,0-5.5-2.3-5.5-6.2h13.8c0-6.7-2.7-11-8.1-11c-6.2,0-9,4.6-9,10.5
		c0,5.4,3.1,9.4,8.4,9.4c3,0,4.2-0.7,5.1-1.3c2.4-1.6,3.2-4.2,3.3-5.1H378.1z M367.8,182.8c0-2.9,2.3-5.6,5.2-5.6
		c3.9,0,5.1,2.7,5.3,5.6H367.8z"/>
	<path class="st1" d="M295.4,73.7l-34.9,73.7c-1,2.1-2.5,3.7-4.6,5c-2,1.2-4.2,1.8-6.5,1.8s-4.5-0.6-6.5-1.8
		c-0.4-0.2-0.8-0.5-1.1-0.8v-40.3c6.3,0,12.2-0.7,17.7-2.1c5.5-1.4,10.3-3.6,14.4-6.5c4.1-3,7.3-6.8,9.7-11.6
		c2.4-4.8,3.6-10.6,3.6-17.4c0-6.8-1.2-12.6-3.6-17.4c-2.4-4.8-5.6-8.7-9.7-11.6c-4.1-3-8.9-5.1-14.4-6.5
		c-5.5-1.4-11.4-2.1-17.7-2.1h-31.5V88l-6.8-14.3c-2.1-4.4-3.2-10.1-3.2-17.1c0-13.5,4.8-25,14.4-34.5c9.6-9.5,21.2-14.3,34.7-14.3
		c13.6,0,25.1,4.8,34.7,14.3c9.6,9.5,14.4,21,14.4,34.5C298.6,63.6,297.5,69.2,295.4,73.7z M252.2,65.6c1.8,1.9,2.7,4.6,2.7,8.1
		c0,3.5-0.9,6.1-2.7,8.1c-1.8,1.9-4.8,2.9-9,2.9h-1.3V62.7h1.3C247.4,62.7,250.4,63.7,252.2,65.6z M210.4,88 M241.9,151.6"/>
	<path class="st2" d="M4.6,35.9h26l25,37l25-37h27v99h-32v-35l-20,29l-20-29v35h-31V35.9z"/>
	<path class="st2" d="M109.6,134.9h31l4-9h30l3,9h31l-37-99h-24L109.6,134.9z M158.6,86.9l7,17h-13L158.6,86.9z"/>
	<path class="st2" d="M314.6,35.9h34v99h-34V35.9z"/>
	<path class="st2" d="M353.6,35.9h69v26h-19v73h-32v-73h-18V35.9z"/>
</g>
</svg>
