<?xml version="1.0" encoding="utf-8"?>
<!-- Generator: Adobe Illustrator 22.0.1, SVG Export Plug-In . SVG Version: 6.00 Build 0)  -->
<svg version="1.1" id="Layer_1" xmlns="http://www.w3.org/2000/svg" xmlns:xlink="http://www.w3.org/1999/xlink" x="0px" y="0px"
	 viewBox="0 0 418 186.4" style="enable-background:new 0 0 418 186.4;" xml:space="preserve">
<style type="text/css">
	.st0{fill:#D9E4EC;}
	.st1{fill-rule:evenodd;clip-rule:evenodd;fill:#FFFFFF;}
</style>
<g>
	<path class="st0" d="M57.4,172.4c0-0.9-0.5-5.9-7.2-5.9c-3.7,0-7.1,1.9-7.1,6c0,2.6,1.7,3.9,4.4,4.6l3.7,0.9
		c2.7,0.7,3.7,1.2,3.7,2.7c0,2.1-2.1,3-4.3,3c-4.5,0-4.9-2.4-5-3.9h-3.1c0.1,2.3,0.6,6.6,8.1,6.6c4.2,0,7.5-2.3,7.5-6.2
		c0-2.6-1.4-4-5.3-5l-3.2-0.8c-2.4-0.6-3.4-1-3.4-2.5c0-2.3,2.8-2.7,3.7-2.7c4,0,4.4,2,4.5,3.2H57.4z"/>
	<path class="st0" d="M60.6,176.4c0,4.9,2.7,9.9,8.7,9.9s8.7-5.1,8.7-9.9c0-4.9-2.7-9.9-8.7-9.9S60.6,171.6,60.6,176.4z M63.8,176.4
		c0-2.5,0.9-7.2,5.5-7.2c4.5,0,5.5,4.7,5.5,7.2c0,2.5-0.9,7.2-5.5,7.2C64.8,183.6,63.8,179,63.8,176.4z"/>
	<path class="st0" d="M96.9,185.9V167h-3.2v10.4c0,2.7-1.2,6.3-5.2,6.3c-2.1,0-3.6-1-3.6-4.1V167h-3.2v13.5c0,4.5,3.3,5.8,6.1,5.8
		c3,0,4.6-1.2,6-3.3l0.1,0.1v2.7H96.9z"/>
	<path class="st0" d="M105.3,174.9c0-2.7,1.9-5,4.8-5h1.2v-3.3c-0.3-0.1-0.4-0.1-0.8-0.1c-2.4,0-4,1.5-5.3,3.7h-0.1V167h-3v18.8h3.2
		V174.9z"/>
	<path class="st0" d="M128.5,173.4c-0.3-3.3-2.1-6.9-7.1-6.9c-6.2,0-9,4.6-9,10.5c0,5.4,3.1,9.4,8.4,9.4c5.5,0,7.3-4.2,7.7-7.2h-3.1
		c-0.5,2.9-2.4,4.5-4.5,4.5c-4.4,0-5.1-4-5.1-7.2c0-3.3,1.3-7.1,5.2-7.1c2.7,0,4.1,1.5,4.5,4H128.5z"/>
	<path class="st0" d="M144.5,180c-0.1,1.4-1.9,3.7-4.9,3.7c-3.6,0-5.5-2.3-5.5-6.2h13.8c0-6.7-2.7-11-8.1-11c-6.2,0-9,4.6-9,10.5
		c0,5.4,3.1,9.4,8.4,9.4c3,0,4.2-0.7,5.1-1.3c2.4-1.6,3.2-4.2,3.3-5.1H144.5z M134.1,175c0-2.9,2.3-5.6,5.2-5.6
		c3.9,0,5.1,2.7,5.3,5.6H134.1z"/>
	<path class="st0" d="M168.8,169.7V167h-3.2v-2.3c0-1.5,0.5-2.2,1.9-2.2c0.4,0,0.9,0,1.3,0.1v-2.8c-0.5,0-1-0.1-1.4-0.1
		c-3.1,0-4.9,1.3-4.9,4.1v3.2h-2.6v2.6h2.6v16.2h3.2v-16.2H168.8z"/>
	<path class="st0" d="M169.5,176.4c0,4.9,2.7,9.9,8.7,9.9c6,0,8.7-5.1,8.7-9.9c0-4.9-2.7-9.9-8.7-9.9
		C172.3,166.5,169.5,171.6,169.5,176.4z M172.8,176.4c0-2.5,0.9-7.2,5.5-7.2c4.5,0,5.5,4.7,5.5,7.2c0,2.5-0.9,7.2-5.5,7.2
		C173.7,183.6,172.8,179,172.8,176.4z"/>
	<path class="st0" d="M194.2,174.9c0-2.7,1.9-5,4.8-5h1.2v-3.3c-0.3-0.1-0.4-0.1-0.8-0.1c-2.4,0-4,1.5-5.3,3.7H194V167h-3v18.8h3.2
		V174.9z"/>
	<path class="st0" d="M216.2,174.9c0-2.7,1.9-5,4.8-5h1.2v-3.3c-0.3-0.1-0.4-0.1-0.8-0.1c-2.4,0-4,1.5-5.3,3.7H216V167h-3v18.8h3.2
		V174.9z"/>
	<path class="st0" d="M237.4,180c-0.1,1.4-1.9,3.7-4.9,3.7c-3.6,0-5.5-2.3-5.5-6.2h13.8c0-6.7-2.7-11-8.1-11c-6.2,0-9,4.6-9,10.5
		c0,5.4,3.1,9.4,8.4,9.4c3,0,4.2-0.7,5.1-1.3c2.4-1.6,3.2-4.2,3.3-5.1H237.4z M227.1,175c0-2.9,2.3-5.6,5.2-5.6
		c3.9,0,5.1,2.7,5.3,5.6H227.1z"/>
	<path class="st0" d="M247.4,172.8c0.2-1.4,0.7-3.6,4.3-3.6c3,0,4.4,1.1,4.4,3.1c0,1.9-0.9,2.2-1.7,2.2l-5.2,0.6
		c-5.3,0.6-5.7,4.3-5.7,5.9c0,3.2,2.4,5.4,5.9,5.4c3.7,0,5.6-1.7,6.8-3.1c0.1,1.4,0.5,2.9,3.3,2.9c0.7,0,1.2-0.2,1.7-0.4v-2.3
		c-0.4,0.1-0.8,0.1-1,0.1c-0.6,0-1-0.3-1-1.1v-10.8c0-4.8-5.5-5.3-7-5.3c-4.6,0-7.6,1.8-7.8,6.3H247.4z M256.1,179.4
		c0,2.5-2.9,4.4-5.8,4.4c-2.4,0-3.4-1.2-3.4-3.3c0-2.4,2.5-2.8,4-3.1c3.9-0.5,4.7-0.8,5.2-1.2V179.4z"/>
	<path class="st0" d="M267.9,160h-3.2v25.8h3.2V160z"/>
	<path class="st0" d="M295.4,180c-0.1,1.4-1.9,3.7-4.9,3.7c-3.6,0-5.5-2.3-5.5-6.2h13.8c0-6.7-2.7-11-8.1-11c-6.2,0-9,4.6-9,10.5
		c0,5.4,3.1,9.4,8.4,9.4c3,0,4.2-0.7,5.1-1.3c2.4-1.6,3.2-4.2,3.3-5.1H295.4z M285.1,175c0-2.9,2.3-5.6,5.2-5.6
		c3.9,0,5.1,2.7,5.3,5.6H285.1z"/>
	<path class="st0" d="M316.4,172.4c0-0.9-0.5-5.9-7.2-5.9c-3.7,0-7.1,1.9-7.1,6c0,2.6,1.7,3.9,4.4,4.6l3.7,0.9
		c2.7,0.7,3.7,1.2,3.7,2.7c0,2.1-2.1,3-4.3,3c-4.5,0-4.9-2.4-5-3.9h-3.1c0.1,2.3,0.6,6.6,8.1,6.6c4.2,0,7.5-2.3,7.5-6.2
		c0-2.6-1.4-4-5.3-5l-3.2-0.8c-2.4-0.6-3.4-1-3.4-2.5c0-2.3,2.8-2.7,3.7-2.7c4,0,4.4,2,4.5,3.2H316.4z"/>
	<path class="st0" d="M327.6,169.7V167h-3v-5.3h-3.2v5.3h-2.6v2.6h2.6v12.4c0,2.3,0.7,4,3.8,4c0.3,0,1.2-0.1,2.4-0.3v-2.5h-1.1
		c-0.6,0-1.9,0-1.9-1.5v-12.2H327.6z"/>
	<path class="st0" d="M333.5,172.8c0.2-1.4,0.7-3.6,4.3-3.6c3,0,4.4,1.1,4.4,3.1c0,1.9-0.9,2.2-1.7,2.2l-5.2,0.6
		c-5.3,0.6-5.7,4.3-5.7,5.9c0,3.2,2.4,5.4,5.9,5.4c3.7,0,5.6-1.7,6.8-3.1c0.1,1.4,0.5,2.9,3.3,2.9c0.7,0,1.2-0.2,1.7-0.4v-2.3
		c-0.4,0.1-0.8,0.1-1,0.1c-0.6,0-1-0.3-1-1.1v-10.8c0-4.8-5.5-5.3-7-5.3c-4.6,0-7.6,1.8-7.8,6.3H333.5z M342.1,179.4
		c0,2.5-2.9,4.4-5.8,4.4c-2.4,0-3.4-1.2-3.4-3.3c0-2.4,2.5-2.8,4-3.1c3.9-0.5,4.7-0.8,5.2-1.2V179.4z"/>
	<path class="st0" d="M357.6,169.7V167h-3v-5.3h-3.2v5.3h-2.6v2.6h2.6v12.4c0,2.3,0.7,4,3.8,4c0.3,0,1.2-0.1,2.4-0.3v-2.5h-1.1
		c-0.6,0-1.9,0-1.9-1.5v-12.2H357.6z"/>
	<path class="st0" d="M373.5,180c-0.1,1.4-1.9,3.7-4.9,3.7c-3.6,0-5.5-2.3-5.5-6.2h13.8c0-6.7-2.7-11-8.1-11c-6.2,0-9,4.6-9,10.5
		c0,5.4,3.1,9.4,8.4,9.4c3,0,4.2-0.7,5.1-1.3c2.4-1.6,3.2-4.2,3.3-5.1H373.5z M363.2,175c0-2.9,2.3-5.6,5.2-5.6
		c3.9,0,5.1,2.7,5.3,5.6H363.2z"/>
	<path class="st1" d="M290.8,65.8l-34.9,73.7c-1,2.1-2.5,3.7-4.6,5c-2,1.2-4.2,1.8-6.5,1.8c-2.3,0-4.5-0.6-6.5-1.8
		c-0.4-0.2-0.8-0.5-1.1-0.8v-40.3c6.3,0,12.2-0.7,17.7-2.1c5.5-1.4,10.3-3.6,14.4-6.5c4.1-3,7.3-6.8,9.7-11.6
		c2.4-4.8,3.6-10.6,3.6-17.4c0-6.8-1.2-12.6-3.6-17.4c-2.4-4.8-5.6-8.7-9.7-11.6c-4.1-3-8.9-5.1-14.4-6.5
		c-5.5-1.4-11.4-2.1-17.7-2.1h-31.5v51.9L199,65.8c-2.1-4.4-3.2-10.1-3.2-17.1c0-13.5,4.8-25,14.4-34.5C219.8,4.8,231.3,0,244.9,0
		c13.6,0,25.1,4.8,34.7,14.3c9.6,9.5,14.4,21,14.4,34.5C294,55.7,292.9,61.4,290.8,65.8z M247.6,57.7c1.8,1.9,2.7,4.6,2.7,8.1
		c0,3.5-0.9,6.1-2.7,8.1c-1.8,1.9-4.8,2.9-9,2.9h-1.3V54.8h1.3C242.7,54.8,245.7,55.8,247.6,57.7z M205.7,80.1 M237.3,143.7"/>
	<path class="st1" d="M0,28h26l25,37l25-37h27v99H71V92l-20,29L31,92v35H0V28z"/>
	<path class="st1" d="M105,127h31l4-9h30l3,9h31l-37-99h-24L105,127z M154,79l7,17h-13L154,79z"/>
	<path class="st1" d="M310,28h34v99h-34V28z"/>
	<path class="st1" d="M349,28h69v26h-19v73h-32V54h-18V28z"/>
</g>
</svg>
