<?xml version="1.0" standalone="no"?>
<!DOCTYPE svg PUBLIC "-//W3C//DTD SVG 1.1//EN" "http://www.w3.org/Graphics/SVG/1.1/DTD/svg11.dtd" >
<svg xmlns="http://www.w3.org/2000/svg" xmlns:xlink="http://www.w3.org/1999/xlink" version="1.1">
<metadata>
Created by FontForge 20150824 at Thu May 12 05:41:13 2016
 By Everything Fonts
Copyright (c) 2009 by Pascal Zoghbi. All rights reserved.
</metadata>
<defs>
<font id="AlWatanHeadlines-Bold" horiz-adv-x="556" >
  <font-face 
    font-family="AlWatanHeadlines-Bold"
    font-weight="700"
    font-stretch="normal"
    units-per-em="1000"
    panose-1="0 0 7 0 0 0 0 0 0 0"
    ascent="800"
    descent="-200"
    x-height="542"
    cap-height="729"
    bbox="-173 -415 1993 935"
    underline-thickness="10"
    underline-position="-243"
    unicode-range="U+0020-FEFC"
  />
<missing-glyph horiz-adv-x="500" 
d="M63 0v715h375v-715h-375zM125 63h250v590h-250v-590z" />
    <glyph glyph-name="lammeemjeeminitialarabic" unicode="&#xfedf;&#xfee4;&#xfea0;" horiz-adv-x="916" 
d="M-4 0v136h192q79 0 107 20q-18 16 -103 51q-32 14 -46 14q-53 0 -78 -18q-12 -9 -23 -13q26 63 92 125q35 34 71 34q64 0 132 -38l65 -37q32 -18 63 -31q145 -62 199 -62q-27 -40 -84 -116q-37 3 -84 7q0 -29 1 -33q10 -26 57 -26q69 0 176 44q3 2 3 18q0 54 -34 260
l-15 91q-39 27 -39 35q33 68 66 115q19 29 28 29q0 -50 20 -64q116 -79 133 -79q-33 -40 -98 -120q0 -14 6 -73l9 -97q0 -21 -21 -88q43 -17 74 -44q41 -34 41 -71q0 -63 -48 -128q-15 16 -46 49q-35 36 -92 36q-53 -31 -143 -54q-43 -11 -75 -11q-83 0 -83 83q0 48 33 131
q-48 2 -71 2q-40 0 -112 -39q-71 -38 -108 -38h-165zM235 -66q2 0 50.5 -28.5t53.5 -28.5q0 -11 -58 -71q-20 -21 -24 -21q-107 56 -107 66q0 6 39 44.5t46 38.5z" />
    <glyph glyph-name="lammeemkhahinitialarabic" unicode="&#xfedf;&#xfee4;&#xfea8;" horiz-adv-x="916" 
d="M220 579q4 0 46 -37.5t42 -40.5q0 -12 -60 -54q-22 -15 -28 -15q-7 0 -45.5 31t-38.5 36q0 8 38 44t46 36zM-4 0v136h192q79 0 107 20q-19 16 -103 51q-32 14 -46 14q-53 0 -78 -18q-12 -9 -23 -13q36 72 91 125q36 34 72 34q64 0 132 -38l65 -37q32 -18 63 -31
q145 -62 199 -62q-27 -40 -84 -116q-37 3 -84 7q0 -29 1 -33q9 -26 57 -26q69 0 176 44q3 2 3 18q0 53 -34 257l-15 94q-39 27 -39 35q33 68 66 115q19 29 28 29q0 -51 20 -64q116 -79 133 -79q-33 -40 -98 -120q0 -11 6 -72l9 -98q0 -21 -21 -88q43 -17 74 -44
q41 -34 41 -71q0 -63 -48 -128q-15 16 -46 49q-35 36 -92 36q-41 -24 -106 -44q-70 -21 -112 -21q-83 0 -83 83q0 48 33 131q-48 2 -71 2q-40 0 -113 -39q-70 -38 -107 -38h-165z" />
    <glyph glyph-name="lamalefmaddaaboveisolatedarabic" unicode="&#xfedf;&#xfe82;" horiz-adv-x="418" arabic-form="isolated" 
d="M117 488q-8 0 -18 3t-14 5.5t-17.5 11t-15.5 9.5q-25 -9 -53 -22l-27 30q47 71 85 71q22 0 68 -28q12 4 36.5 14t32.5 13l25 -32q-14 -29 -45 -52t-57 -23zM233 609l62 62q52 -56 108 -109l-36 -54q27 -216 27 -261q0 -257 -303 -257q-35 43 -69 90v50q82 0 128 5
q-20 100 -58 181l-23 -4q-26 68 -38 97l141 55q21 -58 42.5 -152t27.5 -156q32 12 60 33q-49 322 -69 420z" />
    <glyph glyph-name="lamalefmaddaabovefinalarabic" unicode="&#xfee0;&#xfe82;" horiz-adv-x="447" arabic-form="final" 
d="M119 488q-8 0 -18 3t-14 5.5t-17.5 11t-15.5 9.5q-25 -9 -53 -22l-27 30q47 71 85 71q22 0 68 -28q12 4 36.5 14t32.5 13l25 -32q-14 -29 -45 -52t-57 -23zM315 0l-9 94q-90 -104 -217 -104q-38 46 -69 90v50q88 0 132 6q-20 99 -58 180l-23 -4q-26 68 -38 97l141 55
q20 -55 41 -144.5t28 -153.5q26 14 54 38q-26 300 -40 404l62 62q52 -56 108 -109l-36 -54q14 -245 14 -326q0 -15 -3 -31q11 -10 45 -10q7 0 8.5 -1t1.5 -9v-130q0 -9 -10 -10q-66 0 -132 10z" />
    <glyph glyph-name="lamalefhamzaaboveisolatedarabic" unicode="&#xfedf;&#xfe84;" horiz-adv-x="418" arabic-form="isolated" 
d="M233 609l62 62q52 -56 108 -109q-27 -40 -36 -54q27 -216 27 -261q0 -257 -303 -257q-35 43 -69 90v50q82 0 128 5q-20 100 -58 181l-23 -4q-26 68 -38 97q96 37 141 55q21 -58 42.5 -152t27.5 -156q32 12 60 33q-49 322 -69 420zM23 473l-4 50l20 11q-9 16 -9 41
q0 27 20.5 46.5t48.5 19.5q27 0 57 -25l-14 -31q-16 5 -28 5q-18 0 -33 -7q4 -16 17 -28q44 12 79 15l-7 -72q-87 -9 -147 -25z" />
    <glyph glyph-name="lamalefhamzaabovefinalarabic" unicode="&#xfee0;&#xfe84;" horiz-adv-x="447" arabic-form="final" 
d="M315 0l-9 94q-90 -104 -217 -104q-38 46 -69 90v50q88 0 132 6q-20 99 -58 180l-23 -4q-26 68 -38 97q96 37 141 55q20 -55 41 -144.5t28 -153.5q26 14 54 38q-26 300 -40 404l62 62q52 -56 108 -109q-27 -40 -36 -54q14 -245 14 -326q0 -15 -3 -31q11 -10 45 -10
q7 0 8.5 -1t1.5 -9v-130q-7 -9 -10 -10q-66 0 -132 10zM23 474l-4 50l20 11q-9 17 -9 41q0 27 20.5 46.5t48.5 19.5q27 0 57 -25l-14 -31q-16 5 -28 5q-18 0 -33 -7q4 -16 17 -28q44 12 79 15l-7 -72q-87 -9 -147 -25z" />
    <glyph glyph-name="lamalefhamzabelowisolatedarabic" unicode="&#xfedf;&#xfe88;" horiz-adv-x="406" arabic-form="isolated" 
d="M221 609l62 62q52 -56 108 -109q-27 -40 -36 -54q27 -216 27 -261q0 -257 -303 -257q-35 43 -69 90v50q82 0 128 5q-20 100 -58 181l-23 -4q-26 68 -38 97q96 37 141 55q21 -58 42.5 -152t27.5 -156q32 12 60 33q-49 322 -69 420zM158 -243l-5 53l23 15q-16 26 -16 59
q0 35 24 60.5t59 25.5q14 0 33.5 -12.5t32.5 -27.5l-18 -29q-22 8 -45 8q-22 0 -36 -10q9 -29 34 -47q32 9 71 12l-9 -81q-76 -8 -148 -26z" />
    <glyph glyph-name="lamalefhamzabelowfinalarabic" unicode="&#xfee0;&#xfe88;" horiz-adv-x="437" arabic-form="final" 
d="M158 -243l-5 53l23 15q-16 26 -16 59q0 35 24 60.5t59 25.5q14 0 33.5 -12.5t32.5 -27.5l-18 -29q-22 8 -45 8q-22 0 -36 -10q9 -29 34 -47q32 9 71 12l-9 -81q-76 -8 -148 -26zM305 0l-9 94q-90 -104 -217 -104q-38 46 -69 90v50q88 0 132 6q-20 99 -58 180l-23 -4
q-26 68 -38 97q96 37 141 55q20 -55 41 -144.5t28 -153.5q26 14 54 38q-26 300 -40 404l62 62q52 -56 108 -109q-27 -40 -36 -54q14 -245 14 -326q0 -15 -3 -31q11 -10 45 -10q7 0 8.5 -1t1.5 -9v-130q-7 -9 -10 -10q-66 0 -132 10z" />
    <glyph glyph-name="lamalefisolatedarabic" unicode="&#xfedf;&#xfe8e;" horiz-adv-x="406" arabic-form="isolated" 
d="M221 609l62 62q52 -56 108 -109q-27 -40 -36 -54q27 -216 27 -261q0 -257 -303 -257q-35 43 -69 90v50q82 0 128 5q-20 100 -58 181l-23 -4q-26 68 -38 97q96 37 141 55q21 -58 42.5 -152t27.5 -156q32 12 60 33q-49 322 -69 420z" />
    <glyph glyph-name="lamaleffinalarabic" unicode="&#xfee0;&#xfe8e;" horiz-adv-x="437" arabic-form="final" 
d="M305 0l-9 94q-90 -104 -217 -104q-38 46 -69 90v50q88 0 132 6q-20 99 -58 180l-23 -4q-26 68 -38 97q96 37 141 55q20 -55 41 -144.5t28 -153.5q26 14 54 38q-26 300 -40 404l62 62q52 -56 108 -109q-27 -40 -36 -54q14 -245 14 -326q0 -15 -3 -31q11 -10 45 -10
q7 0 8.5 -1t1.5 -9v-130q-7 -9 -10 -10q-66 0 -132 10z" />
    <glyph glyph-name="hamzaarabic" unicode="&#x621;" horiz-adv-x="335" arabic-form="isolated" 
d="M10 -10l7 111l37 10q-12 41 -12 72q0 73 40.5 124.5t106.5 51.5q68 0 131 -99l-30 -39q-52 18 -89 18q-33 0 -73 -21q0 -45 25 -84q77 16 164 16v-50q-36 -61 -64 -100q-113 0 -243 -10z" />
    <glyph glyph-name="alefmaddaabovearabic" unicode="&#x622;" horiz-adv-x="204" arabic-form="isolated" 
d="M119 556q-8 0 -18 3t-14 5.5t-17.5 11t-15.5 9.5q-25 -9 -53 -22l-27 30q47 71 85 71q22 0 68 -28q12 4 36.5 14t32.5 13l25 -32q-14 -29 -45 -52t-57 -23zM30 429q23 22 43.5 43.5t37.5 37.5h50q10 -205 13 -329q-2 -29 -15 -181h-75q-4 35 -9.5 89.5t-7.5 72t-5.5 53
t-6 51t-6.5 45t-8.5 55t-10.5 63.5z" />
    <glyph glyph-name="alefhamzaabovearabic" unicode="&#x623;" horiz-adv-x="204" arabic-form="isolated" 
d="M39 429q23 22 43.5 43.5t37.5 37.5h50q10 -205 13 -329q-2 -29 -15 -181h-75q-4 35 -9.5 89.5t-7.5 72t-5.5 53t-6 51t-6.5 45t-8.5 55t-10.5 63.5zM24 510l-4 50l20 11q-9 17 -9 41q0 27 20.5 46.5t48.5 19.5q27 0 57 -25l-14 -31q-16 5 -28 5q-18 0 -33 -7
q4 -16 17 -28q44 12 79 15l-7 -72q-87 -9 -147 -25z" />
    <glyph glyph-name="wawhamzaabovearabic" unicode="&#x624;" horiz-adv-x="337" arabic-form="isolated" 
d="M70 363l-4 50l20 11q-9 16 -9 41q0 27 20.5 46.5t48.5 19.5q27 0 57 -25l-14 -31q-16 5 -28 5q-18 0 -33 -7q4 -16 17 -28q44 12 79 15l-7 -72q-87 -9 -147 -25zM59 -121q69 43 100.5 67.5t52.5 54.5q-182 10 -182 134q0 59 51 141.5t104 82.5q59 0 98 -70.5t39 -176.5
q0 -78 -69 -282h-178zM114 143q50 -17 120 -17q-24 73 -67 116q-43 -45 -53 -99z" />
    <glyph glyph-name="alefhamzabelowarabic" unicode="&#x625;" horiz-adv-x="204" arabic-form="isolated" 
d="M15 537l90 83h50q18 -407 19 -439q-2 -29 -15 -181h-75q-26 300 -69 537zM23 -237l-5 53l23 15q-16 26 -16 59q0 35 24 60.5t59 25.5q14 0 33.5 -12.5t32.5 -27.5l-18 -29q-22 8 -45 8q-22 0 -36 -10q9 -29 34 -47q32 9 71 12l-9 -81q-76 -8 -148 -26z" />
    <glyph glyph-name="yehhamzaabovearabic" unicode="&#x626;" horiz-adv-x="484" arabic-form="isolated" 
d="M19 170l-4 50l20 11q-9 16 -9 41q0 27 20.5 46.5t48.5 19.5q27 0 57 -25l-14 -31q-16 5 -28 5q-18 0 -33 -7q4 -16 17 -28q44 12 79 15l-7 -72q-87 -9 -147 -25zM215 -170q-86 0 -135.5 48t-49.5 133q0 62 36 139h50q-11 -42 -11 -59q0 -56 32.5 -88.5t100.5 -32.5
q69 0 141 37q-18 7 -50.5 17t-52.5 18t-42 20.5t-32.5 32.5t-10.5 47q0 70 75 143.5t134 73.5q34 0 53 -14.5t23 -40t1.5 -49t-10.5 -54.5h-50l-9 22q-35 -3 -59 -16.5t-52 -46.5q34 -13 52.5 -21t44.5 -22.5t39.5 -27t23.5 -31.5t10 -40q0 -77 -83.5 -132.5t-168.5 -55.5z
" />
    <glyph glyph-name="alefarabic" unicode="&#x627;" horiz-adv-x="204" arabic-form="isolated" 
d="M15 537l90 83h50q18 -407 19 -439q-2 -29 -15 -181h-75q-26 300 -69 537z" />
    <glyph glyph-name="beharabic" unicode="&#x628;" horiz-adv-x="485" arabic-form="isolated" 
d="M270 -220l-80 86l70 77h24l67 -79zM250 -10q-113 0 -166.5 36.5t-53.5 118.5q0 60 35 133h50q-10 -40 -10 -67q0 -37 33.5 -54t125.5 -17q65 0 122 8q-26 59 -77 144l100 83h40q21 -133 21 -217q0 -43 -10 -158q-129 -10 -210 -10z" />
    <glyph glyph-name="tehmarbutaarabic" unicode="&#x629;" horiz-adv-x="379" arabic-form="isolated" 
d="M49 120q0 97 91 190l-29 22v50l86 42q114 -125 167 -280l-80 -144q-40 -10 -98 -10q-137 0 -137 130zM110 453l-73 78l63 70h22l27 -33l37 41h22l61 -72l-73 -76l-39 41zM270 137q-47 82 -75 117q-54 -31 -54 -77q0 -24 18.5 -38t47.5 -14q37 0 63 12z" />
    <glyph glyph-name="teharabic" unicode="&#x62a;" horiz-adv-x="485" arabic-form="isolated" 
d="M250 -10q-113 0 -166.5 36.5t-53.5 118.5q0 60 35 133h50q-10 -40 -10 -67q0 -37 33.5 -54t125.5 -17q65 0 122 8q-26 59 -77 144l100 83h40q21 -133 21 -217q0 -43 -10 -158q-129 -10 -210 -10zM198 339l-73 78l63 70h22l27 -33l37 41h22l61 -72l-73 -76l-39 41z" />
    <glyph glyph-name="theharabic" unicode="&#x62b;" horiz-adv-x="485" arabic-form="isolated" 
d="M239 482l-54 57l47 51h16l44 -53zM250 -10q-113 0 -166.5 36.5t-53.5 118.5q0 60 35 133h50q-10 -40 -10 -67q0 -37 33.5 -54t125.5 -17q65 0 122 8q-26 59 -77 144l100 83h40q21 -133 21 -217q0 -43 -10 -158q-129 -10 -210 -10zM198 339l-73 78l63 70h22l27 -33l37 41
h22l61 -72l-73 -76l-39 41z" />
    <glyph glyph-name="jeemarabic" unicode="&#x62c;" horiz-adv-x="389" arabic-form="isolated" 
d="M379 236l-43 -116q-84 2 -143.5 -34.5t-59.5 -107.5q0 -55 37.5 -82.5t103.5 -27.5q39 0 99 16v-50q-31 -34 -80.5 -59t-99.5 -25q-71 0 -124.5 50.5t-53.5 132.5q0 91 72 155t174 86q-14 9 -33 24.5t-30 24t-27.5 15t-34.5 6.5q-31 0 -53 -23h-30l-22 87q65 67 115 67
q38 0 65.5 -15t43.5 -34.5t48.5 -46t75.5 -43.5zM269 -96l-80 86l70 77h24l67 -79z" />
    <glyph glyph-name="haharabic" unicode="&#x62d;" horiz-adv-x="389" arabic-form="isolated" 
d="M379 236l-43 -116q-84 2 -143.5 -34.5t-59.5 -107.5q0 -55 37.5 -82.5t103.5 -27.5q39 0 99 16v-50q-31 -34 -80.5 -59t-99.5 -25q-71 0 -124.5 50.5t-53.5 132.5q0 91 72 155t174 86q-14 9 -33 24.5t-30 24t-27.5 15t-34.5 6.5q-31 0 -53 -23h-30l-22 87q65 67 115 67
q38 0 65.5 -15t43.5 -34.5t48.5 -46t75.5 -43.5z" />
    <glyph glyph-name="khaharabic" unicode="&#x62e;" horiz-adv-x="389" arabic-form="isolated" 
d="M137 410l-80 86l70 77h24l67 -79zM379 236l-43 -116q-84 2 -143.5 -34.5t-59.5 -107.5q0 -55 37.5 -82.5t103.5 -27.5q39 0 99 16v-50q-31 -34 -80.5 -59t-99.5 -25q-71 0 -124.5 50.5t-53.5 132.5q0 91 72 155t174 86q-14 9 -33 24l-30 24q-11 9 -27.5 15.5t-34.5 6.5
q-31 0 -53 -23h-30l-22 87q65 67 115 67q38 0 65.5 -15t43.5 -34.5t48.5 -46t75.5 -43.5z" />
    <glyph glyph-name="dalarabic" unicode="&#x62f;" horiz-adv-x="324" arabic-form="isolated" 
d="M225 148q-18 45 -38.5 66.5t-78.5 56.5v50l54 77q147 -89 147 -226q0 -87 -22 -172q-77 -10 -133 -10q-73 0 -139 16l25 144q44 -10 97 -10q45 0 88 8z" />
    <glyph glyph-name="thalarabic" unicode="&#x630;" horiz-adv-x="324" arabic-form="isolated" 
d="M225 148q-18 45 -38.5 66.5t-78.5 56.5v50l54 77q147 -89 147 -226q0 -87 -22 -172q-77 -10 -133 -10q-73 0 -139 16l25 144q44 -10 97 -10q45 0 88 8zM141 431l-80 86l70 77h24l67 -79z" />
    <glyph glyph-name="reharabic" unicode="&#x631;" horiz-adv-x="249" arabic-form="isolated" 
d="M163 89q-30 64 -104 187l90 83h50q25 -132 25 -236q0 -73 -11 -131.5t-48 -161.5h-159l-16 48q80 64 112 103.5t61 107.5z" />
    <glyph glyph-name="zainarabic" unicode="&#x632;" horiz-adv-x="249" arabic-form="isolated" 
d="M104 396l-80 86l70 77h24l67 -79zM163 89q-30 64 -104 187l90 83h50q25 -132 25 -236q0 -73 -11 -131.5t-48 -161.5h-159l-16 48q80 64 112 103.5t61 107.5z" />
    <glyph glyph-name="seenarabic" unicode="&#x633;" horiz-adv-x="821" arabic-form="isolated" 
d="M389 299q14 -87 18 -149q22 -10 52 -10t52 10q-28 71 -66 132l76 58h50q24 -123 24 -182q0 -10 -1 -15q17 -3 33 -3q30 0 71 8q-26 59 -77 144l90 83h1h49h1q2 -11 3 -23q17 -117 17 -194q0 -43 -10 -158l-12 -1q-1 -2 -5 -1q-58 -7 -100 -8h-14h-1h-1q-50 0 -95 31
q-31 -31 -69 -31q-35 0 -74 23q-17 -81 -68.5 -132t-134.5 -51q-73 0 -120.5 46t-47.5 121q0 64 35 143h50q-8 -40 -8 -69q0 -50 26.5 -76t75.5 -26q62 0 107 36q-19 96 -67 211l90 83h50z" />
    <glyph glyph-name="sheenarabic" unicode="&#x634;" horiz-adv-x="821" arabic-form="isolated" 
d="M499 528l-54 57l47 51h16l44 -53zM458 385l-73 78l63 70h22l27 -33l37 41h22l61 -72l-73 -76l-39 41zM389 299q14 -87 18 -149q22 -10 52 -10t52 10q-28 71 -66 132l76 58h50q24 -123 24 -182q0 -10 -1 -15q17 -3 33 -3q30 0 71 8q-26 59 -77 144l90 83h1h49h1
q2 -11 3 -23q17 -117 17 -194q0 -43 -10 -158l-12 -1q-1 -2 -5 -1q-58 -7 -100 -8h-14h-1h-1q-50 0 -95 31q-31 -31 -69 -31q-35 0 -74 23q-17 -81 -68.5 -132t-134.5 -51q-73 0 -120.5 46t-47.5 121q0 64 35 143h50q-8 -40 -8 -69q0 -50 26.5 -76t75.5 -26q62 0 107 36
q-19 96 -67 211l90 83h50z" />
    <glyph glyph-name="sadarabic" unicode="&#x635;" horiz-adv-x="817" arabic-form="isolated" 
d="M389 299q14 -80 18 -142q1 -1 4 -1q53 92 103 151.5t111 82.5q81 -4 129 -63.5t48 -142.5q0 -86 -51 -171q-85 -13 -187 -13q-84 0 -161 21q-15 -83 -67.5 -137t-137.5 -54q-73 0 -120.5 46t-47.5 121q0 64 35 143h50q-8 -40 -8 -69q0 -50 26.5 -76t75.5 -26q62 0 107 36
q-19 96 -67 211l90 83h50zM601 275q-40 -27 -62 -53.5t-54 -79.5q25 -2 60 -2q68 0 150 12q0 43 -25.5 77t-68.5 46z" />
    <glyph glyph-name="dadarabic" unicode="&#x636;" horiz-adv-x="817" arabic-form="isolated" 
d="M389 299q14 -80 18 -142q1 -1 4 -1q53 92 103 151.5t111 82.5q81 -4 129 -63.5t48 -142.5q0 -86 -51 -171q-85 -13 -187 -13q-84 0 -161 21q-15 -83 -67.5 -137t-137.5 -54q-73 0 -120.5 46t-47.5 121q0 64 35 143h50q-8 -40 -8 -69q0 -50 26.5 -76t75.5 -26q62 0 107 36
q-19 96 -67 211l90 83h50zM601 275q-40 -27 -62 -53.5t-54 -79.5q25 -2 60 -2q68 0 150 12q0 43 -25.5 77t-68.5 46zM533 407l-80 86l70 77h24l67 -79z" />
    <glyph glyph-name="taharabic" unicode="&#x637;" horiz-adv-x="507" arabic-form="isolated" 
d="M15 48l43 116q15 -5 41 -11l24 41q-21 171 -50 364l62 62q52 -56 108 -109q-27 -40 -36 -54q0 -5 -6 -154q55 65 114 87q81 -4 129 -63.5t48 -142.5q0 -86 -51 -171q-90 -13 -150 -13q-80 0 -137 9t-139 39zM291 275q-40 -27 -62 -53.5t-54 -80.5q19 -1 60 -1
q68 0 150 12q0 43 -25.5 77t-68.5 46z" />
    <glyph glyph-name="zaharabic" unicode="&#x638;" horiz-adv-x="507" arabic-form="isolated" 
d="M353 431l-80 86l70 77h24l67 -79zM15 48l43 116q15 -5 41 -11l24 41q-21 171 -50 364l62 62q52 -56 108 -109q-27 -40 -36 -54q0 -5 -6 -154q55 65 114 87q81 -4 129 -63.5t48 -142.5q0 -86 -51 -171q-90 -13 -150 -13q-80 0 -137 9t-139 39zM291 275q-40 -27 -62 -53.5
t-54 -80.5q19 -1 60 -1q68 0 150 12q0 43 -25.5 77t-68.5 46z" />
    <glyph glyph-name="ainarabic" unicode="&#x639;" horiz-adv-x="378" arabic-form="isolated" 
d="M188 -250q-76 0 -127 50t-51 133q0 106 103 174q-37 69 -37 133q0 69 43.5 122t103.5 53q67 0 130 -94l-32 -39q-40 13 -77 13q-38 0 -81 -21q2 -65 54 -117q58 20 116 32l25 -44l-15 -95q-113 0 -187 -12q-28 -28 -28 -70q0 -100 141 -100q39 0 99 16v-50
q-31 -34 -80.5 -59t-99.5 -25z" />
    <glyph glyph-name="ghainarabic" unicode="&#x63a;" horiz-adv-x="378" arabic-form="isolated" 
d="M196 465l-80 86l70 77h24l67 -79zM188 -250q-76 0 -127 50t-51 133q0 106 103 174q-37 69 -37 133q0 69 43.5 122t103.5 53q67 0 130 -94l-32 -39q-40 13 -77 13q-38 0 -81 -21q2 -65 54 -117q58 20 116 32l25 -44l-15 -95q-113 0 -187 -12q-28 -28 -28 -70
q0 -100 141 -100q39 0 99 16v-50q-31 -34 -80.5 -59t-99.5 -25z" />
    <glyph glyph-name="feharabic" unicode="&#x641;" horiz-adv-x="578" arabic-form="isolated" 
d="M335 292q46 -24 98 -22q-17 66 -56 103q-24 -28 -42 -81zM376 534l-80 86l70 77h24l67 -79zM455 150l-6 40q-41 -17 -83 -17q-49 0 -82.5 28t-33.5 80q0 65 44 137q40 65 96 72q75 0 118 -96.5t43 -221.5q0 -69 -11 -172q-149 -10 -283 -10h-7h-2.5h-2.5h-3
q-107 1 -158 36q-54 37 -54 119q0 60 35 133h50q-10 -40 -10 -67q0 -37 33 -54q33 -16 119 -17q113 1 198 10z" />
    <glyph glyph-name="qafarabic" unicode="&#x642;" horiz-adv-x="480" arabic-form="isolated" 
d="M237 -60q90 0 130 60q-195 6 -195 135q0 59 51 141.5t104 82.5q59 0 98.5 -72.5t39.5 -182.5q0 -151 -65.5 -227.5t-164.5 -76.5q-94 0 -149.5 46.5t-55.5 134.5q0 73 36 150h48q-9 -35 -9 -70q0 -60 35 -90.5t97 -30.5zM261 409l-73 78l63 70h22l27 -33l37 41h22l61 -72
l-73 -76l-39 41zM256 143q50 -17 120 -17q-24 73 -67 116q-43 -45 -53 -99z" />
    <glyph glyph-name="kafarabic" unicode="&#x643;" horiz-adv-x="521" arabic-form="isolated" 
d="M164 203l-4 50l20 11q-9 16 -9 41q0 27 20.5 46.5t48.5 19.5q27 0 57 -25l-14 -31q-16 5 -28 5q-18 0 -33 -7q4 -16 17 -28q44 12 79 15l-7 -72q-87 -9 -147 -25zM460 0q-129 -10 -210 -10q-113 0 -166.5 36.5t-53.5 118.5q0 60 35 133h50q-10 -40 -10 -67
q0 -37 33.5 -54t125.5 -17q40 0 114 8q-11 122 -51 410l62 62q52 -56 108 -109l-36 -54q9 -157 9 -264v-35v-13q4 -1 0 -3q-2 -45 -10 -142z" />
    <glyph glyph-name="lamarabic" unicode="&#x644;" horiz-adv-x="451" arabic-form="isolated" 
d="M314 5q-14 248 -48 553l62 62q52 -56 108 -109q-27 -40 -36 -54q9 -157 9 -350q0 -123 -53 -200t-158 -77q-73 0 -120.5 46t-47.5 121q0 69 37 153h50q-10 -50 -10 -79q0 -50 26.5 -76t75.5 -26q60 0 105 36z" />
    <glyph glyph-name="meemarabic" unicode="&#x645;" horiz-adv-x="383" arabic-form="isolated" 
d="M44 137q33 7 43 9q34 205 148 205q44 0 75.5 -30t44.5 -72t13 -88q0 -98 -52 -171q-104 0 -195 17q5 -102 50 -211l-19 -46h-118q-14 134 -14 163q0 136 24 224zM194 225q-17 -33 -25 -77q5 0 43.5 -5.5t69.5 -6.5q-11 43 -31 64t-57 25z" />
    <glyph glyph-name="noonarabic" unicode="&#x646;" horiz-adv-x="424" arabic-form="isolated" 
d="M389 299q20 -108 20 -210q0 -107 -54 -183t-157 -76q-73 0 -120.5 46t-47.5 121q0 64 35 143h50q-8 -40 -8 -69q0 -50 26.5 -76t75.5 -26q62 0 107 36q-19 96 -67 211l90 83h50zM187 221l-80 86l70 77h24l67 -79z" />
    <glyph glyph-name="heharabic" unicode="&#x647;" horiz-adv-x="379" arabic-form="isolated" 
d="M49 120q0 97 91 190l-29 22v50l86 42q114 -125 167 -280l-80 -144q-40 -10 -98 -10q-137 0 -137 130zM270 137q-47 82 -75 117q-54 -31 -54 -77q0 -24 18.5 -38t47.5 -14q37 0 63 12z" />
    <glyph glyph-name="wawarabic" unicode="&#x648;" horiz-adv-x="337" arabic-form="isolated" 
d="M59 -121q69 43 100.5 67.5t52.5 54.5q-182 10 -182 134q0 59 51 141.5t104 82.5q59 0 98 -70.5t39 -176.5q0 -78 -69 -282h-178zM114 143q50 -17 120 -17q-24 73 -67 116q-43 -45 -53 -99z" />
    <glyph glyph-name="alefmaksuraarabic" unicode="&#x649;" horiz-adv-x="484" arabic-form="isolated" 
d="M215 -170q-86 0 -135.5 48t-49.5 133q0 62 36 139h50q-11 -42 -11 -59q0 -56 32.5 -88.5t100.5 -32.5q69 0 141 37q-18 7 -50.5 17t-52.5 18t-42 20.5t-32.5 32.5t-10.5 47q0 70 75 143.5t134 73.5q34 0 53 -14.5t23 -40t1.5 -49t-10.5 -54.5h-50l-9 22q-35 -3 -59 -16.5
t-52 -46.5q34 -13 52.5 -21t44.5 -22.5t39.5 -27t23.5 -31.5t10 -40q0 -77 -83.5 -132.5t-168.5 -55.5z" />
    <glyph glyph-name="yeharabic" unicode="&#x64a;" horiz-adv-x="484" arabic-form="isolated" 
d="M215 -170q-86 0 -135.5 48t-49.5 133q0 62 36 139h50q-11 -42 -11 -59q0 -56 32.5 -88.5t100.5 -32.5q69 0 141 37q-18 7 -50.5 17t-52.5 18t-42 20.5t-32.5 32.5t-10.5 47q0 70 75 143.5t134 73.5q34 0 53 -14.5t23 -40t1.5 -49t-10.5 -54.5h-50l-9 22q-35 -3 -59 -16.5
t-52 -46.5q34 -13 52.5 -21t44.5 -22.5t39.5 -27t23.5 -31.5t10 -40q0 -77 -83.5 -132.5t-168.5 -55.5zM211 -333l-73 78l63 70h22l27 -32l37 40h22l61 -72l-73 -76l-39 42z" />
    <glyph glyph-name="fathatanarabic" unicode="&#xfe70;" horiz-adv-x="0" arabic-form="isolated" 
d="M1 589v59q63 21 79 24q35 10 86 15v-60q-44 -5 -81 -13q-68 -19 -84 -25zM-5 679v63q43 14 79 23q50 10 86 14v-61q-40 -4 -81 -13q-39 -10 -84 -26z" />
    <glyph glyph-name="dammatanarabic" unicode="&#xfe72;" horiz-adv-x="0" arabic-form="isolated" 
d="M101 650q3 1 25 2q13 1 28 11q-3 0 -8 2q-16 6 -24 8q-4 1 -19 9q-11 6 -14.5 14t-1.5 19q5 26 27 49q21 22 45 16q24 -7 35 -39t6 -61l-2 -6l-2 -12l-2 -6l-12 -21l-12 -9q-24 -18 -54 -19q-25 -1 -59 5h-4l-18 4l-21 6q20 41 16 61t-32 45l26 16l10 6q55 -46 32 -96
l18 -3q11 -1 17 -1zM120 712q16 -10 48 -18q-3 33 -17 55q-22 -15 -31 -37z" />
    <glyph glyph-name="kasratanarabic" unicode="&#xfe74;" horiz-adv-x="0" arabic-form="isolated" 
d="M1 -415v59q63 21 79 24q35 10 86 15v-60q-44 -5 -81 -13q-68 -19 -84 -25zM-5 -325v63q43 14 79 23q50 10 86 14v-61q-40 -4 -81 -13q-39 -10 -84 -26z" />
    <glyph glyph-name="fathaarabic" unicode="&#xfe76;" horiz-adv-x="0" arabic-form="isolated" 
d="M1 589v59q63 21 79 24q35 10 86 15v-60q-44 -5 -81 -13q-68 -19 -84 -25z" />
    <glyph glyph-name="dammaarabic" unicode="&#xfe78;" horiz-adv-x="0" arabic-form="isolated" 
d="M156 656l2 6l2 12q2 5 2 6q5 29 -6 61t-35 39q-24 6 -45 -16t-27 -49q-2 -11 1.5 -19t14.5 -14t19 -9t24 -8q5 -2 8 -2q-13 -8 -28 -10.5t-25 -2.5t-31.5 2.5t-32.5 3.5l1 -26l11 -16q35 -7 63.5 -6.5t57.5 18.5l12 9zM82 712q16 -10 48 -18q-3 33 -17 55
q-22 -15 -31 -37z" />
    <glyph glyph-name="kasraarabic" unicode="&#xfe7a;" horiz-adv-x="0" arabic-form="isolated" 
d="M-5 -343v63q43 14 79 23q50 10 86 14v-61q-40 -4 -81 -13q-39 -10 -84 -26z" />
    <glyph glyph-name="shaddaarabic" unicode="&#xfe7c;" horiz-adv-x="0" arabic-form="isolated" 
d="M111 834q0 26 26 49q0 -6 -0.5 -17.5t-0.5 -16.5q0 -81 -44 -89q-26 0 -29 3q-23 -30 -50 -35q-33 0 -33 29q0 15 9 44q11 33 21 34q5 0 5 -8q0 -5 -4 -17.5t-4 -19.5q0 -17 16 -17q26 4 33 41q5 26 18 31q3 0 3 -7q-1 -6 -2 -18q0 -18 27 -18q10 1 10 11q0 3 -0.5 10.5
t-0.5 10.5z" />
    <glyph glyph-name="sukunarabic" unicode="&#xfe7e;" horiz-adv-x="0" arabic-form="isolated" 
d="M80 929q26 0 44 -18.5t18 -44.5q0 -34 -23.5 -63.5t-56.5 -35.5q-52 0 -52 52q0 49 34 88q16 19 36 22zM68 812q14 2 29 13q17 12 17 24l1 1q0 14 -15 24q-13 9 -28 9q-15 -2 -28.5 -16.5t-13.5 -29.5q0 -25 38 -25z" />
    <glyph glyph-name="alefmaddaabovefinalarabic" unicode="&#x622;" horiz-adv-x="216" arabic-form="final" 
d="M119 556q-8 0 -18 3t-14 5.5t-17.5 11t-15.5 9.5q-25 -9 -53 -22l-27 30q47 71 85 71q22 0 68 -28q12 4 36.5 14t32.5 13l25 -32q-14 -29 -45 -52t-57 -23zM30 430l82 80h50q9 -200 12 -329l-3 -31q11 -10 45 -10q8 0 9 -1t1 -9v-130q0 -8 -1 -9t-9 -1q-66 0 -132 10
q-17 181 -25 241t-29 189z" />
    <glyph glyph-name="alefhamzaabovefinalarabic" unicode="&#x623;" horiz-adv-x="216" arabic-form="final" 
d="M30 430l82 80h50q9 -200 12 -329l-3 -31q11 -10 45 -10q8 0 9 -1t1 -9v-130q0 -8 -1 -9t-9 -1q-66 0 -132 10q-17 181 -25 241t-29 189zM15 510l-4 50l20 11q-9 17 -9 41q0 27 20.5 46.5t48.5 19.5q27 0 57 -25l-14 -31q-16 5 -28 5q-18 0 -33 -7q4 -16 17 -28
q44 12 79 15l-7 -72q-87 -9 -147 -25z" />
    <glyph glyph-name="wawhamzaabovefinalarabic" unicode="&#x624;" horiz-adv-x="352" arabic-form="final" 
d="M59 -121q71 45 101 68t50 52q-180 25 -180 136q0 59 51 141.5t104 82.5q54 0 92 -61.5t44 -156.5q13 -1 31 -1q8 0 9 -1t1 -9v-130q0 -8 -1 -9t-9 -1q-9 0 -25.5 0.5t-24.5 0.5q-17 -67 -49 -161h-178zM70 363l-4 50l20 11q-9 16 -9 41q0 27 20.5 46.5t48.5 19.5
q27 0 57 -25l-14 -31q-16 5 -28 5q-18 0 -33 -7q4 -16 17 -28q44 12 79 15l-7 -72q-87 -9 -147 -25zM114 143q43 -15 120 -17q-24 73 -67 116q-43 -45 -53 -99z" />
    <glyph glyph-name="alefhamzabelowfinalarabic" unicode="&#x625;" horiz-adv-x="216" arabic-form="final" 
d="M23 -237l-5 53l23 15q-16 26 -16 59q0 35 24 60.5t59 25.5q14 0 33.5 -12.5t32.5 -27.5l-18 -29q-22 8 -45 8q-22 0 -36 -10q9 -29 34 -47q32 9 71 12l-9 -81q-76 -8 -148 -26zM15 537l90 83h50q14 -217 19 -439l-3 -31q11 -10 45 -10q8 0 9 -1t1 -9v-130q0 -8 -1 -9
t-9 -1q-66 0 -132 10q-26 300 -69 537z" />
    <glyph glyph-name="yehhamzaabovefinalarabic" unicode="&#x626;" horiz-adv-x="456" arabic-form="final" 
d="M19 170l-4 50l20 11q-9 16 -9 41q0 27 20.5 46.5t48.5 19.5q27 0 57 -25l-14 -31q-16 5 -28 5q-18 0 -33 -7q4 -16 17 -28q44 12 79 15l-7 -72q-87 -9 -147 -25zM456 -10q-7 0 -23 2q-26 -78 -82.5 -120t-129.5 -42q-88 0 -139.5 48.5t-51.5 132.5q0 62 36 139h50
q-11 -40 -11 -68q0 -53 31 -82.5t87 -29.5q76 0 127 39v19q-51 39 -74 93l23 45q60 -17 85.5 -21.5t71.5 -4.5q8 0 9 -1t1 -9v-130q0 -8 -1 -9t-9 -1z" />
    <glyph glyph-name="yehhamzaaboveinitialarabic" unicode="&#x626;" horiz-adv-x="197" arabic-form="initial" 
d="M21 292l90 83h50q21 -133 21 -217q0 -43 -10 -158q-87 -10 -162 -10q-8 0 -9 1t-1 9v130q0 8 1 9t9 1q45 0 88 8q-24 56 -77 144zM15 383l-4 50l20 11q-9 16 -9 41q0 27 20.5 46.5t48.5 19.5q27 0 57 -25l-14 -31q-16 5 -28 5q-18 0 -33 -7q4 -16 17 -28q44 12 79 15
l-7 -72q-87 -9 -147 -25z" />
    <glyph glyph-name="yehhamzaabovemedialarabic" unicode="&#x626;" horiz-adv-x="226" arabic-form="medial" 
d="M21 292l90 83h50q21 -133 21 -217v-14q30 -4 44 -4q8 0 9 -1t1 -9v-130q0 -8 -1 -9t-9 -1t-22.5 15t-27.5 37l-4 -42q-87 -10 -162 -10q-8 0 -9 1t-1 9v130q0 8 1 9t9 1q45 0 88 8q-24 56 -77 144zM14 393l-4 50l20 11q-9 16 -9 41q0 27 20.5 46.5t48.5 19.5q27 0 57 -25
l-14 -31q-16 5 -28 5q-18 0 -33 -7q4 -16 17 -28q44 12 79 15l-7 -72q-87 -9 -147 -25z" />
    <glyph glyph-name="aleffinalarabic" unicode="&#x627;" horiz-adv-x="216" arabic-form="final" 
d="M15 537l90 83h50q14 -217 19 -439l-3 -31q11 -10 45 -10q8 0 9 -1t1 -9v-130q0 -8 -1 -9t-9 -1q-66 0 -132 10q-26 300 -69 537z" />
    <glyph glyph-name="behfinalarabic" unicode="&#x628;" horiz-adv-x="514" arabic-form="final" 
d="M514 -10q-8 0 -22.5 15t-27.5 37l-4 -42q-129 -10 -210 -10q-113 0 -166.5 36.5t-53.5 118.5q0 60 35 133h50q-10 -40 -10 -67q0 -37 33.5 -54t125.5 -17q65 0 122 8q-26 59 -77 144l100 83h40q21 -133 21 -217v-14q30 -4 44 -4q8 0 9 -1t1 -9v-130q0 -8 -1 -9t-9 -1z
M270 -220l-80 86l70 77h24l67 -79z" />
    <glyph glyph-name="behinitialarabic" unicode="&#x628;" horiz-adv-x="197" arabic-form="initial" 
d="M21 292l90 83h50q21 -133 21 -217q0 -43 -10 -158q-87 -10 -162 -10q-8 0 -9 1t-1 9v130q0 8 1 9t9 1q45 0 88 8q-24 56 -77 144zM90 -220l-80 86l70 77h24l67 -79z" />
    <glyph glyph-name="behmedialarabic" unicode="&#x628;" horiz-adv-x="226" arabic-form="medial" 
d="M21 292l90 83h50q21 -133 21 -217v-14q30 -4 44 -4q8 0 9 -1t1 -9v-130q0 -8 -1 -9t-9 -1t-22.5 15t-27.5 37l-4 -42q-87 -10 -162 -10q-8 0 -9 1t-1 9v130q0 8 1 9t9 1q45 0 88 8q-24 56 -77 144zM115 -220l-80 86l70 77h24l67 -79z" />
    <glyph glyph-name="tehmarbutafinalarabic" unicode="&#x629;" horiz-adv-x="355" arabic-form="final" 
d="M233 0l-6 49l-48 -49q-64 0 -106.5 28t-42.5 94q0 65 35 116t114 96l-5 33l83 59h50q6 -124 6 -245l-3 -31q11 -10 45 -10q7 0 8.5 -1t1.5 -9v-130q-7 -9 -10 -10q-56 0 -122 10zM182 456l-73 78l63 70h22l27 -33l37 41h22l61 -72l-73 -76l-39 41zM119 155q48 -14 95 -15
q-1 5 -18 100q-46 -24 -77 -85z" />
    <glyph glyph-name="tehfinalarabic" unicode="&#x62a;" horiz-adv-x="514" arabic-form="final" 
d="M514 -10q-8 0 -22.5 15t-27.5 37l-4 -42q-129 -10 -210 -10q-113 0 -166.5 36.5t-53.5 118.5q0 60 35 133h50q-10 -40 -10 -67q0 -37 33.5 -54t125.5 -17q65 0 122 8q-26 59 -77 144l100 83h40q21 -133 21 -217v-14q30 -4 44 -4q8 0 9 -1t1 -9v-130q0 -8 -1 -9t-9 -1z
M200 340l-73 78l63 70h22l27 -33l37 41h22l61 -72l-73 -76l-39 41z" />
    <glyph glyph-name="tehinitialarabic" unicode="&#x62a;" horiz-adv-x="234" arabic-form="initial" 
d="M128 148q-26 59 -77 144l90 83h50q21 -133 21 -217q0 -43 -10 -158q-134 -10 -192 -10q-8 0 -9 1t-1 9v130q0 8 1 9t9 1q57 0 118 8zM74 406l-73 78l63 70h22l27 -33l37 41h22l61 -72l-73 -76l-39 41z" />
    <glyph glyph-name="tehmedialarabic" unicode="&#x62a;" horiz-adv-x="257" arabic-form="medial" 
d="M128 148q-26 59 -77 144l90 83h50q21 -133 21 -217v-14q21 -4 45 -4q7 0 8.5 -1t1.5 -9v-130q-7 -9 -10 -10q-8 0 -23 15.5t-28 37.5l-4 -43q-134 -10 -192 -10q-8 0 -9 1t-1 9v130q0 8 1 9t9 1q57 0 118 8zM82 406l-73 78l63 70h22l27 -33l37 41h22l61 -72l-73 -76
l-39 41z" />
    <glyph glyph-name="thehfinalarabic" unicode="&#x62b;" horiz-adv-x="514" arabic-form="final" 
d="M241 483l-54 57l47 51h16l44 -53zM514 -10q-8 0 -22.5 15t-27.5 37l-4 -42q-129 -10 -210 -10q-113 0 -166.5 36.5t-53.5 118.5q0 60 35 133h50q-10 -40 -10 -67q0 -37 33.5 -54t125.5 -17q65 0 122 8q-26 59 -77 144l100 83h40q21 -133 21 -217v-14q30 -4 44 -4
q8 0 9 -1t1 -9v-130q0 -8 -1 -9t-9 -1zM200 340l-73 78l63 70h22l27 -33l37 41h22l61 -72l-73 -76l-39 41z" />
    <glyph glyph-name="thehinitialarabic" unicode="&#x62b;" horiz-adv-x="234" arabic-form="initial" 
d="M115 549l-54 57l47 51h16l44 -53zM128 148q-26 59 -77 144l90 83h50q21 -133 21 -217q0 -43 -10 -158q-134 -10 -192 -10q-8 0 -9 1t-1 9v130q0 8 1 9t9 1q57 0 118 8zM74 406l-73 78l63 70h22l27 -33l37 41h22l61 -72l-73 -76l-39 41z" />
    <glyph glyph-name="thehmedialarabic" unicode="&#x62b;" horiz-adv-x="257" arabic-form="medial" 
d="M123 549l-54 57l47 51h16l44 -53zM82 406l-73 78l63 70h22l27 -33l37 41h22l61 -72l-73 -76l-39 41zM128 148q-26 59 -77 144l90 83h50q21 -133 21 -217v-14q21 -4 45 -4q7 0 8.5 -1t1.5 -9v-130q-7 -9 -10 -10q-8 0 -23 15.5t-28 37.5l-4 -43q-134 -10 -192 -10
q-8 0 -9 1t-1 9v130q0 8 1 9t9 1q57 0 118 8z" />
    <glyph glyph-name="jeemfinalarabic" unicode="&#x62c;" horiz-adv-x="397" arabic-form="final" 
d="M379 236l-35 -94q26 -2 53 -2q7 0 8.5 -1t1.5 -9v-130q-7 -9 -10 -10q-54 0 -84.5 38t-30.5 85v4q-66 -10 -107.5 -45.5t-41.5 -93.5q0 -55 37.5 -82.5t103.5 -27.5q39 0 99 16v-50q-31 -34 -80.5 -59t-99.5 -25q-71 0 -124.5 50.5t-53.5 132.5q0 91 72 155t174 86
q-14 9 -33 24.5t-30 24t-27.5 15t-34.5 6.5q-31 0 -53 -23h-30l-22 87q65 67 115 67q38 0 65.5 -15t43.5 -34.5t48.5 -46t75.5 -43.5zM246 -106l-80 86l70 77h24l67 -79z" />
    <glyph glyph-name="jeeminitialarabic" unicode="&#x62c;" horiz-adv-x="390" arabic-form="initial" 
d="M349 50q-67 0 -108 -9.5t-57 -20.5t-59.5 -20.5t-114.5 -9.5q-8 0 -9 1t-1 9v130q0 8 1 9t9 1q134 0 229 16q-25 16 -48 39.5t-38 36t-32 12.5q-24 0 -44 -23h-30l-22 87q65 67 119 67q33 0 58 -18.5t43 -48t35.5 -60.5t44.5 -61.5t60 -46.5zM248 -170l-80 86l70 77h24
l67 -79z" />
    <glyph glyph-name="jeemmedialarabic" unicode="&#x62c;" horiz-adv-x="383" arabic-form="medial" 
d="M248 -170l-80 86l70 77h24l67 -79zM383 -10q-9 0 -25 18t-30 42q-58 -1 -95 -11t-53 -20.5t-58.5 -19.5t-111.5 -9q-8 0 -9 1t-1 9v130q0 8 1 9t9 1q134 0 229 16q-25 16 -48 39.5t-38 36t-32 12.5q-24 0 -44 -23h-30l-22 87q65 67 119 67q33 0 58 -18.5t43 -48
t35.5 -60.5t44.5 -61.5t60 -46.5q5 0 6.5 -1.5t1.5 -8.5v-130q-7 -9 -10 -10z" />
    <glyph glyph-name="hahfinalarabic" unicode="&#x62d;" horiz-adv-x="397" arabic-form="final" 
d="M379 236l-35 -94q26 -2 53 -2q7 0 8.5 -1t1.5 -9v-130q-7 -9 -10 -10q-54 0 -84.5 38t-30.5 85v4q-66 -10 -107.5 -45.5t-41.5 -93.5q0 -55 37.5 -82.5t103.5 -27.5q39 0 99 16v-50q-31 -34 -80.5 -59t-99.5 -25q-71 0 -124.5 50.5t-53.5 132.5q0 91 72 155t174 86
q-14 9 -33 24.5t-30 24t-27.5 15t-34.5 6.5q-31 0 -53 -23h-30l-22 87q65 67 115 67q38 0 65.5 -15t43.5 -34.5t48.5 -46t75.5 -43.5z" />
    <glyph glyph-name="hahinitialarabic" unicode="&#x62d;" horiz-adv-x="390" arabic-form="initial" 
d="M349 50q-67 0 -108 -9.5t-57 -20.5t-59.5 -20.5t-114.5 -9.5q-8 0 -9 1t-1 9v130q0 8 1 9t9 1q134 0 229 16q-25 16 -48 39.5t-38 36t-32 12.5q-24 0 -44 -23h-30l-22 87q65 67 119 67q33 0 58 -18.5t43 -48t35.5 -60.5t44.5 -61.5t60 -46.5z" />
    <glyph glyph-name="hahmedialarabic" unicode="&#x62d;" horiz-adv-x="386" arabic-form="medial" 
d="M386 -10q-9 0 -25 18t-30 42q-60 -1 -97.5 -11t-53.5 -20.5t-58.5 -19.5t-111.5 -9q-8 0 -9 1t-1 9v130q0 8 1 9t9 1q134 0 229 16q-25 16 -48 39.5t-38 36t-32 12.5q-24 0 -44 -23h-30l-22 87q65 67 119 67q33 0 58 -18.5t43 -48t35.5 -60.5t44.5 -61.5t60 -46.5h1
q8 0 9 -1t1 -9v-130q0 -8 -1 -9t-9 -1z" />
    <glyph glyph-name="khahfinalarabic" unicode="&#x62e;" horiz-adv-x="397" arabic-form="final" 
d="M137 410l-80 86l70 77h24l67 -79zM379 236l-35 -94q26 -2 53 -2q7 0 8.5 -1t1.5 -9v-130q0 -9 -10 -10q-54 0 -84.5 38t-30.5 85v4q-66 -10 -107.5 -45.5t-41.5 -93.5q0 -55 37.5 -82.5t103.5 -27.5q39 0 99 16v-50q-31 -34 -80.5 -59t-99.5 -25q-71 0 -124.5 50.5
t-53.5 132.5q0 91 72 155t174 86q-14 9 -33 24l-30 24q-11 9 -27.5 15.5t-34.5 6.5q-31 0 -53 -23h-30l-22 87q65 67 115 67q38 0 65.5 -15t43.5 -34.5t48.5 -46t75.5 -43.5z" />
    <glyph glyph-name="khahinitialarabic" unicode="&#x62e;" horiz-adv-x="390" arabic-form="initial" 
d="M349 50q-67 0 -108 -9.5t-57 -20.5t-59.5 -20.5t-114.5 -9.5q-8 0 -9 1t-1 9v130q0 8 1 9t9 1q134 0 229 16q-25 16 -48 39.5t-38 36t-32 12.5q-24 0 -44 -23h-30l-22 87q65 67 119 67q33 0 58 -18.5t43 -48t35.5 -60.5t44.5 -61.5t60 -46.5zM131 410l-80 86l70 77h24
l67 -79z" />
    <glyph glyph-name="khahmedialarabic" unicode="&#x62e;" horiz-adv-x="386" arabic-form="medial" 
d="M386 -10q-9 0 -25 18t-30 42q-60 -1 -97.5 -11t-53.5 -20.5t-58.5 -19.5t-111.5 -9q-8 0 -9 1t-1 9v130q0 8 1 9t9 1q134 0 229 16q-25 16 -48 39.5t-38 36t-32 12.5q-24 0 -44 -23h-30l-22 87q65 67 119 67q33 0 58 -18.5t43 -48t35.5 -60.5t44.5 -61.5t60 -46.5h1
q8 0 9 -1t1 -9v-130q0 -8 -1 -9t-9 -1zM131 410l-80 86l70 77h24l67 -79z" />
    <glyph glyph-name="dalfinalarabic" unicode="&#x62f;" horiz-adv-x="348" arabic-form="final" 
d="M348 -10q-8 0 -23 16t-28 38q-2 -9 -5.5 -24t-4.5 -20q-77 -10 -133 -10q-73 0 -139 16l25 144q44 -10 97 -10q45 0 88 8q-18 45 -38.5 66.5t-78.5 56.5v50l54 77q147 -89 147 -226q0 -20 -1 -29q21 -3 40 -3q8 0 9 -1t1 -9v-130q0 -8 -1 -9t-9 -1z" />
    <glyph glyph-name="thalfinalarabic" unicode="&#x630;" horiz-adv-x="348" arabic-form="final" 
d="M348 -10q-8 0 -23 16t-28 38q-2 -9 -5.5 -24t-4.5 -20q-77 -10 -133 -10q-73 0 -139 16l25 144q44 -10 97 -10q45 0 88 8q-18 45 -38.5 66.5t-78.5 56.5v50l54 77q147 -89 147 -226q0 -20 -1 -29q21 -3 40 -3q8 0 9 -1t1 -9v-130q0 -8 -1 -9t-9 -1zM139 431l-80 86l70 77
h24l67 -79z" />
    <glyph glyph-name="rehfinalarabic" unicode="&#x631;" horiz-adv-x="264" arabic-form="final" 
d="M163 89q-30 64 -104 187l90 83h50q22 -117 25 -216q21 -3 40 -3q8 0 9 -1t1 -9v-130q0 -8 -1 -9t-9 -1q-17 0 -45 43q-8 -75 -54 -203h-159l-16 48q80 64 112 103.5t61 107.5z" />
    <glyph glyph-name="zainfinalarabic" unicode="&#x632;" horiz-adv-x="264" arabic-form="final" 
d="M163 89q-30 64 -104 187l90 83h50q22 -117 25 -216q21 -3 40 -3q8 0 9 -1t1 -9v-130q0 -8 -1 -9t-9 -1q-17 0 -45 43q-8 -75 -54 -203h-159l-16 48q80 64 112 103.5t61 107.5zM99 396l-80 86l70 77h24l67 -79z" />
    <glyph glyph-name="seenfinalarabic" unicode="&#x633;" horiz-adv-x="821" arabic-form="final" 
d="M389 299q14 -87 18 -149q22 -10 52 -10t52 10q-28 71 -66 132l76 58h50q24 -123 24 -182q0 -10 -1 -15q18 -3 34 -3q30 0 71 8q-26 59 -77 144l90 83h50q21 -133 21 -217v-16q12 -2 38 -2q7 0 8.5 -1t1.5 -9v-130q-7 -9 -10 -10q-29 0 -66 8q-72 -8 -114 -8q-51 0 -97 31
q-31 -31 -69 -31q-35 0 -74 23q-17 -81 -68.5 -132t-134.5 -51q-73 0 -120.5 46t-47.5 121q0 64 35 143h50q-8 -40 -8 -69q0 -50 26.5 -76t75.5 -26q62 0 107 36q-19 96 -67 211l90 83h50z" />
    <glyph glyph-name="seeninitialarabic" unicode="&#x633;" horiz-adv-x="548" arabic-form="initial" 
d="M372 292l90 83h50q21 -133 21 -217q0 -43 -10 -158q-81 -10 -132 -10q-52 0 -101 33q-40 -33 -94 -33q-48 0 -91 38q-36 -38 -95 -38q-8 0 -9 1t-1 9v130q0 8 1 9t9 1q67 0 74 112h50l40 -25q-4 -32 -13 -75q24 -12 53 -12q30 0 47 10q-15 37 -56 104l76 58h50
q14 -130 14 -154q0 -11 -1 -16q22 -2 34 -2q30 0 71 8q-26 59 -77 144z" />
    <glyph glyph-name="seenmedialarabic" unicode="&#x633;" horiz-adv-x="571" arabic-form="medial" 
d="M372 292l90 83h50q21 -133 21 -217v-16q12 -2 38 -2q7 0 8.5 -1t1.5 -9v-130q-7 -9 -10 -10q-29 0 -66 8q-72 -8 -114 -8q-52 0 -101 33q-40 -33 -94 -33q-48 0 -91 38q-36 -38 -95 -38q-8 0 -9 1t-1 9v130q0 8 1 9t9 1q67 0 74 112h50l40 -25q-4 -32 -13 -75
q24 -12 53 -12q30 0 47 10q-15 37 -56 104l76 58h50q14 -130 14 -154q0 -11 -1 -16q22 -2 34 -2q30 0 71 8q-26 59 -77 144z" />
    <glyph glyph-name="sheenfinalarabic" unicode="&#x634;" horiz-adv-x="821" arabic-form="final" 
d="M389 299q14 -87 18 -149q22 -10 52 -10t52 10q-28 71 -66 132l76 58h50q24 -123 24 -182q0 -10 -1 -15q18 -3 34 -3q30 0 71 8q-26 59 -77 144l90 83h50q21 -133 21 -217v-16q12 -2 38 -2q7 0 8.5 -1t1.5 -9v-130q-7 -9 -10 -10q-29 0 -66 8q-72 -8 -114 -8q-51 0 -97 31
q-31 -31 -69 -31q-35 0 -74 23q-17 -81 -68.5 -132t-134.5 -51q-73 0 -120.5 46t-47.5 121q0 64 35 143h50q-8 -40 -8 -69q0 -50 26.5 -76t75.5 -26q62 0 107 36q-19 96 -67 211l90 83h50zM458 385l-73 78l63 70h22l27 -33l37 41h22l61 -72l-73 -76l-39 41zM499 528l-54 57
l47 51h16l44 -53z" />
    <glyph glyph-name="sheeninitialarabic" unicode="&#x634;" horiz-adv-x="548" arabic-form="initial" 
d="M220 359l-73 78l63 70h22l27 -33l37 41h22l61 -72l-73 -76l-39 41zM261 502l-54 57l47 51h16l44 -53zM372 292l90 83h50q21 -133 21 -217q0 -43 -10 -158q-81 -10 -132 -10q-52 0 -101 33q-40 -33 -94 -33q-48 0 -91 38q-36 -38 -95 -38q-8 0 -9 1t-1 9v130q0 8 1 9t9 1
q67 0 74 112h50l40 -25q-4 -32 -13 -75q24 -12 53 -12q30 0 47 10q-15 37 -56 104l76 58h50q14 -130 14 -154q0 -11 -1 -16q22 -2 34 -2q30 0 71 8q-26 59 -77 144z" />
    <glyph glyph-name="sheenmedialarabic" unicode="&#x634;" horiz-adv-x="571" arabic-form="medial" 
d="M372 292l90 83h50q21 -133 21 -217v-16q12 -2 38 -2q7 0 8.5 -1t1.5 -9v-130q-7 -9 -10 -10q-29 0 -66 8q-72 -8 -114 -8q-52 0 -101 33q-40 -33 -94 -33q-48 0 -91 38q-36 -38 -95 -38q-8 0 -9 1t-1 9v130q0 8 1 9t9 1q67 0 74 112h50l40 -25q-4 -32 -13 -75
q24 -12 53 -12q30 0 47 10q-15 37 -56 104l76 58h50q14 -130 14 -154q0 -11 -1 -16q22 -2 34 -2q30 0 71 8q-26 59 -77 144zM220 359l-73 78l63 70h22l27 -33l37 41h22l61 -72l-73 -76l-39 41zM261 502l-54 57l47 51h16l44 -53z" />
    <glyph glyph-name="sadfinalarabic" unicode="&#x635;" horiz-adv-x="825" arabic-form="final" 
d="M825 -10q-9 0 -25 17.5t-30 41.5q-12 -24 -19 -36q-85 -13 -187 -13q-84 0 -161 21q-15 -83 -67.5 -137t-137.5 -54q-73 0 -120.5 46t-47.5 121q0 64 35 143h50q-8 -40 -8 -69q0 -50 26.5 -76t75.5 -26q62 0 107 36q-19 96 -67 211l90 83h50q14 -80 18 -142q1 -1 4 -1
q53 92 103 151.5t111 82.5q81 -4 129 -63.5t48 -142.5q0 -22 -3 -43q9 -1 26 -1q7 0 8.5 -1t1.5 -9v-130q-7 -9 -10 -10zM601 275q-40 -27 -62 -53.5t-54 -79.5q25 -2 60 -2q68 0 150 12q0 43 -25.5 77t-68.5 46z" />
    <glyph glyph-name="sadinitialarabic" unicode="&#x635;" horiz-adv-x="580" arabic-form="initial" 
d="M0 0v130q0 8 1 9t9 1q70 0 77 105h30l60 -25q-9 -51 -12 -62q6 -2 9 -2q53 92 103 151.5t111 82.5q81 -4 129 -63.5t48 -142.5q0 -86 -51 -171q-84 -13 -187 -13q-117 0 -211 38q-38 -48 -106 -48q-8 0 -9 1t-1 9zM364 275q-40 -27 -62.5 -54t-52.5 -78q37 -3 59 -3
q68 0 150 12q0 43 -25.5 77t-68.5 46z" />
    <glyph glyph-name="sadmedialarabic" unicode="&#x635;" horiz-adv-x="586" arabic-form="medial" 
d="M586 -7q-19 0 -53 56q-12 -24 -19 -36q-84 -13 -187 -13q-117 0 -211 38q-38 -48 -106 -48q-8 0 -9 1t-1 9v130q0 8 1 9t9 1q70 0 77 105h30l60 -25q-9 -51 -12 -62q6 -2 9 -2q53 92 103 151.5t111 82.5q81 -4 129 -63.5t48 -142.5q0 -20 -3 -40q9 -1 24 -1q9 -7 10 -10
v-130q0 -7 -1 -8.5t-9 -1.5zM364 275q-40 -27 -62.5 -54t-52.5 -78q37 -3 59 -3q68 0 150 12q0 43 -25.5 77t-68.5 46z" />
    <glyph glyph-name="dadfinalarabic" unicode="&#x636;" horiz-adv-x="825" arabic-form="final" 
d="M825 -10q-9 0 -25 17.5t-30 41.5q-12 -24 -19 -36q-85 -13 -187 -13q-84 0 -161 21q-15 -83 -67.5 -137t-137.5 -54q-73 0 -120.5 46t-47.5 121q0 64 35 143h50q-8 -40 -8 -69q0 -50 26.5 -76t75.5 -26q62 0 107 36q-19 96 -67 211l90 83h50q14 -80 18 -142q1 -1 4 -1
q53 92 103 151.5t111 82.5q81 -4 129 -63.5t48 -142.5q0 -22 -3 -43q9 -1 26 -1q7 0 8.5 -1t1.5 -9v-130q-7 -9 -10 -10zM601 275q-40 -27 -62 -53.5t-54 -79.5q25 -2 60 -2q68 0 150 12q0 43 -25.5 77t-68.5 46zM542 408l-80 86l70 77h24l67 -79z" />
    <glyph glyph-name="dadinitialarabic" unicode="&#x636;" horiz-adv-x="580" arabic-form="initial" 
d="M0 0v130q0 8 1 9t9 1q70 0 77 105h30l60 -25q-9 -51 -12 -62q6 -2 9 -2q53 92 103 151.5t111 82.5q81 -4 129 -63.5t48 -142.5q0 -86 -51 -171q-84 -13 -187 -13q-117 0 -211 38q-38 -48 -106 -48q-8 0 -9 1t-1 9zM364 275q-40 -27 -62.5 -54t-52.5 -78q37 -3 59 -3
q68 0 150 12q0 43 -25.5 77t-68.5 46zM301 406l-80 86l70 77h24l67 -79z" />
    <glyph glyph-name="dadmedialarabic" unicode="&#x636;" horiz-adv-x="586" arabic-form="medial" 
d="M586 -7q-19 0 -53 56q-12 -24 -19 -36q-84 -13 -187 -13q-117 0 -211 38q-38 -48 -106 -48q-8 0 -9 1t-1 9v130q0 8 1 9t9 1q70 0 77 105h30l60 -25q-9 -51 -12 -62q6 -2 9 -2q53 92 103 151.5t111 82.5q81 -4 129 -63.5t48 -142.5q0 -20 -3 -40q9 -1 24 -1q9 -7 10 -10
v-130q0 -7 -1 -8.5t-9 -1.5zM364 275q-40 -27 -62.5 -54t-52.5 -78q37 -3 59 -3q68 0 150 12q0 43 -25.5 77t-68.5 46zM299 406l-80 86l70 77h24l67 -79z" />
    <glyph glyph-name="tahfinalarabic" unicode="&#x637;" horiz-adv-x="515" arabic-form="final" 
d="M15 48l43 116q15 -5 41 -11l24 41q-21 171 -50 364l62 62q52 -56 108 -109q-27 -40 -36 -54q0 -5 -6 -154q55 65 114 87q81 -4 129 -63.5t48 -142.5q0 -22 -3 -43q9 -1 26 -1q7 0 8.5 -1t1.5 -9v-130q-7 -9 -10 -10q-9 0 -25 17.5t-30 41.5q-12 -24 -19 -36
q-90 -13 -150 -13q-80 0 -137 9t-139 39zM291 275q-40 -27 -62 -53.5t-54 -80.5q19 -1 60 -1q68 0 150 12q0 43 -25.5 77t-68.5 46z" />
    <glyph glyph-name="tahinitialarabic" unicode="&#x637;" horiz-adv-x="456" arabic-form="initial" 
d="M10 -10q-8 0 -9 1t-1 9v130q0 8 1 9t9 1h31q34 58 40 67q-17 131 -49 351l62 62q52 -56 108 -109q-27 -40 -36 -54q0 -5 -6 -142q48 53 104 75q81 -4 129 -63.5t48 -142.5q0 -86 -51 -171q-210 -23 -380 -23zM240 275q-41 -27 -63.5 -54.5t-53.5 -80.5q99 2 211 12
q0 43 -25.5 77t-68.5 46z" />
    <glyph glyph-name="tahmedialarabic" unicode="&#x637;" horiz-adv-x="464" arabic-form="medial" 
d="M10 -10q-8 0 -9 1t-1 9v130q0 8 1 9t9 1h31q34 58 40 67q-17 131 -49 351l62 62q52 -56 108 -109q-27 -40 -36 -54q0 -5 -6 -142q48 53 104 75q81 -4 129 -63.5t48 -142.5q0 -22 -3 -43q9 -1 26 -1q8 0 9 -1t1 -9v-130q0 -8 -1 -9t-9 -1q-9 0 -25 17.5t-30 41.5
q-12 -24 -19 -36q-210 -23 -380 -23zM240 275q-41 -27 -63.5 -54.5t-53.5 -80.5q99 2 211 12q0 43 -25.5 77t-68.5 46z" />
    <glyph glyph-name="zahfinalarabic" unicode="&#x638;" horiz-adv-x="515" arabic-form="final" 
d="M353 431l-80 86l70 77h24l67 -79zM15 48l43 116q15 -5 41 -11l24 41q-21 171 -50 364l62 62q52 -56 108 -109q-27 -40 -36 -54q0 -5 -6 -154q55 65 114 87q81 -4 129 -63.5t48 -142.5q0 -22 -3 -43q9 -1 26 -1q7 0 8.5 -1t1.5 -9v-130q-7 -9 -10 -10q-9 0 -25 17.5
t-30 41.5q-12 -24 -19 -36q-90 -13 -150 -13q-80 0 -137 9t-139 39zM291 275q-40 -27 -62 -53.5t-54 -80.5q19 -1 60 -1q68 0 150 12q0 43 -25.5 77t-68.5 46z" />
    <glyph glyph-name="zahinitialarabic" unicode="&#x638;" horiz-adv-x="456" arabic-form="initial" 
d="M313 431l-80 86l70 77h24l67 -79zM10 -10q-8 0 -9 1t-1 9v130q0 8 1 9t9 1h31q34 58 40 67q-17 131 -49 351l62 62q52 -56 108 -109q-27 -40 -36 -54q0 -5 -6 -142q48 53 104 75q81 -4 129 -63.5t48 -142.5q0 -86 -51 -171q-210 -23 -380 -23zM240 275
q-41 -27 -63.5 -54.5t-53.5 -80.5q99 2 211 12q0 43 -25.5 77t-68.5 46z" />
    <glyph glyph-name="zahmedialarabic" unicode="&#x638;" horiz-adv-x="465" arabic-form="medial" 
d="M10 -10q-8 0 -9 1t-1 9v130q0 8 1 9t9 1h31q34 58 40 67q-17 131 -49 351l62 62q52 -56 108 -109q-27 -40 -36 -54q0 -5 -6 -142q48 53 104 75q81 -4 129 -63.5t48 -142.5q0 -22 -3 -43q10 -1 27 -1q7 0 8.5 -1t1.5 -9v-130q-7 -9 -10 -10q-9 0 -25 18t-30 42l-20 -37
q-210 -23 -380 -23zM240 275q-41 -27 -63.5 -54.5t-53.5 -80.5q99 2 211 12q0 43 -25.5 77t-68.5 46zM313 431l-80 86l70 77h24l67 -79z" />
    <glyph glyph-name="ainfinalarabic" unicode="&#x639;" horiz-adv-x="375" arabic-form="final" 
d="M375 -10q-114 0 -195 69q-42 -40 -42 -91q0 -100 141 -100q39 0 99 16v-50q-31 -34 -80.5 -59t-99.5 -25q-75 0 -126.5 48t-51.5 129q0 104 109 187q-40 56 -66 129q-4 -1 -10.5 -3.5t-8.5 -3.5l-20 46l30 78q86 44 152 44q71 0 113 -34.5t42 -84.5q0 -64 -74 -141
q58 -4 88 -4q7 0 8.5 -1t1.5 -9v-130q-7 -9 -10 -10zM203 284q-31 0 -64 -11q26 -83 60 -116q56 46 56 81q0 46 -52 46z" />
    <glyph glyph-name="aininitialarabic" unicode="&#x639;" horiz-adv-x="335" arabic-form="initial" 
d="M0 0v130q0 8 1 9t9 1h28q-14 43 -14 80q0 69 43.5 122t103.5 53q67 0 130 -94l-32 -39q-40 13 -77 13q-38 0 -81 -21q0 -58 47 -111q28 2 156 15l11 -49l-69 -94q-142 -25 -246 -25q-8 0 -9 1t-1 9z" />
    <glyph glyph-name="ainmedialarabic" unicode="&#x639;" horiz-adv-x="355" arabic-form="medial" 
d="M355 -10q-101 0 -178 55q-70 -55 -167 -55q-8 0 -9 1t-1 9v130q0 8 1 9t9 1q36 0 80 4q-26 42 -47 99q-4 -1 -10.5 -3.5t-8.5 -3.5l-20 46l30 78q86 44 152 44q71 0 113 -34.5t42 -84.5q0 -62 -66 -141q36 -4 80 -4q7 0 8.5 -1t1.5 -9v-130q-7 -9 -10 -10zM183 284
q-27 0 -65 -11q26 -86 64 -119q53 40 53 84q0 46 -52 46z" />
    <glyph glyph-name="ghainfinalarabic" unicode="&#x63a;" horiz-adv-x="375" arabic-form="final" 
d="M188 443l-80 86l70 77h24l67 -79zM375 -10q-114 0 -195 69q-42 -40 -42 -91q0 -100 141 -100q39 0 99 16v-50q-31 -34 -80.5 -59t-99.5 -25q-75 0 -126.5 48t-51.5 129q0 104 109 187q-40 56 -66 129q-4 -1 -10.5 -3.5t-8.5 -3.5l-20 46l30 78q86 44 152 44
q71 0 113 -34.5t42 -84.5q0 -64 -74 -141q58 -4 88 -4q7 0 8.5 -1t1.5 -9v-130q-7 -9 -10 -10zM203 284q-31 0 -64 -11q26 -83 60 -116q56 46 56 81q0 46 -52 46z" />
    <glyph glyph-name="ghaininitialarabic" unicode="&#x63a;" horiz-adv-x="335" arabic-form="initial" 
d="M0 0v130q0 8 1 9t9 1h28q-14 43 -14 80q0 69 43.5 122t103.5 53q67 0 130 -94l-32 -39q-40 13 -77 13q-38 0 -81 -21q0 -58 47 -111q28 2 156 15l11 -49l-69 -94q-142 -25 -246 -25q-8 0 -9 1t-1 9zM144 445l-80 86l70 77h24l67 -79z" />
    <glyph glyph-name="ghainmedialarabic" unicode="&#x63a;" horiz-adv-x="355" arabic-form="medial" 
d="M355 -10q-101 0 -178 55q-70 -55 -167 -55q-8 0 -9 1t-1 9v130q0 8 1 9t9 1q36 0 80 4q-26 42 -47 99q-4 -1 -10.5 -3.5t-8.5 -3.5l-20 46l30 78q86 44 152 44q71 0 113 -34.5t42 -84.5q0 -62 -66 -141q36 -4 80 -4q7 0 8.5 -1t1.5 -9v-130q-7 -9 -10 -10zM168 443
l-80 86l70 77h24l67 -79zM183 284q-27 0 -65 -11q26 -86 64 -119q53 40 53 84q0 46 -52 46z" />
    <glyph glyph-name="fehfinalarabic" unicode="&#x641;" horiz-adv-x="578" arabic-form="final" 
d="M242 -10q-212 0 -212 149q0 62 35 139h50q-10 -40 -10 -67q0 -37 28.5 -54t108.5 -17q18 0 29 1q-7 20 -7 44q0 62 48.5 132.5t102.5 70.5q50 0 92 -48t42 -107q0 -49 -24 -90q21 -3 53 -3q8 0 9 -1t1 -9v-130q0 -8 -1 -9t-9 -1q-111 0 -198 42q-74 -42 -138 -42z
M408 428l-80 86l70 77h24l67 -79zM348 196q36 -42 70 -52q35 17 35 58q0 24 -15.5 43t-40.5 26q-29 -25 -49 -75z" />
    <glyph glyph-name="fehinitialarabic" unicode="&#x641;" horiz-adv-x="331" arabic-form="initial" 
d="M220 150l-6 40q-41 -17 -83 -17q-49 0 -82.5 28t-33.5 80q0 65 44 137t96 72q75 0 118 -96.5t43 -221.5q0 -69 -11 -172q-156 -10 -295 -10q-8 0 -9 1t-1 9v130q0 8 1 9t9 1q121 0 210 10zM141 534l-80 86l70 77h24l67 -79zM100 292q46 -24 98 -22q-17 66 -56 103
q-24 -28 -42 -81z" />
    <glyph glyph-name="fehmedialarabic" unicode="&#x641;" horiz-adv-x="346" arabic-form="medial" 
d="M10 140q18 0 29 1q-7 20 -7 44q0 62 48.5 132.5t102.5 70.5q50 0 92 -48t42 -107q0 -49 -24 -90q21 -3 53 -3q8 0 9 -1t1 -9v-130q0 -8 -1 -9t-9 -1q-116 0 -201 44q-78 -44 -135 -44q-8 0 -9 1t-1 9v130q0 8 1 9t9 1zM164 428l-80 86l70 77h24l67 -79zM116 196
q36 -42 70 -52q35 17 35 58q0 24 -15.5 43t-40.5 26q-29 -25 -49 -75z" />
    <glyph glyph-name="qaffinalarabic" unicode="&#x642;" horiz-adv-x="493" arabic-form="final" 
d="M503 0q-7 -9 -10 -10q-28 0 -41 1q-22 -95 -81 -143t-136 -48q-94 0 -149.5 46.5t-55.5 134.5q0 73 36 150h48q-9 -35 -9 -70q0 -60 35 -90.5t97 -30.5q87 0 127 56q-106 10 -149 43.5t-43 95.5q0 59 51 141.5t104 82.5q54 0 92 -61t45 -157q12 -1 29 -1q7 0 8.5 -1
t1.5 -9v-130zM253 406l-73 78l63 70h22l27 -33l37 41h22l61 -72l-73 -76l-39 41zM256 143q49 -15 120 -17q-24 73 -67 116q-43 -45 -53 -99z" />
    <glyph glyph-name="qafinitialarabic" unicode="&#x642;" horiz-adv-x="331" arabic-form="initial" 
d="M220 150l-6 40q-41 -17 -83 -17q-49 0 -82.5 28t-33.5 80q0 65 44 137t96 72q75 0 118 -96.5t43 -221.5q0 -69 -11 -172q-156 -10 -295 -10q-8 0 -9 1t-1 9v130q0 8 1 9t9 1q121 0 210 10zM103 542l-73 78l63 70h22l27 -33l37 41h22l61 -72l-73 -76l-39 41zM100 292
q46 -24 98 -22q-17 66 -56 103q-24 -28 -42 -81z" />
    <glyph glyph-name="qafmedialarabic" unicode="&#x642;" horiz-adv-x="346" arabic-form="medial" 
d="M10 140q18 0 29 1q-7 20 -7 44q0 62 48.5 132.5t102.5 70.5q50 0 92 -48t42 -107q0 -49 -24 -90q21 -3 53 -3q8 0 9 -1t1 -9v-130q0 -8 -1 -9t-9 -1q-116 0 -201 44q-78 -44 -135 -44q-8 0 -9 1t-1 9v130q0 8 1 9t9 1zM126 429l-73 78l63 70h22l27 -33l37 41h22l61 -72
l-73 -76l-39 41zM116 196q36 -42 70 -52q35 17 35 58q0 24 -15.5 43t-40.5 26q-29 -25 -49 -75z" />
    <glyph glyph-name="kaffinalarabic" unicode="&#x643;" horiz-adv-x="521" arabic-form="final" 
d="M521 -10q-9 0 -26 18t-30 43l-5 -51q-129 -10 -210 -10q-113 0 -166.5 36.5t-53.5 118.5q0 60 35 133h50q-10 -40 -10 -67q0 -37 33.5 -54t125.5 -17q40 0 114 8q-11 122 -51 410l62 62q52 -56 108 -109q-27 -40 -36 -54q9 -157 9 -264v-48q28 -5 51 -5q7 0 8.5 -1
t1.5 -9v-130q-7 -9 -10 -10zM164 203l-4 50l20 11q-9 16 -9 41q0 27 20.5 46.5t48.5 19.5q27 0 57 -25l-14 -31q-16 5 -28 5q-18 0 -33 -7q4 -16 17 -28q44 12 79 15l-7 -72q-87 -9 -147 -25z" />
    <glyph glyph-name="kafinitialarabic" unicode="&#x643;" horiz-adv-x="376" arabic-form="initial" 
d="M297 480q-52 -12 -88.5 -33.5t-76.5 -60.5q104 -31 150 -103t46 -167q0 -49 -8 -116q-144 -10 -310 -10q-8 0 -9 1t-1 9v130q0 8 1 9t9 1q122 0 208 10q-24 61 -48.5 90t-78.5 52l-37 -9l-47 77l31 124q57 51 128.5 93.5t121.5 42.5q107 0 66 -164h-50z" />
    <glyph glyph-name="kafmedialarabic" unicode="&#x643;" horiz-adv-x="380" arabic-form="medial" 
d="M380 -10q-9 0 -25 18t-30 42l-5 -50q-144 -10 -310 -10q-8 0 -9 1t-1 9v130q0 8 1 9t9 1q122 0 208 10q-24 61 -48.5 90t-78.5 52l-37 -9l-47 77l31 124q57 51 128.5 93.5t121.5 42.5q107 0 66 -164h-50l-7 24q-52 -12 -88.5 -33.5t-76.5 -60.5q181 -54 195 -241
q28 -5 53 -5q8 0 9 -1t1 -9v-130q0 -8 -1 -9t-9 -1z" />
    <glyph glyph-name="lamfinalarabic" unicode="&#x644;" horiz-adv-x="444" arabic-form="final" 
d="M444 -10q-15 0 -41 38q-16 -91 -67.5 -144.5t-137.5 -53.5q-73 0 -120.5 46t-47.5 121q0 69 37 153h50q-10 -50 -10 -79q0 -50 26.5 -76t75.5 -26q60 0 105 36q-14 248 -48 553l62 62q52 -56 108 -109q-27 -40 -36 -54q7 -146 9 -315q26 -2 35 -2q8 0 9 -1t1 -9v-130
q0 -8 -1 -9t-9 -1z" />
    <glyph glyph-name="laminitialarabic" unicode="&#x644;" horiz-adv-x="202" arabic-form="initial" 
d="M10 140q20 0 58 10q-11 115 -51 408l62 62q52 -56 108 -109q-27 -40 -36 -54q9 -157 9 -264q0 -108 -10 -193q-85 -10 -140 -10q-8 0 -9 1t-1 9v130q0 8 1 9t9 1z" />
    <glyph glyph-name="lammedialarabic" unicode="&#x644;" horiz-adv-x="194" arabic-form="medial" 
d="M10 140q20 0 58 10q-11 115 -51 408l62 62q52 -56 108 -109q-27 -40 -36 -54q9 -157 9 -264v-51q24 -2 34 -2q8 0 9 -1t1 -9v-130q0 -8 -1 -9t-9 -1q-15 0 -41 38l-3 -28q-85 -10 -140 -10q-8 0 -9 1t-1 9v130q0 8 1 9t9 1z" />
    <glyph glyph-name="meemfinalarabic" unicode="&#x645;" horiz-adv-x="393" arabic-form="final" 
d="M393 -10q-8 0 -22 14.5t-27 35.5q-13 -30 -28 -50q-104 0 -195 17q5 -102 50 -211l-19 -46h-118q-14 134 -14 163q0 136 24 224q33 7 43 9q34 205 148 205q44 0 75.5 -30t44.5 -72t13 -88q0 -13 -1 -20q10 -1 26 -1q7 0 8.5 -1t1.5 -9v-130q-7 -9 -10 -10zM194 225
q-17 -33 -25 -77q5 0 43.5 -5.5t69.5 -6.5q-11 43 -31 64t-57 25z" />
    <glyph glyph-name="meeminitialarabic" unicode="&#x645;" horiz-adv-x="388" arabic-form="initial" 
d="M0 0v130q0 8 1 9t9 1q28 0 47.5 16t41.5 58q20 38 30 55.5t28.5 43t39.5 36t46 10.5q59 0 94.5 -54t35.5 -126q0 -50 -18.5 -101t-50.5 -88q-115 0 -200 49q-22 -30 -43 -39.5t-51 -9.5q-8 0 -9 1t-1 9zM206 235l-32 -70q43 -24 110 -27q-7 45 -23.5 66t-54.5 31z" />
    <glyph glyph-name="meemmedialarabic" unicode="&#x645;" horiz-adv-x="398" arabic-form="medial" 
d="M0 0v130q0 8 1 9t9 1q28 0 47.5 16t41.5 58q20 38 30 55.5t28.5 43t39.5 36t46 10.5q59 0 94.5 -54t35.5 -126q0 -19 -3 -38q10 -1 28 -1q8 0 9 -1t1 -9v-130q0 -8 -1 -9t-9 -1q-9 0 -25 18t-30 42q-13 -29 -39 -60q-115 0 -200 49q-22 -30 -43 -39.5t-51 -9.5q-8 0 -9 1
t-1 9zM206 235l-32 -70q43 -24 110 -27q-7 45 -23.5 66t-54.5 31z" />
    <glyph glyph-name="noonfinalarabic" unicode="&#x646;" horiz-adv-x="446" arabic-form="final" 
d="M389 299q15 -84 19 -156q21 -3 38 -3q8 0 9 -1t1 -9v-130q0 -8 -1 -9t-9 -1q-14 0 -42 39q-14 -86 -66.5 -142.5t-139.5 -56.5q-73 0 -120.5 46t-47.5 121q0 64 35 143h50q-8 -40 -8 -69q0 -50 26.5 -76t75.5 -26q62 0 107 36q-19 96 -67 211l90 83h50zM187 221l-80 86
l70 77h24l67 -79z" />
    <glyph glyph-name="nooninitialarabic" unicode="&#x646;" horiz-adv-x="197" arabic-form="initial" 
d="M84 405l-80 86l70 77h24l67 -79zM21 292l90 83h50q21 -133 21 -217q0 -43 -10 -158q-87 -10 -162 -10q-8 0 -9 1t-1 9v130q0 8 1 9t9 1q45 0 88 8q-24 56 -77 144z" />
    <glyph glyph-name="noonmedialarabic" unicode="&#x646;" horiz-adv-x="226" arabic-form="medial" 
d="M21 292l90 83h50q21 -133 21 -217v-14q30 -4 44 -4q8 0 9 -1t1 -9v-130q0 -8 -1 -9t-9 -1t-22.5 15t-27.5 37l-4 -42q-87 -10 -162 -10q-8 0 -9 1t-1 9v130q0 8 1 9t9 1q45 0 88 8q-24 56 -77 144zM86 404l-80 86l70 77h24l67 -79z" />
    <glyph glyph-name="hehfinalarabic" unicode="&#x647;" horiz-adv-x="355" arabic-form="final" 
d="M233 0l-6 49l-48 -49q-64 0 -106.5 28t-42.5 94q0 65 35 116t114 96l-5 33l83 59h50q6 -124 6 -245l-3 -31q11 -10 45 -10q7 0 8.5 -1t1.5 -9v-130q-7 -9 -10 -10q-56 0 -122 10zM119 155q48 -14 95 -15q-1 5 -18 100q-46 -24 -77 -85z" />
    <glyph glyph-name="hehinitialarabic" unicode="&#x647;" horiz-adv-x="457" arabic-form="initial" 
d="M442 87l-93 -97q-122 0 -211 49q-80 -49 -128 -49q-8 0 -9 1t-1 9v130q0 8 1 9t9 1q17 0 28 1q-8 22 -8 44q0 44 29 93.5t69 73.5q-20 20 -20 67q0 14 2 29t4 24l1 8h70q0 -10 2.5 -17.5t8 -14.5t9.5 -11t14.5 -9.5t15 -7.5t18.5 -7.5t18 -7.5q64 -26 98.5 -58t53.5 -94
t19 -166zM114 196q38 -33 74 -46q21 18 21 52q0 52 -47 65q-27 -24 -48 -71zM339 132q0 52 -12.5 85t-45.5 58q4 -26 4 -42q0 -58 -29 -97q31 -4 83 -4z" />
    <glyph glyph-name="hehmedialarabic" unicode="&#x647;" horiz-adv-x="354" arabic-form="medial" 
d="M354 140q8 0 9 -1t1 -9v-130q0 -8 -1 -9t-9 -1q-15 0 -58 8q20 -19 44 -65q-28 -41 -48.5 -63.5t-50.5 -39.5q-70 0 -123 46t-74 116q-22 -2 -34 -2q-8 0 -9 1t-1 9v130q0 8 1 9t9 1q17 0 29 1q16 103 72.5 190.5t141.5 143.5l46 -21q5 -43 24 -105.5t19 -87.5
q0 -62 -41 -122q16 1 53 1zM250 179q-11 97 -33 153q-61 -83 -74 -190q54 6 107 37zM244 -62q-22 43 -42 62h-52q29 -62 94 -62z" />
    <glyph glyph-name="wawfinalarabic" unicode="&#x648;" horiz-adv-x="352" arabic-form="final" 
d="M59 -121q71 45 101 68t50 52q-180 25 -180 136q0 59 51 141.5t104 82.5q54 0 92 -61.5t44 -156.5q13 -1 31 -1q8 0 9 -1t1 -9v-130q0 -8 -1 -9t-9 -1q-9 0 -25.5 0.5t-24.5 0.5q-17 -67 -49 -161h-178zM114 143q43 -15 120 -17q-24 73 -67 116q-43 -45 -53 -99z" />
    <glyph glyph-name="alefmaksurafinalarabic" unicode="&#x649;" horiz-adv-x="456" arabic-form="final" 
d="M456 -10q-7 0 -23 2q-26 -78 -82.5 -120t-129.5 -42q-88 0 -139.5 48.5t-51.5 132.5q0 62 36 139h50q-11 -40 -11 -68q0 -53 31 -82.5t87 -29.5q76 0 127 39v19q-51 39 -74 93l23 45q60 -17 85.5 -21.5t71.5 -4.5q8 0 9 -1t1 -9v-130q0 -8 -1 -9t-9 -1z" />
    <glyph glyph-name="yehfinalarabic" unicode="&#x64a;" horiz-adv-x="456" arabic-form="final" 
d="M456 -10q-7 0 -23 2q-26 -78 -82.5 -120t-129.5 -42q-88 0 -139.5 48.5t-51.5 132.5q0 62 36 139h50q-11 -40 -11 -68q0 -53 31 -82.5t87 -29.5q76 0 127 39v19q-51 39 -74 93l23 45q60 -17 85.5 -21.5t71.5 -4.5q8 0 9 -1t1 -9v-130q0 -8 -1 -9t-9 -1zM217 -333l-73 78
l63 70h22l27 -32l37 40h22l61 -72l-73 -76l-39 42z" />
    <glyph glyph-name="yehinitialarabic" unicode="&#x64a;" horiz-adv-x="236" arabic-form="initial" 
d="M128 148q-26 59 -77 144l90 83h50q21 -133 21 -217q0 -43 -10 -158q-134 -10 -192 -10q-8 0 -9 1t-1 9v130q0 8 1 9t9 1q57 0 118 8zM62 -201l-73 78l63 70h22l27 -32l37 40h22l61 -72l-73 -76l-39 42z" />
    <glyph glyph-name="yehmedialarabic" unicode="&#x64a;" horiz-adv-x="230" arabic-form="medial" 
d="M21 292l90 83h50q21 -133 21 -217v-14q30 -4 44 -4q8 0 9 -1t1 -9v-130q0 -8 -1 -9t-9 -1t-22.5 15t-27.5 37l-4 -42q-87 -10 -162 -10q-8 0 -9 1t-1 9v130q0 8 1 9t9 1q45 0 88 8q-24 56 -77 144zM70 -201l-73 78l63 70h22l27 -32l37 40h22l61 -72l-73 -76l-39 42z" />
    <glyph glyph-name=".notdef" horiz-adv-x="500" 
d="M63 0v715h375v-715h-375zM125 63h250v590h-250v-590z" />
    <glyph glyph-name=".null" horiz-adv-x="0" 
 />
    <glyph glyph-name="nonmarkingreturn" horiz-adv-x="231" 
 />
    <glyph glyph-name="space" unicode=" " horiz-adv-x="199" 
 />
    <glyph glyph-name="exclam" unicode="!" horiz-adv-x="300" 
d="M77 539q23 22 43.5 43.5t37.5 37.5h50q13 -257 13 -329q0 -12 -3 -109l-91 -17q-4 35 -7.5 62t-5.5 44.5t-5.5 53t-6 51t-6.5 45t-8.5 55t-10.5 63.5zM108 66q0 26 19.5 45.5t46.5 19.5q26 0 45.5 -19.5t19.5 -45.5q0 -28 -19 -47t-46 -19q-28 0 -47 19t-19 47z" />
    <glyph glyph-name="quotedbl" unicode="&#x22;" horiz-adv-x="293" 
d="M182 379q-1 23 -10 92.5t-9 79.5v2q0 8 1.5 12t13 8.5t34.5 4.5q18 0 29.5 -2t15.5 -7t4.5 -7.5t0.5 -9.5q0 -10 -8.5 -79.5t-9.5 -93.5h-62zM35 379q-1 23 -10 92.5t-9 79.5v2q0 8 1.5 12t13 8.5t34.5 4.5q18 0 29.5 -2t15.5 -7t4.5 -7.5t0.5 -9.5q0 -10 -8.5 -79.5
t-9.5 -93.5h-62z" />
    <glyph glyph-name="numbersign" unicode="#" horiz-adv-x="1219" 
 />
    <glyph glyph-name="dollar" unicode="$" horiz-adv-x="741" 
 />
    <glyph glyph-name="percent" unicode="%" horiz-adv-x="889" 
d="M284 -18h-78l400 726h78zM497 170q0 76 53.5 129.5t129.5 53.5t129.5 -53.5t53.5 -129.5t-53.5 -129.5t-129.5 -53.5t-129.5 53.5t-53.5 129.5zM597 170q0 -34 24.5 -58.5t58.5 -24.5q35 0 59 24.5t24 58.5q0 35 -24 59t-59 24q-34 0 -58.5 -24t-24.5 -59zM22 521
q0 76 53.5 129.5t129.5 53.5t129.5 -53.5t53.5 -129.5t-53.5 -129.5t-129.5 -53.5t-129.5 53.5t-53.5 129.5zM122 521q0 -34 24.5 -58.5t58.5 -24.5q35 0 59 24.5t24 58.5q0 35 -24 59t-59 24q-34 0 -58.5 -24t-24.5 -59z" />
    <glyph glyph-name="ampersand" unicode="&#x26;" horiz-adv-x="992" 
 />
    <glyph glyph-name="quotesingle" unicode="'" horiz-adv-x="210" 
d="M72 379q0 23 -9 92.5t-9 79.5v2q0 8 1 12t13 8.5t34 4.5q18 0 30 -2t16 -7t4 -7.5v-9.5q0 -10 -8 -79.5t-10 -93.5h-62z" />
    <glyph glyph-name="parenleft" unicode="(" horiz-adv-x="404" 
d="M281 -126q26 -9 26 -19q0 -14 -15 -14q-55 0 -119 49q-70 53 -109 143t-39 190q0 72 21 140q22 70 61 124q38 53 91 85q54 33 94 33q15 0 15 -14q0 -11 -19 -17q-2 -1 -7 -2q-92 -32 -124 -136q-21 -69 -21 -213q0 -143 19 -209q16 -57 47 -90q32 -35 79 -50z" />
    <glyph glyph-name="parenright" unicode=")" horiz-adv-x="404" 
d="M207 556q72 -55 111 -150q36 -87 36 -184q0 -155 -80 -263q-39 -53 -92 -86q-51 -32 -93 -32q-16 0 -16 13q0 11 26 20q93 34 124 135q22 73 22 213q0 137 -21 209q-31 108 -125 140q-8 2 -21 10q-5 4 -5 9q0 15 15 15q55 0 119 -49z" />
    <glyph glyph-name="plus" unicode="+" horiz-adv-x="404" 
d="M369 275v-63h-142v-143h-64v143h-143v63h143v144h64v-144h142z" />
    <glyph glyph-name="comma" unicode="," horiz-adv-x="193" 
d="M71 -129l-48 32q46 51 46 102q0 13 -11.5 20.5t-42.5 17.5q26 82 75 82q35 0 54 -22t19 -48q0 -46 -27 -96t-65 -88z" />
    <glyph glyph-name="hyphen" unicode="-" horiz-adv-x="385" 
d="M331 220q17 0 17 -7t-5 -25t-5 -24q-5 -18 -17 -52q-4 -5 -18 -6l-21 -1h-216q-32 0 -32 12q0 4 13 43l13 39q5 15 12 19q6 2 24 2h235z" />
    <glyph glyph-name="period" unicode="." horiz-adv-x="220" 
d="M30 73q0 29 21 50.5t52 21.5q29 0 50.5 -21.5t21.5 -50.5q0 -31 -21.5 -52t-50.5 -21q-31 0 -52 21t-21 52z" />
    <glyph glyph-name="slash" unicode="/" horiz-adv-x="250" 
d="M-12 -214l198 823h77l-198 -823h-77z" />
    <glyph glyph-name="zero" unicode="0" 
d="M273 -23q-115 0 -172 69q-72 88 -72 302q0 217 72 305q57 69 172 69t172 -69q72 -88 72 -305q0 -214 -72 -302q-57 -69 -172 -69zM273 105q66 0 84 47q20 54 20 196q0 145 -20 199q-18 47 -84 47t-84 -47q-20 -54 -20 -199q0 -142 20 -196q18 -47 84 -47z" />
    <glyph glyph-name="one" unicode="1" 
d="M378 709v-709h-140v490h-170v93q103 0 157.5 39t59.5 87h93z" />
    <glyph glyph-name="two" unicode="2" 
d="M511 126v-126h-481q6 76 21 117q24 67 88 121q144 97 193 153q40 45 40 103q0 115 -97 115q-45 0 -71 -29q-29 -31 -29 -90v-26h-134q-5 123 56 190.5t175 67.5q123 0 188 -69q54 -58 54 -145q0 -73 -33 -126q-26 -44 -90 -95q-50 -38 -101 -76q-66 -53 -78 -85h299z" />
    <glyph glyph-name="three" unicode="3" 
d="M29 208h135q6 -52 15 -71q13 -25 50 -38q28 -10 59 -10q27 0 57 37.5t30 80.5q0 46 -35.5 79t-90.5 33q-15 0 -31 -3v95q141 0 141 100q0 99 -94 99q-53 0 -74.5 -31t-21.5 -96h-129v49q0 81 66 135.5t165 54.5q114 0 173 -60q50 -50 50 -125q0 -96 -79 -157
q56 -35 76 -67q25 -41 25 -117q0 -80 -49 -139q-66 -80 -200 -80q-120 0 -187 78q-47 55 -51 153z" />
    <glyph glyph-name="four" unicode="4" 
d="M285 709h163v-438h74v-115h-74v-156h-140v156h-284v119zM308 566l-184 -295h184v295z" />
    <glyph glyph-name="five" unicode="5" 
d="M21 184h138q4 -94 105 -89q54 3 82 45q23 36 23 90q0 62 -24 94q-32 42 -88 42q-65 0 -88 -52h-127l64 395h378v-126h-292l-24 -146q61 41 123 41q38 0 75 -13q72 -25 110 -92q35 -59 35 -137q0 -85 -40 -149q-69 -110 -217 -110q-63 0 -104 18q-22 9 -55 36
q-80 65 -74 153z" />
    <glyph glyph-name="six" unicode="6" 
d="M281 -23q-89 0 -149 49q-56 45 -77 121q-24 86 -24 203q0 105 24 183q58 189 236 189q108 0 166 -61q43 -47 50 -115h-130q-23 65 -84 65q-42 0 -73 -22q-26 -19 -36 -46q-16 -42 -16 -93q0 -15 5 -35q65 60 152 53q102 -8 153 -84q41 -61 41 -144q0 -68 -24 -122
q-63 -141 -214 -141zM182 298q-15 -32 -15 -72q0 -56 26.5 -91t71.5 -41q49 -6 83 32q39 43 39 109q0 54 -21 84q-30 44 -91 41q-64 -3 -93 -62z" />
    <glyph glyph-name="seven" unicode="7" 
d="M29 709h499v-109q-117 -142 -177 -275q-69 -152 -78 -325h-142q27 198 86 327q46 102 163 256h-351v126z" />
    <glyph glyph-name="eight" unicode="8" 
d="M488 100q-31 -61 -94 -94q-58 -29 -130 -29q-70 0 -130 33t-89 91q-23 47 -23 104q0 122 109 182q-85 69 -85 141q0 35 25 86.5t76 79.5t112 28q145 0 202 -79q43 -59 43 -127q0 -42 -28.5 -79t-67.5 -49v-2q57 -16 88 -66q29 -45 29 -103q0 -68 -37 -117zM337 446
q46 30 46 84q0 37 -28 61t-78 24q-47 0 -77 -25.5t-30 -65.5t31 -74q23 -25 67 -27q47 -2 69 23zM346 127q28 30 28 91q0 39 -19 67q-29 43 -80 45q-50 2 -81 -33q-27 -30 -27 -84q0 -53 20 -79q31 -41 78 -41q50 0 81 34z" />
    <glyph glyph-name="nine" unicode="9" 
d="M37 166h137q-5 -27 16 -50q26 -29 80 -29q63 0 88 67q21 56 21 100q0 23 -6 38q-28 -37 -73 -53q-26 -9 -47 -9q-31 0 -54 4q-102 18 -147 118q-24 54 -24 110q0 85 31 141q29 53 80.5 86t114.5 33q155 0 221 -136q41 -85 41 -200q0 -188 -55 -290q-64 -119 -211 -119
q-110 0 -172 78q-49 61 -41 111zM266 349q45 0 79 36q31 32 31 74q0 81 -32.5 114t-81.5 31t-83 -43q-26 -31 -26 -84q0 -60 33 -94t80 -34z" />
    <glyph glyph-name="colon" unicode=":" horiz-adv-x="220" 
d="M30 303q0 29 21 50.5t52 21.5q29 0 50.5 -21.5t21.5 -50.5q0 -31 -21.5 -52t-50.5 -21q-31 0 -52 21t-21 52zM30 73q0 29 21 50.5t52 21.5q29 0 50.5 -21.5t21.5 -50.5q0 -31 -21.5 -52t-50.5 -21q-31 0 -52 21t-21 52z" />
    <glyph glyph-name="semicolon" unicode=";" horiz-adv-x="333" 
d="M113 521h150v-146h-150v146zM113 0v146h150v-142q0 -108 -60 -144q-31 -24 -90 -34v56q48 3 74 57q17 37 9 61h-83z" />
    <glyph glyph-name="less" unicode="&#x3c;" horiz-adv-x="500" 
d="M242 530q90 0 154 -64t64 -154q0 -58 -30 -109q-29 -50 -79.5 -79.5t-108.5 -29.5t-108.5 29.5t-80 80t-29.5 108.5t29.5 108.5t80 80t108.5 29.5z" />
    <glyph glyph-name="equal" unicode="=" horiz-adv-x="404" 
d="M356 330v-45h-315v45h315zM356 184v-44h-315v44h315z" />
    <glyph glyph-name="greater" unicode="&#x3e;" horiz-adv-x="500" 
d="M482 531v-469h-470v469h470z" />
    <glyph glyph-name="question" unicode="?" horiz-adv-x="611" 
d="M368 201h-122q-2 14 -2 27q0 97 118 188q53 41 48 105q-4 44 -33 68.5t-68 24.5q-46 0 -77 -33q-35 -36 -32 -99h-134q-2 13 -2 27q0 102 77 184q64 51 160 51q118 0 186.5 -64.5t68.5 -159.5q0 -59 -25 -107q-13 -24 -45 -52q-25 -20 -51 -40q-45 -28 -59 -59
q-10 -22 -8 -61zM239 0v146h150v-146h-150z" />
    <glyph glyph-name="at" unicode="@" horiz-adv-x="975" 
d="M642 509h90l-84 -302q-7 -50 22 -66q9 -5 22 -5q42 0 86 42q36 35 49 69q30 57 30 124q0 38 -11 71q-8 38 -49 88q-39 47 -85 77q-85 55 -212 55q-45 0 -84 -8q-53 -11 -114 -59q-56 -43 -99 -100q-80 -106 -80 -239q0 -55 25 -113q21 -48 51 -79q72 -75 190 -104
q45 -11 96 -11q99 0 204 39l29 -79q-87 -46 -238 -46q-45 0 -83 5q-173 21 -284 152q-38 45 -62.5 106.5t-24.5 114.5q-1 159 93 290q110 154 265 197q64 18 131 18q126 0 224 -58q167 -98 198 -245q9 -43 9 -85q0 -75 -29 -134q-52 -107 -129 -144q-47 -23 -91 -23
q-29 0 -60 9q-40 12 -68 59q-88 -71 -149 -71q-28 0 -64 16q-47 21 -69 56q-31 49 -31 103q0 17 3 34q23 123 105 191q78 65 149 65q18 0 35 -5q60 -17 79 -64zM439 135q38 0 73.5 29t59.5 89q23 56 21 103q-2 65 -67 88q-8 3 -18 3q-50 0 -97 -51q-53 -57 -59 -142
q-4 -50 21.5 -84.5t65.5 -34.5z" />
    <glyph glyph-name="A" unicode="A" horiz-adv-x="722" 
d="M453 729l250 -729h-153l-50 146h-270l-51 -146h-153l254 729h173zM367 554l-90 -283h187z" />
    <glyph glyph-name="B" unicode="B" horiz-adv-x="722" 
d="M82 0v729h301q159 0 225 -84q38 -49 38 -107q0 -93 -69 -150q87 -67 87 -184q0 -89 -76 -154q-58 -50 -177 -50h-329zM232 604v-166h170q101 0 101 83t-93 83h-178zM232 313v-188h176q50 0 73 14q40 22 40 88q0 86 -85 86h-204z" />
    <glyph glyph-name="C" unicode="C" horiz-adv-x="722" 
d="M542 249h143q-1 -55 -28.5 -111.5t-69.5 -89.5q-85 -67 -215 -71q-119 -4 -203 67q-81 67 -111 186q-14 56 -14 128q0 83 17 140q73 243 317 243q114 0 196 -57q108 -75 111 -202h-143q-5 49 -39 86q-50 54 -145 47q-49 -4 -87.5 -36t-57.5 -81t-23 -125q-4 -92 23 -153
q37 -83 104 -106q21 -7 49 -8q32 -1 63 8q67 19 93 66q11 19 20 69z" />
    <glyph glyph-name="D" unicode="D" horiz-adv-x="722" 
d="M77 0v729h339q151 0 233 -170q32 -66 32 -162q0 -165 -67 -269q-38 -58 -94.5 -93t-113.5 -35h-329zM227 604v-479h120q111 0 157 98q27 57 26 155q-1 107 -37 159q-27 39 -60 54q-27 13 -71 13h-135z" />
    <glyph glyph-name="E" unicode="E" horiz-adv-x="667" 
d="M79 729h528v-125h-378v-166h349v-125h-349v-188h395v-125h-545v729z" />
    <glyph glyph-name="F" unicode="F" horiz-adv-x="611" 
d="M74 729h512v-125h-362v-166h319v-125h-319v-313h-150v729z" />
    <glyph glyph-name="G" unicode="G" horiz-adv-x="778" 
d="M419 267v124h292v-394h-90l-18 91q-41 -51 -79 -75q-67 -41 -161 -36q-86 5 -143 37q-27 15 -69 56q-109 106 -109 287q0 117 51 211q56 103 157 147q60 26 139 26q158 0 239 -80q53 -52 72 -107q1 -5 11 -57h-137q-36 120 -178 120q-66 0 -128 -41q-81 -68 -81 -219
q0 -78 24 -127q58 -120 167 -131q42 -4 86 12q49 17 80 55q38 47 41 101h-166z" />
    <glyph glyph-name="H" unicode="H" horiz-adv-x="722" 
d="M68 0v729h150v-274h289v274h150v-729h-150v330h-289v-330h-150z" />
    <glyph glyph-name="I" unicode="I" horiz-adv-x="278" 
d="M213 729v-729h-150v729h150z" />
    <glyph glyph-name="J" unicode="J" 
d="M336 729h150v-555q0 -71 -51 -128q-56 -63 -162 -69q-92 -5 -150 26q-99 54 -99 183v83h150v-74q0 -98 84 -92q78 6 78 82v544z" />
    <glyph glyph-name="K" unicode="K" horiz-adv-x="722" 
d="M74 0v729h150v-320l286 320h178l-289 -316l318 -413h-181l-235 317l-77 -84v-233h-150z" />
    <glyph glyph-name="L" unicode="L" horiz-adv-x="611" 
d="M80 729h150v-604h349v-125h-499v729z" />
    <glyph glyph-name="M" unicode="M" horiz-adv-x="833" 
d="M496 0h-150l-130 590v-590h-150v729h219l136 -560l136 560h219v-729h-150v590z" />
    <glyph glyph-name="N" unicode="N" horiz-adv-x="722" 
d="M68 729h148l295 -501v501h150v-729h-148l-295 508v-508h-150v729z" />
    <glyph glyph-name="O" unicode="O" horiz-adv-x="778" 
d="M742 359q0 -83 -28.5 -160.5t-79.5 -130.5q-88 -91 -243 -91t-243 91q-51 53 -79.5 130.5t-28.5 160.5t28.5 160.5t79.5 130.5q88 91 243 91t243 -91q51 -53 79.5 -130.5t28.5 -160.5zM391 108q81 0 134 49q73 67 73 202t-73 202q-53 49 -134 49t-134 -49
q-73 -67 -73 -202t73 -202q53 -49 134 -49z" />
    <glyph glyph-name="P" unicode="P" horiz-adv-x="667" 
d="M76 0v729h324q164 0 214 -118q19 -45 19 -109q0 -68 -20 -112q-61 -130 -208 -130h-179v-260h-150zM226 604v-219h168q56 0 82 61q12 28 12 64q0 22 -6 38q-20 56 -95 56h-161z" />
    <glyph glyph-name="Q" unicode="Q" horiz-adv-x="778" 
d="M666 102l79 -75l-77 -81l-84 80q-81 -49 -190 -49q-155 0 -243 91q-51 53 -79.5 130.5t-28.5 160.5t28.5 160.5t79.5 130.5q88 91 243 91t243 -91q51 -53 79.5 -130.5t28.5 -160.5q0 -148 -79 -257zM478 126l-75 71l77 82l82 -78q39 66 39 158q0 135 -73 202
q-53 49 -134 49t-134 -49q-73 -67 -73 -202t73 -202q53 -49 134 -49q48 0 84 18z" />
    <glyph glyph-name="R" unicode="R" horiz-adv-x="722" 
d="M80 0v729h405q58 0 103 -28q49 -32 64.5 -87t15.5 -89q0 -30 -8 -59q-12 -43 -38 -70q-18 -20 -61 -45q45 -31 47 -32q29 -27 34 -70t7 -162q1 -43 28 -60v-27h-161q-18 32 -20 68v147q0 73 -90 73h-176v-288h-150zM230 604v-191h205q32 0 61 28q34 32 28 81q0 82 -91 82
h-203z" />
    <glyph glyph-name="S" unicode="S" horiz-adv-x="667" 
d="M609 507h-141q2 47 -36 79q-41 35 -114 36q-125 2 -132 -84q-3 -35 9 -50q9 -12 37 -23q14 -15 183 -45q124 -22 171.5 -71t47.5 -129q0 -58 -25.5 -111.5t-67.5 -80.5q-75 -48 -228 -51q-36 -1 -83 11q-60 14 -96 40q-93 67 -102 188h146q0 -43 31 -75q44 -46 137 -43
q83 2 116 34q27 25 27 64q0 34 -24 59q-28 29 -126 48q-135 25 -160 34q-133 46 -133 174q0 14 1 28q9 92 75 145q71 57 199 57q173 0 246 -93q44 -56 44 -124q0 -10 -2 -17z" />
    <glyph glyph-name="T" unicode="T" horiz-adv-x="611" 
d="M14 729h584v-125h-213v-604h-150v604h-221v125z" />
    <glyph glyph-name="U" unicode="U" horiz-adv-x="722" 
d="M504 729h150v-503q0 -154 -137 -219q-63 -30 -149 -30q-77 0 -141 24q-151 84 -151 225v503h150v-505q0 -117 138 -117q140 0 140 117v505z" />
    <glyph glyph-name="V" unicode="V" horiz-adv-x="667" 
d="M496 729h151l-247 -729h-129l-247 729h151l161 -550z" />
    <glyph glyph-name="W" unicode="W" horiz-adv-x="944" 
d="M13 729h159l112 -547l109 547h159l109 -553l112 553h159l-204 -729h-135l-121 556l-120 -556h-135z" />
    <glyph glyph-name="X" unicode="X" horiz-adv-x="667" 
d="M33 729h177l127 -235l134 235h176l-225 -357l231 -372h-177l-139 247l-139 -247h-176l231 367z" />
    <glyph glyph-name="Y" unicode="Y" horiz-adv-x="667" 
d="M482 729h168l-233 -459v-270h-150v270l-240 459h167l148 -314z" />
    <glyph glyph-name="Z" unicode="Z" horiz-adv-x="611" 
d="M30 729h548v-125l-373 -479h373v-125h-548v125l372 479h-372v125z" />
    <glyph glyph-name="bracketleft" unicode="[" horiz-adv-x="1395" 
d="M1284 514q22 9 76 27l-10 -25q-47 -16 -113 -45q-91 -40 -91 -57q0 -7 10.5 -17t18.5 -11l-9 -25q-34 11 -34 42q0 34 27 49q69 39 125 62zM1053 395q22 -22 35 -28v1q-16 -19 -22 -36q-27 21 -39 26q21 26 26 37zM955 476q25 0 29 -11q0 -5 -3 -12q-2 -4 -8 -17
q-7 -16 -13 -22q-7 -7 -22 -12q-8 -3 -21 -4l-8 -1q45 22 57 43q-18 5 -34 5q-11 0 -21 -3q-3 -1 -7 -5l-1 -2q-1 0 -3 -3q-1 6 -1 7q0 7 6.5 20t12.5 16q6 0 18.5 0.5t18.5 0.5zM1317 278q21 -15 39 -59q10 -22 10 -45q0 -43 -22 -85q-22 -41 -57 -68q-34 -25 -63 -25
q-31 0 -89 35q-22 12 -23 17q0 6 5 6q4 0 29.5 -13t38.5 -13q75 0 138 79q25 31 25 50q0 18 -29 52q-13 16 -15 19q8 27 13 50zM634 767q19 -41 19 -64v1q0 -30 -6 -39l-3 -8l-1 4l-1 14q-3 37 -20 64zM831 625l17 -238q-3 -69 -14 -76l-26 254zM689 655q0 -10 1 -19v-1
q0 -50 -22 -50q-4 0 -11.5 2t-8.5 2q-20 -20 -30 -20q-18 0 -18 18q0 44 12 47l2 -3q0 -4 -2 -12q-1 -3 -1 -13q0 -13 12 -13q21 0 21 27q0 13 9 15l-1 -2l3 -12q0 -13 19 -13l7 6l-1 16q-1 12 9 25zM1075 -23q17 8 49 27h1q0 -19 -25 -33q-37 -18 -107 -56q-15 -9 -19 -13
l-3 2l2 4q8 17 28 32q12 5 74 37zM728 534q42 -147 42 -169q0 -26 -11 -47q-14 -26 -37 -26q-45 8 -56 48l-3 -1q-7 -25 -27 -42q-21 -17 -46 -17q-56 0 -56 77l-28 -25q-9 -8 -44 -8q-51 0 -51 19q0 11 15 34.5t26 28.5l80 39v11l20 39l4 -129q1 -41 37 -41q18 0 39 12
q24 13 27 29l-17 133l20 41l30 -183q10 -22 34 -22q25 0 25 15q0 26 -26 108q-11 35 -12 40zM399 499q27 11 76 27l-9 -24q-84 -28 -163 -69q-41 -22 -41 -33q0 -7 10 -17t18 -12l-9 -24q-34 11 -34 42q0 33 27 48q68 39 125 62zM901 -55q25 -20 35 -25v1q-17 -23 -22 -34
q-13 13 -31 22q-12 -15 -17 -30q-17 17 -37 27q13 16 21 33q15 -13 32 -23q14 18 19 29zM1188 308q20 0 33 -15t13 -35q-1 -40 -36 -64q-60 -43 -155 -43q-2 -2 -13 -21q-9 -17 -11 -17q-3 0 -3 7q0 12 6 31q-6 0 -17 -0.5t-17 -0.5q-26 0 -43 22q-15 19 -28 19
q-24 0 -48 -23q-10 -11 -10 -21q0 -17 82 -31q27 -4 30 -6q16 -6 16 -23q0 -9 -9 -26l-7 -14q-2 -3 -11 -10l-9 -9q-76 -66 -268 -99q-87 -14 -166 -14q-23 0 -51 2q-209 14 -334 77q-102 50 -102 80q25 0 59 -21q47 -27 57 -31q123 -47 316 -63q23 -2 64 -2q105 0 228 24
q157 31 208 82q-6 23 -56 26q-13 1 -34 2q-38 4 -40 27q0 49 56 94q23 19 39 19q10 0 21 -14q10 -10 19 -21q5 -5 25 -5q26 0 44 1q30 53 92 95q31 21 60 21zM387 265q22 -22 35 -28v1q-14 -18 -23 -36q-28 21 -38 26q21 26 26 37zM597 96q16 0 63 16q43 15 63 25l-20 -38
q-79 -52 -146 -52q-92 0 -110 18q-7 7 -28 36q-5 -25 -40 -47q-37 -24 -50 -24q-90 -1 -113 152h-2q-28 -50 -79 -50q-11 0 -31 5q-24 7 -24 15q0 35 70 76q30 18 58 26l-2 17l20 33q7 -80 7 -84q6 -49 16 -82q18 -54 67 -54q44 0 64 15q11 8 37 30q12 38 19 38q3 0 3 -8
q0 -10 -4 -25q15 -28 36 -38q18 -9 52 -9q-21 16 -21 47q0 38 31 78q25 32 61 32q21 0 47 -13q30 -15 30 -35q-27 9 -53 9q-49 0 -78 -23q-12 -9 -12 -18q0 -15 27 -41.5t42 -26.5zM167 423q16 -7 16 -15v1q0 -5 -6 -14q-10 8 -18 10q-25 -35 -70 -52l-18 -1q49 28 77 56
q-30 8 -30 30q0 14 10 27q12 15 25 15q19 0 19 -32q0 -11 -5 -25zM1060 194q33 1 79 11q64 14 64 34q0 11 -17 18q-14 7 -26 7q-26 0 -57 -24q-26 -20 -43 -46zM452 378q0 -12 26 -12q30 0 55 14v41q-22 -8 -64 -28q-16 -8 -17 -15zM162 429q2 4 2 10q0 26 -17 26
q-19 0 -19 -14t34 -22zM123 183q0 -10 31 -10q32 0 59 24l-2 38q-88 -35 -88 -52z" />
    <glyph glyph-name="backslash" unicode="\" horiz-adv-x="1399" 
d="M1093 490q39 20 50 27q0 -19 -25 -33q-36 -18 -107 -56q-15 -10 -19 -13l-2 2l1 4q11 18 28 32q17 7 74 37zM1289 268q61 26 71 31q0 -22 -36 -38q-77 -34 -97 -41q-60 -21 -84 -38l-3 2l3 5q7 12 17 21q6 5 23 16q37 13 106 42zM655 542q63 32 91 42l-9 -25
q-64 -21 -176 -85q-46 -27 -46 -37q0 -11 26 -25l-9 -24q-32 11 -32 40q0 28 23 43q49 29 132 71zM694 456q7 -19 7 -38q0 -32 -21 -32q-13 0 -21 8q-18 -15 -30 -15q-21 0 -21 27q0 20 3 27l6 6q0 -37 16 -37q12 0 20 16l-2 23l9 14l4 -30q2 -16 15 -16q11 0 11 15l-3 22z
M1245 -11q16 0 63 16q43 15 63 25l-20 -39q-95 -50 -180 -50q-95 0 -118 74q-30 -65 -57 -65q-24 0 -67 44q-88 -62 -300 -62q-77 0 -114 8q-104 23 -120 127h-2q-28 -50 -79 -50q-11 0 -31 5q-24 7 -24 15q0 29 51 64q41 28 77 38l-2 17l20 33q5 -56 7 -75q7 -48 19 -73
q20 -41 74 -53q53 -12 154 -12q183 0 268 46q13 38 20 38q3 0 3 -9q0 -10 -4 -25q36 -35 59 -35q26 0 42 43q-3 33 -6 80l-5 64q-3 -2 -40 -28q-34 -24 -35 -24q-2 0 -5 2q0 13 79 84l-7 120l21 45q2 -48 8 -145q95 84 137 190q6 24 6 51q0 113 -87 132q-23 5 -41 5
q-86 0 -135 -80q5 -12 18 -34q6 -6 16 -11q-7 -16 -25 -44q0 -31 10 -93t10 -93q0 -47 -26 -83q-4 -5 -11 -5q-17 0 -51 22q-14 9 -21 13q-5 2 -6 2q-5 0 -15 -12q-7 -8 -14 -15q-5 -6 -17 -6q-17 0 -43 20q-16 -26 -63 -26q-53 0 -53 25q-46 -34 -121 -34q-47 0 -81 27
q-35 27 -43 73q-17 91 -17 123q-8 -39 -27 -117q-28 -97 -98 -116q-44 -12 -95 -12q-15 0 -15 3t28 12q38 12 40 13q61 26 103 82q-7 45 -70 108q-25 24 -35 26q-1 0 -4.5 -7.5t-7.5 -7.5q-6 0 -26 16q-19 16 -24 23q-9 11 -9 27q0 -1 4 37q2 15 9 15q12 0 45 -28
q27 -22 42 -39q81 -89 87 -155q37 60 37 195q0 6 -0.5 18.5t-0.5 18.5l21 35q6 -100 28 -212q10 -53 30 -72q43 -43 103 -43q48 0 99 30q16 38 28 38q4 0 4 -9q0 -12 -12 -43q7 -13 30 -13q32 0 56 12q22 65 33 65q4 0 4 -10q0 -16 -11 -43q28 -13 44 -13q7 0 8 3q2 5 2 32
l20 28q2 -4 2 -10q0 -4 -0.5 -12t-0.5 -12l43 -19q13 -6 24 -6q23 0 23 26q0 29 -25 181q-9 56 -14 70q12 23 26 51q53 104 150 104q15 0 39 -5q95 -20 95 -131q0 -45 -16 -115q-30 -130 -140 -205q11 -151 29 -178q18 -29 81 -29q-21 16 -21 43q0 33 32 76q24 32 61 32
q21 0 47 -13q30 -16 30 -35q-27 9 -53 9q-49 0 -78 -23q-12 -9 -12 -18q0 -15 27 -41.5t42 -26.5zM852 102q0 16 11 16v-15l-1 -9q0 -19 -26 -19q-10 0 -14 4q-15 -16 -30 -16q-7 0 -16.5 8.5t-12.5 8.5q-10 0 -22 -8q-4 -3 -14 -9q-29 -18 -71 -18q-44 0 -44 8q0 7 32 7
q53 0 81 18q30 19 40 19q8 0 19.5 -8t12.5 -8q15 0 18 17q2 13 11 13q3 0 3 -15q0 -6 11 -6q12 0 12 12zM948 -93l49 -37l-26 -31l-48 35l-28 -36l-50 36l29 35l47 -35zM105 346q25 0 77 -62q23 -27 29 -29l-19 -43q-43 20 -80 20q-22 0 -50 -11.5t-27 -26.5q0 -18 15 -69
q19 -66 21 -74q13 -58 13 -89q0 -8 -5 -30t-8 -22q-2 3 -4 20q-1 14 -7 45l-13 68q-3 15 -14 61q-13 52 -13 67q0 50 31 80q21 20 54 20q10 0 35 -5q9 -2 11 -2q-28 42 -54 42q-16 0 -25 -14q-5 -6 -8 -6q0 20 10 38q12 22 31 22zM267 -31q12 -6 19 -23q11 -13 11 -26
q0 -22 -17 -22q-14 2 -40 15q-10 -18 -21 -23q-8 -4 -26 -5q-19 -2 -25 -4t-7 -2q-4 0 -4 3t26 10q29 8 36 13l16 12q-1 1 -10 8q-6 5 -6 10q6 12 21 22q15 12 27 12zM302 67q0 -10 31 -10q32 0 59 24l-2 38q-88 -35 -88 -52zM241 -57q0 -6 16 -14q14 -7 22 -7q3 0 3 3v1
q-5 23 -33 23q-8 0 -8 -6z" />
    <glyph glyph-name="bracketright" unicode="]" horiz-adv-x="1003" 
d="M740 498q128 73 211 102l-9 -25q-66 -22 -169 -79q-43 -24 -43 -33q0 -7 9.5 -16t16.5 -9l-9 -24q-32 11 -32 40q0 30 25 44zM745 627q7 -20 7 -38q0 -32 -21 -32q-11 0 -21 8q-18 -15 -30 -15q-21 0 -21 27q0 5 1.5 14t1.5 13l6 6q0 -37 17 -37q11 0 19 16l-2 23l9 14
l4 -30q0 -16 14 -16q12 0 12 15l-3 22zM425 549q0 -17 3.5 -50t3.5 -50q0 -8 -0.5 -24.5t-0.5 -24.5q0 -11 -8 -54q0 -5 -2 -5q-7 0 -7 8t-1 24.5t-1 24.5q0 19 -3.5 55.5t-3.5 55.5q0 12 -2.5 35.5t-2.5 35.5q0 5 2 15.5t2 15.5q11 24 15 24t4 -22q0 -11 1 -32t1 -32z
M289 639q7 -19 7 -38q0 -32 -21 -32q-11 0 -21 8q-17 -15 -30 -15q-21 0 -21 27q0 5 1.5 14t1.5 13l6 6q0 -37 17 -37q11 0 19 16l-2 23l9 14l4 -30q0 -16 14 -16q12 0 12 15l-3 22zM933 22q18 0 36 -49q7 -19 7 -32q0 -7 -2 -21t-2 -21q-6 -26 -22 -61q-17 -38 -33 -53
q-22 -21 -45 -21q-43 0 -103 38q-1 1 -1 2h-1q0 3 12 3q14 -8 42 -8q17 0 38 3q37 5 79 56q15 18 15 55l-11 -9q-14 -11 -24 -11q-38 0 -38 44q0 11 7 34q3 11 19 30q18 21 27 21zM954 423q16 -20 16 -45q0 -21 -14 -35q-30 -31 -107 -43q-32 -5 -52 -5h-22l-8 -7
q-9 -7 -9 -18q0 -15 -8 -15l-4 20q-1 9 -1 13q0 10 -11 15q-7 3 -11 14q-4 10 -5 10q-11 0 -28 -12q-19 -14 -27 -16q12 -83 18 -132q0 -15 8 -38q9 -25 20 -31t22 -6q12 0 16 7q0 3 -7 20t-7 23q0 41 55 87q16 14 40 14q39 0 70 -38q3 -3 9 -10q1 -2 1 -5t-3 -11l-7 5
q-6 5 -11 5q-31 11 -59 11q-19 0 -32 -4q-27 -8 -27 -28q0 -22 25 -41q21 -16 59 -16q14 0 31 2q7 1 26 6q17 5 27 5q2 0 7.5 2.5t7.5 2.5q3 0 3 -3q0 -4 -2 -8q0 -26 -10 -26q-22 -22 -55 -22q-11 0 -50 -16t-50 -16q-6 -2 -14 -2q-60 0 -79 25q-2 3 -16 33q-12 26 -15 26
q0 -23 -13 -44q-15 -24 -36 -24q-20 0 -40 23q-6 7 -8 7q-3 0 -12 -5q-22 -11 -54 -21q-108 -33 -194 -33q-6 0 -19 1t-19 1q12 -58 42 -92q22 -24 76 -37q43 -11 87 -11q74 0 162 27q36 11 42 18q0 -32 20 -32q26 0 49 21q3 2 9 17q5 12 10 12q3 0 4 -10q1 -12 2 -15
q12 -19 30 -19q11 0 11 13q0 5 -5 11.5t-5 9.5q0 5 14 35q16 -10 16 -41q0 -10 -3 -25q-10 -54 -45 -54q-10 0 -22 17t-11 17q-1 0 -19 -16q-20 -17 -22 -19q-13 -9 -25 -9q-18 0 -25 17q-3 7 -5 23q-101 -46 -209 -46q-50 0 -94 15q-55 17 -78 51q-14 20 -19 73
q-2 23 -5 23q-8 0 -25 -22t-17 -31q0 -5 11 -18.5t11 -27.5t-10 -34q-12 -22 -24 -22q-13 0 -37 13.5t-27 13.5q-13 0 -24 -19q-7 -10 -11 -14q-6 -7 -14 -9q-11 0 -32.5 -4t-31.5 -4q-8 0 -8 3q0 6 26 16q30 13 33 15q12 5 34 19q5 4 5 12.5t1 25.5t1 25q0 17 38 22
q21 2 29 7q40 22 63 62q-56 12 -80 34q-27 25 -37 75q-4 -4 -22 -27t-42 -23q-19 0 -42 15q-10 7 -10 14q0 3 7 17q11 27 46 48q19 7 54 23l4 25q6 7 16 14v-23q0 -52 5 -66q4 -14 14 -28q17 -24 84 -41q-5 42 -12 82q-9 50 -9 75q0 15 25 49q4 -28 8 -83l5 -67l6 -60
q7 0 21 -2t21 -2q187 0 253 40q2 1 12 11q9 8 11 8q4 0 9 -9q15 -26 33 -26q13 0 23 12q8 11 8 25v29l-1 15q-4 0 -14 113q-3 0 -10 -0.5t-10 -0.5q-50 0 -85 53q-15 22 -15 43q-10 -37 -22 -57q0 -2 -1 -6.5t-1 -6.5q0 -4 3 -4q22 0 63 -20q20 -10 20 -32q0 -14 -11 -29
q-28 -39 -82 -61q-52 -22 -123 -20q-28 1 -49 16q-19 14 -29 47q-5 16 -5 31q0 26 15 67q-14 16 -22 31q0 7 -10 7q-4 0 -4 -6q-6 -18 -27 -31t-40 -13q-16 0 -27 15q-10 14 -10 31q0 5 -3 5t-10 -10q-12 -17 -48 -17t-36 21q0 28 41 62q20 16 46 24q4 25 4 30q14 23 18 23
q3 0 3 -10q-1 -26 -1 -34q0 -58 21 -76q3 -3 9 -3q14 0 31 9q19 11 19 23q0 19 -6 49q-7 37 -8 48q0 10 8 21q5 7 6 10q4 8 7 8q7 0 7 -30q0 -4 2 -12t2 -12q4 -34 17 -82q4 -7 5 -9q4 -9 18 -17q14 -7 24 -7q13 0 13 14q-1 37 -10 62.5t-9 41.5q0 10 4 24q5 19 13 19
q3 0 3 -6q1 -13 10 -50q8 -33 8 -50q0 -7 1 -20t1 -19q0 -77 -44 -77q-7 0 -17 5q0 -6 -1 -17.5t-1 -17.5q0 -22 26 -44q23 -20 70 -20q26 0 65 8q47 10 75 28q8 5 8 9q0 9 -29 18q-16 2 -48 9q-10 3 -10 10q0 6 6.5 15.5t6.5 14.5l12 27q11 25 11 45q0 31 -6 94
q-5 52 -6 91q-1 27 -1 54q17 41 19 41q3 -5 4 -13q3 -55 11 -163q5 -45 14 -83q6 -24 37 -48q28 -22 54 -28q2 0 6 -1t6 -1v33q0 47 4 57q8 20 11 20t3 -19q0 -15 3 -45t3 -45q11 3 34 21q21 16 35 16q1 -2 4 -14q4 -20 28 -20q11 0 19 9q35 42 57 57q50 34 84 34
q22 0 35 -16zM562 12l40 -27l-26 -44l-40 28l-25 -33l-43 31l27 40l40 -28zM593 -201q0 16 11 16q0 -11 -1 -24q-1 -19 -26 -19q-10 0 -14 4q-15 -16 -30 -16q-7 0 -16.5 8.5t-12.5 8.5q-9 0 -24 -9q-4 -3 -12 -8q-29 -18 -71 -18q-44 0 -44 8q0 7 32 7q53 0 81 18
q30 19 40 19q8 0 19.5 -8t12.5 -8q18 0 18 17q0 13 10 13q4 0 4 -15q0 -6 11 -6q12 0 12 12zM866 342q42 0 64 15q0 7 -11 20t-18 13q-56 0 -99 -42q-6 -6 -6 -8q0 -5 15 -5q9 0 27.5 3.5t27.5 3.5zM924 -62q15 0 15 16q0 15 -18 21q-18 0 -18 -14q0 -7 7 -15t14 -8z
M131 362q19 0 19 14q0 33 -9 33q-8 0 -26.5 -12.5t-18.5 -19.5q0 -15 35 -15zM96 136q6 0 11 15q3 13 3 21q0 5 -3 5q-2 0 -12 -2q-7 0 -17.5 -5.5t-12.5 -5.5q-8 0 -8 -11q0 -4 3 -9q7 -8 36 -8zM156 -104q20 -10 35 -10q11 0 11 9q0 16 -23 16q-40 13 -36 13q-6 0 -6 -7
q0 -9 19 -21z" />
    <glyph glyph-name="asciicircum" unicode="^" horiz-adv-x="2003" 
d="M1847 337q20 8 77 29l-10 -26q-204 -77 -204 -106q0 -8 10 -18q10 -11 18 -13l-9 -26q-34 12 -34 45q0 34 27 50q73 44 125 65zM1620 346q22 12 49 28q0 -21 -24 -35q-41 -24 -69 -37q-19 -9 -39 -21q-15 -10 -19 -14l-2 2l2 4q8 17 28 34q24 11 74 39zM1925 132
q19 0 42 -15q25 -16 26 -34h-1q0 -16 -16 -41t-30 -32q-50 -24 -119 -24q-22 0 -46 3q-25 -49 -37 -49q-4 0 -4 6q0 17 22 50q-21 8 -49 26q-37 -34 -65 -34q-33 7 -51 79q-7 0 -7 -24q-10 -16 -38 -28q-26 -12 -46 -12q-6 0 -12 2q-14 0 -18 14q0 26 7 49q2 -6 8 -16
q2 -1 5 -2q4 -2 14 -2q19 0 44 9q29 9 39 21q0 19 -8 57.5t-8 57.5q0 14 12 33q5 -11 13 -62q10 -64 11 -70q6 -30 18 -43q18 -21 37 -21t44 24q11 10 14 10q30 -23 64 -30q20 24 64 58q51 40 71 40zM1424 295l38 -24l-20 -32l-35 23l-16 -30l-41 21l19 34l35 -20zM1119 498
q19 -41 19 -67q0 -30 -6 -40l-3 -9l-1 5l-1 14q-3 41 -20 68zM1299 345l16 -238q-3 -69 -13 -76l-25 254zM1173 365q0 -10 1 -19h1q0 -51 -22 -51q-4 0 -10.5 2t-8.5 2q-13 -20 -29 -20q-17 0 -17 18q0 44 12 47l1 -3q0 -2 -0.5 -6t-0.5 -6q-1 -3 -1 -12q0 -14 11 -14
q20 0 20 27q0 12 9 16l-1 -3l3 -12q0 -13 18 -13l7 7l-2 15q0 12 9 25zM1025 317q16 -8 16 -16h-1q0 -4 -5 -14q-8 7 -18 11q-24 -36 -70 -55l-18 -2q48 29 77 60q-33 9 -33 29q0 15 11 30q13 16 27 16q19 0 19 -33q0 -12 -5 -26zM1209 256q41 -145 41 -168q0 -25 -10 -47
q-13 -27 -35 -27q-43 9 -54 48h-2q-15 -54 -56 -54q-48 0 -48 82l-27 -26q-8 -8 -41 -8q-49 0 -49 19q0 12 14 34.5t25 28.5l76 39v11l18 39l5 -128q2 -45 33 -45q14 0 29 10.5t17 24.5l-16 122l18 41l29 -173q10 -22 33 -22q24 0 24 15q0 25 -25 107q-11 35 -12 41z
M871 358q0 -45 9 -135.5t9 -135.5h1q0 -13 -4 -37q-5 -30 -12 -30q-4 0 -6 38q0 13 -1 28q-4 56 -12 134l-9 81q0 13 15 40q8 14 10 17zM1397 181q21 0 41 -47q17 -41 17 -68q0 -57 -16 -76q-51 -61 -184 -94q-106 -27 -210 -27q-25 0 -53 2q-197 14 -323 77
q-101 51 -104 79q0 2 2 2q25 0 59 -21q47 -28 57 -32q121 -48 305 -64q25 -2 60 -2q175 0 312 58q61 26 78 53q2 3 2 13q0 31 -9 40q-12 -36 -39 -36q-36 0 -36 28q0 40 4 54q16 60 37 61zM658 352q22 12 49 28v1q0 -21 -24 -35q-46 -27 -69 -38q-42 -20 -58 -35l-2 2l1 5
q11 20 29 33q20 9 74 39zM461 344l41 -26l-18 -40l-41 23zM150 370q25 0 29 -12q0 -4 -3 -13q-3 -6 -8 -18q-11 -27 -35 -35q-6 -3 -29 -3q44 22 58 42q-17 5 -36 5q-14 0 -20 -2q-3 0 -7 -6l-1 -2q-2 -2 -3 -2q-1 5 -1 7q0 7 6.5 20.5t12.5 17.5q6 0 18.5 0.5t18.5 0.5z
M289 0l39 -24l-22 -32l-35 22l-16 -28l-39 21l18 34l36 -20zM776 372q7 9 37 37q40 36 68 36q35 0 35 -35l1 1q0 -13 -15 -45q-16 -33 -26 -33q0 2 10 22.5t10 29.5q0 31 -25 31q-31 0 -66 -31q-14 -13 -25 -22q8 -20 10 -23q6 -11 18 -15q-6 -15 -23 -43q0 -28 10 -85
q10 -58 10 -86q0 -43 -22 -76q-12 -11 -18 -11q-14 0 -38 13q-25 13 -25 23q-10 10 -10 11q-8 0 -39 -16q-33 -17 -45 -17q-22 0 -65 8.5t-65 8.5q-17 0 -62.5 -11t-68.5 -11q-59 0 -77 54q-8 22 -10 61q-37 -41 -48 -41q10 -18 10 -36q0 -25 -17 -40q-7 -6 -16 -6
q-21 0 -56 26q-13 -29 -38 -40q-22 -2 -60 -11l-10 -2q-3 0 -3 5q0 4 31 15q33 12 43 19l31 22q-9 15 -8 38q0 16 15 34q15 19 31 19q5 0 8 -3q7 -5 17 -5q39 0 67 28q0 11 -3 30q0 7 14 39l3 -55q3 -66 24 -92q13 -16 36 -16q60 0 60 67q0 64 -18 163q-9 44 -16 67
q14 30 21 37q6 0 10 -11q4 -16 6 -18q6 -9 18 -13l-10 -20q-8 -14 -8 -18q16 -84 16 -152q0 -11 -3 -30l-4 -30l22 26q29 34 58 48q18 9 37 9q53 0 53 -46q0 -39 -25 -67q0 -4 30 -9q26 -5 34 -5q33 0 55 24q0 9 -16 19q-8 5 -17 5q-7 0 -13 -4l5 19q4 16 8 26q7 14 42 14
q27 0 44 -14q20 -15 20 -41q0 -11 -23 -32q0 -8 21 -16q17 -6 28 -6l9 1q10 8 10 30q0 26 -14 119q-14 95 -22 116zM1376 98q0 -16 17 -16t30 13q-7 41 -27 41q-7 0 -14 -16q-5 -13 -6 -22zM1018 321q2 5 2 11q0 28 -17 28q-18 0 -18 -16q0 -14 33 -23zM969 108
q0 -12 25 -12q27 0 51 14l-1 41q-21 -8 -61 -28q-14 -8 -14 -15zM405 83q29 0 75 15t69 33v-1q0 32 -32 32q-56 0 -117 -77zM137 108q0 -13 23 -29q21 -16 35 -16q6 0 6 4v1q-3 17 -19.5 33t-33.5 16q-11 0 -11 -9zM1814 32q151 0 152 35q0 7 -19 17q-17 9 -25 9
q-20 0 -57 -23q-30 -19 -51 -38z" />
    <glyph glyph-name="underscore" unicode="_" horiz-adv-x="1000" 
d="M50 -51v36h910v-36h-910z" />
    <glyph glyph-name="grave" unicode="`" horiz-adv-x="333" 
d="M17 745h125l71 -150h-69z" />
    <glyph glyph-name="a" unicode="a" 
d="M518 0h-148q-17 22 -15 54q-42 -40 -75 -56q-42 -21 -99 -21q-166 0 -160 167q6 145 157 171q77 3 141 25q37 13 35 61q-2 49 -92 49q-87 0 -92 -88h-132q2 189 224 189q79 0 128 -20q97 -40 97 -152v-296q0 -36 31 -64v-19zM354 224v31q-25 -15 -66 -21l-64 -8
q-28 -5 -46 -24t-18 -45q0 -24 13 -41q17 -25 57 -25q12 0 26 2q98 16 98 131z" />
    <glyph glyph-name="b" unicode="b" horiz-adv-x="611" 
d="M59 0v729h140v-261h2q39 89 153 83q136 -7 186 -123q36 -82 36 -157q0 -80 -42 -169q-32 -68 -77.5 -98t-118.5 -27q-87 4 -137 77h-2v-54h-140zM317 429q-63 0 -94 -61q-24 -47 -24 -106t24 -106q31 -61 94 -61q62 0 93 61q24 47 24 106t-24 106q-31 61 -93 61z" />
    <glyph glyph-name="c" unicode="c" 
d="M522 340h-134q-14 57 -43 76q-17 11 -60 13q-72 4 -97 -80q-12 -39 -12 -93q0 -36 8 -65q15 -58 43 -80q21 -17 60 -18q77 -3 101 96h134q1 -48 -35 -103q-25 -38 -51 -60q-32 -26 -62 -36q-33 -11 -97 -13q-113 -4 -179 74q-50 58 -60 137q-5 37 -5 74q0 82 24 136
q43 97 104 129q36 19 123 24t143 -30q42 -26 70 -88q25 -54 25 -93z" />
    <glyph glyph-name="d" unicode="d" horiz-adv-x="611" 
d="M541 729v-732h-140v57h-2q-50 -73 -137 -77q-73 -3 -118.5 27t-77.5 98q-37 80 -41 151q-5 84 35 175q51 116 186 123q114 6 153 -83h2v261h140zM284 430q-63 0 -94 -61q-24 -47 -24 -106t24 -106q31 -61 94 -61q62 0 93 61q24 47 24 106t-24 106q-31 61 -93 61z" />
    <glyph glyph-name="e" unicode="e" 
d="M521 227h-360q-6 -56 17 -87q36 -50 95 -50q37 0 67.5 19t36.5 44h138q-17 -75 -97 -127q-74 -49 -150 -49q-78 0 -141 41q-74 48 -97 129q-7 24 -10 66q-5 59 5 116q37 222 244 222q139 0 206 -107q47 -75 47 -177q0 -16 -1 -40zM161 321h215q0 108 -98 113
q-59 3 -91 -36q-27 -32 -26 -77z" />
    <glyph glyph-name="f" unicode="f" horiz-adv-x="333" 
d="M14 438v93h76v63q0 135 132 135h87v-104h-49q-30 0 -30 -37v-57h83v-93h-83v-438h-140v438h-76z" />
    <glyph glyph-name="g" unicode="g" horiz-adv-x="611" 
d="M410 542h131v-556q0 -50 -23 -94t-62 -69q-65 -42 -186 -42q-107 0 -169 45q-58 43 -58 111h147q0 -25 26 -43t72 -18q48 0 85 30t37 74v76q-39 -43 -61 -57q-35 -22 -85 -22q-56 0 -89.5 13t-66.5 47q-74 76 -74 216q0 150 80 233q68 70 152 65q56 -3 90 -30
q9 -7 54 -61v82zM286 424q-66 0 -100 -61q-26 -46 -26 -106t26 -106q34 -61 100 -61t100 61q26 46 26 106t-26 106q-34 61 -100 61z" />
    <glyph glyph-name="h" unicode="h" horiz-adv-x="611" 
d="M64 0v729h140v-259h2q21 36 57 58.5t76 22.5q208 0 208 -188v-363h-140v322q0 48 -15 71q-23 34 -86 34q-102 0 -102 -91v-336h-140z" />
    <glyph glyph-name="i" unicode="i" horiz-adv-x="278" 
d="M67 0v542h140v-542h-140zM67 604v125h140v-125h-140z" />
    <glyph glyph-name="j" unicode="j" horiz-adv-x="278" 
d="M70 604v125h140v-125h-140zM70 -66v608h140v-643q0 -39 -23 -71t-59 -39q-44 -8 -124 -8v115q36 0 42 2q24 6 24 36z" />
    <glyph glyph-name="k" unicode="k" 
d="M59 729h140v-398h2l175 211h160l-183 -207l195 -335h-164l-127 232l-58 -63v-169h-140v729z" />
    <glyph glyph-name="l" unicode="l" horiz-adv-x="278" 
d="M67 729h140v-729h-140v729z" />
    <glyph glyph-name="m" unicode="m" horiz-adv-x="889" 
d="M203 0h-140v542h140v-81h2q32 47 60 67q34 25 79 25q13 0 27 -2q47 -6 75 -26q17 -12 53 -53q28 39 54 57q38 25 95 25q19 0 41 -3q138 -18 138 -175v-376h-140v373q0 52 -70 57q-50 3 -79 -33q-23 -29 -23 -65v-332h-140v373q-12 56 -77 57q-39 1 -66 -23
q-29 -27 -29 -75v-332z" />
    <glyph glyph-name="n" unicode="n" horiz-adv-x="611" 
d="M64 0v542h140v-82h2q20 42 56 66.5t77 24.5q208 0 208 -188v-363h-140v322q0 48 -15 71q-23 34 -86 34q-102 0 -102 -91v-336h-140z" />
    <glyph glyph-name="o" unicode="o" horiz-adv-x="611" 
d="M302 -23q-115 0 -187 66q-80 73 -80 221t80 221q72 66 187 66t187 -66q80 -73 80 -221t-80 -221q-72 -66 -187 -66zM302 431q-66 0 -100 -61q-26 -46 -26 -106t26 -106q34 -61 100 -61t100 61q26 46 26 106t-26 106q-34 61 -100 61z" />
    <glyph glyph-name="p" unicode="p" horiz-adv-x="611" 
d="M58 542h140v-82q45 54 54 61q34 27 90 30q84 5 152 -65q80 -83 80 -233q0 -140 -74 -216q-33 -34 -66.5 -47t-89.5 -13q-50 0 -85 22q-22 14 -61 57v-275h-140v761zM316 427q-63 0 -94 -61q-24 -47 -24 -106t24 -106q31 -61 94 -61q62 0 93 61q24 47 24 106t-24 106
q-31 61 -93 61z" />
    <glyph glyph-name="q" unicode="q" horiz-adv-x="611" 
d="M544 539v-758h-140v275q-39 -43 -61 -57q-35 -22 -85 -22q-56 0 -89.5 13t-66.5 47q-74 76 -74 216q0 150 80 233q68 70 152 65q102 -6 142 -91h2v79h140zM287 424q-63 0 -94 -62q-24 -47 -24 -108t24 -108q31 -62 94 -62q62 0 93 62q24 47 24 108t-24 108q-31 62 -93 62
z" />
    <glyph glyph-name="r" unicode="r" horiz-adv-x="389" 
d="M63 0v542h140v-105h2q14 48 65 85q43 31 81 31q9 0 19 -2v-143q-30 3 -48 3q-104 0 -119 -106v-305h-140z" />
    <glyph glyph-name="s" unicode="s" 
d="M29 159h138q13 -43 45 -60q22 -11 77 -17q42 -5 65 13q20 16 20 41q0 39 -35 49l-174 50q-114 33 -116 132q-2 90 66 142q51 39 143 42q101 3 168 -40q80 -52 80 -144h-135q-1 29 -9 42q-10 17 -43 27q-28 9 -52 9q-32 0 -61 -16q-22 -12 -22 -38q0 -27 33 -36l202 -55
q40 -11 69 -45q32 -38 32 -86q0 -51 -24 -95q-31 -57 -93 -79q-58 -20 -136 -18q-77 2 -119 21q-116 51 -119 161z" />
    <glyph glyph-name="t" unicode="t" horiz-adv-x="333" 
d="M14 531h69v147h140v-147h78v-93h-78v-305q0 -47 23 -47l53 -1v-95q-35 -12 -67 -13q-133 -6 -149 108v353h-69v93z" />
    <glyph glyph-name="u" unicode="u" horiz-adv-x="611" 
d="M547 542v-542h-140v67h-2q-45 -78 -132 -90q-88 1 -133 27q-76 44 -76 161v377h140v-336q0 -53 12 -73q21 -37 89 -32q95 7 102 91v350h140z" />
    <glyph glyph-name="v" unicode="v" 
d="M14 542h148l113 -397l113 397h148l-188 -542h-147z" />
    <glyph glyph-name="w" unicode="w" horiz-adv-x="778" 
d="M5 542h145l84 -380l79 380h145l79 -380l84 380h145l-151 -542h-144l-85 381l-86 -381h-144z" />
    <glyph glyph-name="x" unicode="x" 
d="M21 542h168l88 -165l90 165h166l-177 -272l179 -270h-167l-91 160l-94 -160h-167l177 270z" />
    <glyph glyph-name="y" unicode="y" 
d="M9 542h155l117 -394l113 394h144l-230 -654q-9 -37 -41 -69q-37 -38 -183 -38v114q57 -5 88.5 15t31.5 60q0 15 -5 30z" />
    <glyph glyph-name="z" unicode="z" horiz-adv-x="500" 
d="M40 542h420v-115l-265 -312h273v-115h-447v115l268 312h-249v115z" />
    <glyph glyph-name="braceleft" unicode="{" horiz-adv-x="450" 
d="M353 247q48 -15 48 -42q0 -22 -48 -39v-45q0 -14 -6 -14q-4 0 -12 6l-61 47q-9 5 -14 5q-8 0 -8 -6q0 -7 8 -16l52 -58q3 -6 3 -9q0 -6 -16 -6l-35 5q0 -32 29 -87q23 -45 50 -80q47 -51 47 -56q0 -8 -7 -8q-20 0 -90 73q-76 78 -101 158l-55 -11q-13 0 -13 7q0 5 5 12
l45 63q7 7 7 14q0 8 -8 8q-7 0 -17 -9l-52 -46q-9 -8 -15 -8q-10 0 -10 19v42q-12 2 -28 15q-19 14 -19 24q0 18 47 41v47q0 13 10 13q5 0 12 -6l59 -51q7 -6 13 -6q8 0 8 9q0 5 -3 9l-46 64q-6 8 -6 14q0 7 16 7l52 -8q31 89 106 163q68 67 83 67q10 0 10 -7q0 -5 -47 -59
q-25 -28 -51 -79q-28 -56 -28 -85l37 4q11 0 11 -6q0 -7 -9 -17l-50 -58q-3 -4 -3 -8q0 -7 8 -7q5 0 9 3l61 45q9 7 15 7q7 0 7 -10v-44zM242 275l45 47l-2 2l-49 -9q13 54 28 83v40q-15 -15 -37 -58q-22 -45 -23 -64l-52 12l36 -55h3v24h18l15 24v-24h18v-22zM334 180
q10 2 28 10q20 9 20 16q0 8 -20 18q-18 8 -28 8v43l-56 -42l1 -1h32v-16q11 -1 23 -10q-15 -8 -23 -8v-16h-33l-3 -2l59 -42v42zM217 169q16 0 28 11.5t12 26.5q0 16 -12 27.5t-28 11.5t-27 -11.5t-11 -27.5q0 -15 11.5 -26.5t26.5 -11.5zM121 230h36v2l-59 44v-44
q-8 -1 -27 -9q-20 -10 -20 -16q0 -8 20 -18q18 -9 27 -9v-43l58 43h-35v17q-11 1 -23 10q18 8 23 8v15zM286 89l2 1l-46 47v-21h-17v-25h-1l-15 25h-17v23h-2l-37 -55l52 12q1 -19 23 -63t37 -58v39q-14 25 -28 84z" />
    <glyph glyph-name="bar" unicode="|" horiz-adv-x="280" 
d="M104 618h63v-910h-63v910z" />
    <glyph glyph-name="braceright" unicode="}" horiz-adv-x="450" 
d="M370 246q48 -23 48 -41q0 -11 -19 -25q-17 -12 -29 -14v-42q0 -19 -10 -19q-5 0 -14 8l-53 46q-11 9 -17 9q-7 0 -7 -8t6 -14l45 -63q6 -8 6 -13q0 -6 -13 -6l-55 11q-36 -117 -158 -211q-26 -20 -33 -20t-7 8q0 5 47 56q27 35 50 80q29 55 29 87l-35 -5q-17 0 -17 5
q0 2 4 10l51 58q8 9 8 16q0 6 -7 6t-14 -5l-62 -47q-7 -5 -11 -5q-6 0 -6 13v45q-49 18 -49 39q0 27 49 42v44q0 10 7 10q5 0 15 -7l61 -44q4 -4 9 -4q8 0 8 7q0 4 -4 8l-50 58q-8 9 -8 15q0 8 11 7l37 -3q0 28 -28 84q-28 54 -51 80q-47 54 -47 59q0 7 9 7q15 0 83 -67
q76 -74 106 -163l53 9q16 0 16 -8q0 -6 -6 -14l-46 -64q-3 -4 -3 -9q0 -9 8 -9q6 0 13 6l58 51q6 6 13 6q9 0 9 -13v-47zM261 273l37 55l-52 -12q-1 19 -23 64q-22 43 -37 58v-40q14 -29 28 -83l-49 9l-2 -2l45 -47v22h17v24h1l15 -24h18v-24h2zM351 180q10 0 28 9
q20 10 20 18q0 6 -21 16q-18 8 -27 9v44l-58 -44v-2h35v-15q4 0 23 -8q-10 -9 -23 -10v-17h-34l57 -43v43zM232 169q16 0 27.5 11t11.5 27q0 17 -11 28t-28 11q-16 0 -27.5 -11.5t-11.5 -27.5q0 -15 12 -26.5t27 -11.5zM116 138l58 42l-2 2h-33v16q-10 0 -23 8q10 9 23 10
v16h32l1 1l-56 42v-43q-10 0 -28 -9q-20 -9 -20 -17q0 -7 21 -16q17 -8 27 -10v-42zM245 96l52 -12l-37 55h-2v-23h-18l-15 -25v25h-18v21l-45 -47l2 -1l49 9q-14 -56 -28 -84v-39q15 14 37 57q22 45 23 64z" />
    <glyph glyph-name="asciitilde" unicode="~" horiz-adv-x="584" 
d="M130 174h-70q9 76 53 116q35 32 74 32q27 0 56 -17l101 -59q32 -18 54 -18q25 0 36 21q9 18 7 41h78q2 -65 -47 -114q-32 -32 -68 -32q-31 0 -71 21l-112 60q-26 14 -44 14q-38 0 -47 -65z" />
    <glyph glyph-name="nonbreakingspace" unicode="&#xa0;" horiz-adv-x="623" 
 />
    <glyph glyph-name="exclamdown" unicode="&#xa1;" horiz-adv-x="333" 
d="M66 542h150v-146h-150v146zM106 334h66l44 -311v-210h-150v210z" />
    <glyph glyph-name="cent" unicode="&#xa2;" 
d="M359 637h51l-28 -101q38 -17 51 -25q21 -13 44 -39q36 -41 45 -122h-137q-3 24 -15 45l-20 28l-92 -327q55 -8 84.5 13.5t47.5 87.5l132 1q-5 -59 -36 -113q-39 -66 -104 -88q-50 -17 -100 -17q-5 0 -55 3l-30 -105h-53l35 122q-30 8 -67 44q-47 45 -65 105
q-11 35 -11 104q0 118 41 187q65 111 207 111q24 0 50 -4zM214 124l89 314q-14 4 -26 4q-26 0 -51 -22t-36 -49t-17 -83q-3 -26 -3 -49q0 -88 44 -115z" />
    <glyph glyph-name="sterling" unicode="&#xa3;" 
d="M31 317v57h61q-15 25 -30 51q-22 46 -22 92q0 11 1 22q-3 31 27 76q28 41 62 65q55 37 146 37q111 0 171 -51q34 -29 49.5 -65t26.5 -114h-133q-15 125 -116 119q-42 -2 -69 -28t-27 -63q0 -24 13 -49q16 -29 42 -92h142v-57h-120q15 -57 2 -100q-12 -39 -50 -79l-54 -50
q27 11 53 22q34 12 66 12q18 0 38 -4q60 -13 76 -13q50 0 110 29l41 -109q-28 -13 -57 -27q-46 -18 -91 -18q-33 0 -66 9q-87 23 -127 23q-52 0 -111 -31l-53 100l36 26q24 18 43 43q30 39 30 83q0 27 -21 84h-89z" />
    <glyph glyph-name="currency" unicode="&#xa4;" 
d="M447 248l77 -77l-68 -65l-77 77q-21 -11 -41 -21q-28 -11 -63 -10q-59 2 -99 33l-80 -80l-67 67l78 79q-36 44 -36 106q0 66 34 99l-79 77l69 69l78 -78q44 33 108 30q68 -3 102 -28l79 78l68 -68l-80 -79l20 -36q12 -27 13 -57q1 -48 -36 -116zM171 348q3 -43 34 -71.5
t72 -28.5q53 0 83 36q25 30 23 64q3 43 -28 78t-78 35t-78 -35t-28 -78z" />
    <glyph glyph-name="yen" unicode="&#xa5;" 
d="M341 0h-117v179h-155v60h155v53h-155v60h148l-212 357h127l150 -259l145 259h125l-205 -357h148v-60h-154v-53h154v-60h-154v-179z" />
    <glyph glyph-name="brokenbar" unicode="&#xa6;" horiz-adv-x="280" 
d="M180 729v-372h-80v372h80zM100 -202v372h80v-372h-80z" />
    <glyph glyph-name="section" unicode="&#xa7;" 
d="M471 546h-127q-9 35 -9 36q-4 13 -17 23q-18 17 -51 17q-17 0 -30 -4q-34 -11 -34 -46q0 -31 32 -51q65 -36 183 -103q91 -53 96 -143q4 -62 -28 -104q-28 -36 -69 -43q72 -50 72 -124q0 -15 -3 -29q-13 -56 -15 -60q-16 -44 -53 -72q-57 -43 -145 -43q-66 0 -108 20
q-55 27 -83 76q-22 40 -22 85q0 10 1 19h131q0 -34 6 -48q12 -30 52 -37q11 -2 22 -2q30 0 53.5 16.5t23.5 44.5q0 45 -43 65q-28 7 -88 40q-51 30 -102 59q-81 44 -87 133q-4 58 28 99q11 14 65 60q-61 69 -61 121q0 29 13 61q51 123 210 115q119 -6 161 -74
q19 -31 26 -107zM334 166q31 15 41 25q17 17 18 45q1 36 -45 64q-70 34 -154 84q-40 -18 -45 -62q-4 -38 35 -64q71 -35 150 -92z" />
    <glyph glyph-name="dieresis" unicode="&#xa8;" horiz-adv-x="333" 
d="M18 609v122h110v-122h-110zM204 731h110v-122h-110v122z" />
    <glyph glyph-name="copyright" unicode="&#xa9;" horiz-adv-x="737" 
d="M369 -20q-159 0 -271 112t-112 271q0 158 112 270t271 112q158 0 270 -112t112 -270q0 -159 -112 -271t-270 -112zM369 52q128 0 219 91t91 220q0 128 -91 219t-219 91q-129 0 -220 -90.5t-91 -219.5t90.5 -220t220.5 -91zM477 294h86q-7 -68 -58 -108t-120 -40
q-94 0 -153 64q-58 61 -58 156q0 97 56.5 158.5t152.5 61.5q70 0 119.5 -38.5t60.5 -105.5h-86q-6 35 -32 55t-63 20q-58 0 -92 -46q-31 -42 -31 -103q0 -59 33 -104q36 -50 93 -50q35 0 62.5 23t29.5 57z" />
    <glyph glyph-name="ordfeminine" unicode="&#xaa;" horiz-adv-x="370" 
d="M326 414h-88q-10 17 -9 35q-29 -26 -41 -33q-34 -19 -76 -14q-87 10 -84 101q3 87 94 102q39 1 85 15q22 9 21 37q-1 32 -55 29q-53 -2 -55 -53h-80q0 47 15 68q31 45 126 45q129 0 129 -102v-170q0 -22 18 -38v-22zM228 551v18q-15 -9 -40 -12q-19 -3 -38 -5
q-39 -7 -39 -42q0 -39 42 -39q8 0 16 1q59 10 59 79zM34 357h284v-80h-284v80z" />
    <glyph glyph-name="guillemotleft" unicode="&#xab;" horiz-adv-x="473" 
d="M448 70l-124 -76q-36 65 -87 167l143 164l61 -53l-99 -105zM246 70l-124 -76q-36 65 -87 167l143 164l61 -53l-99 -105z" />
    <glyph glyph-name="logicalnot" unicode="&#xac;" horiz-adv-x="584" 
d="M429 121v176h-389v115h504v-291h-115z" />
    <glyph glyph-name="registered" unicode="&#xae;" horiz-adv-x="737" 
d="M369 -20q-159 0 -271 112.5t-112 270.5t112 270t271 112q158 0 270 -112t112 -270t-112 -270.5t-270 -112.5zM369 52q129 0 219.5 90.5t90.5 220.5q0 129 -90.5 219.5t-219.5 90.5q-130 0 -220.5 -90.5t-90.5 -219.5q0 -130 90.5 -220.5t220.5 -90.5zM459 329l100 -174
h-94l-92 174h-81v-174h-81v412h200q81 0 112 -19q48 -30 48 -107q0 -104 -112 -112zM292 391h121q78 0 78 62q0 36 -34 48q-20 7 -65 7h-100v-117z" />
    <glyph glyph-name="degree" unicode="&#xb0;" horiz-adv-x="400" 
d="M350 575q0 -62 -44 -106t-106 -44t-106 44t-44 106t44 106t106 44t106 -44t44 -106zM290 575q0 37 -27 63.5t-64 26.5t-63 -26.5t-26 -63.5q0 -38 26.5 -64t63.5 -26t63.5 26.5t26.5 63.5z" />
    <glyph glyph-name="plusminus" unicode="&#xb1;" horiz-adv-x="584" 
d="M232 674h120v-182h182v-120h-182v-182h-120v182h-182v120h182v182zM40 0v116h504v-116h-504z" />
    <glyph glyph-name="twosuperior" unicode="&#xb2;" horiz-adv-x="333" 
d="M322 360v-76h-313q4 46 13 70q16 40 58 73q92 58 125 92q27 27 27 61q0 11 -3 24q-9 46 -63 46q-67 0 -63 -88h-87q-3 76 39 119t122 38q77 -5 115.5 -46t31.5 -108q-6 -62 -112 -130q-73 -47 -85 -75h195z" />
    <glyph glyph-name="threesuperior" unicode="&#xb3;" horiz-adv-x="333" 
d="M131 475v57q85 0 90 48q2 10 2 19q0 53 -61 54q-40 1 -54 -27q-8 -15 -9 -49h-84q0 42 7 60q14 42 66 69q33 18 93 14q56 -3 85 -26q50 -40 44 -104q-3 -28 -18 -47q-7 -10 -33 -30q38 -22 53.5 -48t12.5 -70q-4 -46 -34 -79q-43 -45 -128 -45q-78 0 -122 47
q-31 33 -33 92h88q3 -31 10 -42q8 -16 32 -24t42 -5q13 2 26 14q27 25 27 55v0q0 32 -29 52.5t-73 14.5z" />
    <glyph glyph-name="acute" unicode="&#xb4;" horiz-adv-x="333" 
d="M121 595l71 150h125l-127 -150h-69z" />
    <glyph glyph-name="mu" unicode="&#xb5;" horiz-adv-x="611" 
d="M401 0v67q-48 -78 -134 -90q-39 0 -69 6v-202h-140v761h140v-336q0 -53 12 -73q21 -37 89 -32q95 7 102 91v350h140v-542h-140z" />
    <glyph glyph-name="paragraph" unicode="&#xb6;" 
d="M204 729h317v-71h-76v-853h-72v852h-83v-852h-72v460q-186 20 -205 215q-9 91 51.5 170t139.5 79z" />
    <glyph glyph-name="cedilla" unicode="&#xb8;" horiz-adv-x="333" 
d="M159 -9h43l-18 -51q33 10 66 4q48 -8 44 -76q-5 -88 -127 -88q-64 0 -140 30l20 53l42 -20q28 -14 42 -14q6 0 10 3q51 0 67 34q0 30 -27 39q-10 3 -19 3q-11 0 -23 -5q-8 -3 -17 -7z" />
    <glyph glyph-name="onesuperior" unicode="&#xb9;" horiz-adv-x="333" 
d="M156 578h-110v55q67 0 102 24t39 52h60v-425h-91v294z" />
    <glyph glyph-name="ordmasculine" unicode="&#xba;" horiz-adv-x="365" 
d="M183 401q-69 0 -112 39q-48 43 -48 133q0 89 48 132q44 40 112 40t112 -40q48 -43 48 -132q0 -90 -48 -133q-43 -39 -112 -39zM183 673q-38 0 -60 -37q-16 -27 -16 -63t16 -64q21 -36 60 -36t60 36q16 28 16 64t-16 63q-22 37 -60 37zM33 356h300v-80h-300v80z" />
    <glyph glyph-name="guillemotright" unicode="&#xbb;" horiz-adv-x="468" 
d="M222 248l124 76q36 -65 87 -167l-143 -164l-61 53l99 105zM25 248l124 76q36 -65 87 -167l-143 -164l-61 53l99 105z" />
    <glyph glyph-name="onequarter" unicode="&#xbc;" horiz-adv-x="834" 
d="M756 93v-93h-91v93h-185v72l170 260h106v-263h48v-69h-48zM665 162v177l-120 -177h120zM240 -20h-85l423 735h87zM141 578h-111v56q66 0 102 23t40 52h60v-425h-91v294z" />
    <glyph glyph-name="onehalf" unicode="&#xbd;" horiz-adv-x="834" 
d="M801 76v-76h-313q4 46 14 70q16 41 57 73q96 61 126 92q26 27 26 61q0 11 -3 25q-9 45 -63 45q-68 0 -62 -87h-87q-4 75 38 118t122 38q78 -5 116 -45.5t31 -108.5q-6 -63 -111 -130q-73 -46 -85 -75h194zM209 -20h-85l423 735h87zM140 578h-110v56q65 0 101 23t40 52h60
v-425h-91v294z" />
    <glyph glyph-name="threequarters" unicode="&#xbe;" horiz-adv-x="834" 
d="M756 425v-263h48v-69h-48v-93h-91v93h-185v72l170 260h106zM665 162v177l-120 -177h120zM286 -20h-85l423 735h87zM153 479v57q85 0 90 49q2 10 2 19q0 52 -61 54q-40 1 -54 -27q-7 -14 -9 -50h-84q0 42 7 60q14 42 66 70q33 18 93 14q57 -3 85 -26q50 -41 44 -104
q-3 -28 -18 -47q-7 -10 -33 -30q38 -22 53.5 -48t12.5 -70q-3 -46 -34 -79q-43 -45 -128 -45q-79 0 -122 47q-29 32 -33 92h88q4 -32 10 -43q8 -15 32 -23t42 -5q13 3 26 14q27 25 27 55v0q0 32 -29 52.5t-73 13.5z" />
    <glyph glyph-name="questiondown" unicode="&#xbf;" horiz-adv-x="611" 
d="M225 542h150v-135h-150v135zM239 352h122q2 -14 2 -27q0 -97 -118 -188q-53 -41 -48 -105q4 -43 35 -67q28 -22 67 -22v0q49 0 81 32q35 36 27 96h134q3 -20 3 -41q0 -108 -78 -170q-65 -52 -163 -52q-115 0 -187 60q-65 68 -65 163q0 60 25 109q13 24 45 52q25 20 51 40
q45 28 59 59q10 22 8 61z" />
    <glyph glyph-name="Agrave" unicode="&#xc0;" horiz-adv-x="722" 
d="M453 729l250 -729h-153l-50 146h-270l-51 -146h-153l254 729h173zM367 554l-90 -283h187zM217 935h125l71 -150h-69z" />
    <glyph glyph-name="Aacute" unicode="&#xc1;" horiz-adv-x="722" 
d="M453 729l250 -729h-153l-50 146h-270l-51 -146h-153l254 729h173zM367 554l-90 -283h187zM321 785l71 150h125l-127 -150h-69z" />
    <glyph glyph-name="Acircumflex" unicode="&#xc2;" horiz-adv-x="722" 
d="M453 729l250 -729h-153l-50 146h-270l-51 -146h-153l254 729h173zM367 554l-90 -283h187zM316 935h107l103 -147h-78l-82 95l-82 -95h-76z" />
    <glyph glyph-name="Atilde" unicode="&#xc3;" horiz-adv-x="722" 
d="M456 729l250 -729h-153l-50 146h-270l-51 -146h-153l254 729h173zM370 554l-90 -283h187zM501 919h44q-9 -42 -29 -73q-33 -50 -86 -50q-11 0 -23 2l-95 38q-14 4 -25 4q-43 0 -52 -55h-44q10 29 21 59q26 48 77 59q16 3 28 3q19 0 99 -30q20 -8 35 -8q40 0 50 51z" />
    <glyph glyph-name="Adieresis" unicode="&#xc4;" horiz-adv-x="722" 
d="M453 729l250 -729h-153l-50 146h-270l-51 -146h-153l254 729h173zM367 554l-90 -283h187zM218 799v122h110v-122h-110zM404 921h110v-122h-110v122z" />
    <glyph glyph-name="Aring" unicode="&#xc5;" horiz-adv-x="722" 
d="M453 729l250 -729h-153l-50 146h-270l-51 -146h-153l254 729h173zM367 554l-90 -283h187zM277 845q0 38 26.5 64t63.5 26q38 0 64 -26t26 -64q0 -37 -26 -63.5t-64 -26.5q-37 0 -63.5 26.5t-26.5 63.5zM317 845q0 -21 14.5 -35.5t35.5 -14.5t35.5 14.5t14.5 35.5
t-14.5 35.5t-35.5 14.5t-35.5 -14.5t-14.5 -35.5z" />
    <glyph glyph-name="AE" unicode="&#xc6;" horiz-adv-x="1000" 
d="M966 125v-125h-535v156h-218l-53 -156h-159l266 729h682v-125h-378v-169h349v-125h-349v-185h395zM366 602l-115 -325h180v325h-65z" />
    <glyph glyph-name="Ccedilla" unicode="&#xc7;" horiz-adv-x="722" 
d="M542 249h143q-1 -55 -28.5 -111.5t-69.5 -89.5q-85 -67 -215 -71q-119 -4 -203 67q-81 67 -111 186q-14 56 -14 128q0 83 17 140q73 243 317 243q114 0 196 -57q108 -75 111 -202h-143q-5 49 -39 86q-50 54 -145 47q-49 -4 -87.5 -36t-57.5 -81t-23 -125q-4 -92 23 -153
q37 -83 104 -106q21 -7 49 -8q32 -1 63 8q67 19 93 66q11 19 20 69zM369 -9h43l-18 -51q33 10 66 4q48 -8 44 -76q-5 -88 -127 -88q-64 0 -140 30l20 53l42 -20q28 -14 42 -14q6 0 10 3q51 0 67 34q0 30 -27 39q-10 3 -19 3q-11 0 -23 -5q-8 -3 -17 -7z" />
    <glyph glyph-name="Egrave" unicode="&#xc8;" horiz-adv-x="667" 
d="M207 935h125l71 -150h-69zM79 729h528v-125h-378v-166h349v-125h-349v-188h395v-125h-545v729z" />
    <glyph glyph-name="Eacute" unicode="&#xc9;" horiz-adv-x="667" 
d="M311 785l71 150h125l-127 -150h-69zM79 729h528v-125h-378v-166h349v-125h-349v-188h395v-125h-545v729z" />
    <glyph glyph-name="Ecircumflex" unicode="&#xca;" horiz-adv-x="667" 
d="M306 935h107l103 -147h-78l-82 95l-82 -95h-76zM79 729h528v-125h-378v-166h349v-125h-349v-188h395v-125h-545v729z" />
    <glyph glyph-name="Edieresis" unicode="&#xcb;" horiz-adv-x="667" 
d="M208 799v122h110v-122h-110zM394 921h110v-122h-110v122zM79 729h528v-125h-378v-166h349v-125h-349v-188h395v-125h-545v729z" />
    <glyph glyph-name="Igrave" unicode="&#xcc;" horiz-adv-x="278" 
d="M-13 935h125l71 -150h-69zM213 729v-729h-150v729h150z" />
    <glyph glyph-name="Iacute" unicode="&#xcd;" horiz-adv-x="278" 
d="M91 785l71 150h125l-127 -150h-69zM213 729v-729h-150v729h150z" />
    <glyph glyph-name="Icircumflex" unicode="&#xce;" horiz-adv-x="278" 
d="M86 935h107l103 -147h-78l-82 95l-82 -95h-76zM213 729v-729h-150v729h150z" />
    <glyph glyph-name="Idieresis" unicode="&#xcf;" horiz-adv-x="278" 
d="M-12 799v122h110v-122h-110zM174 921h110v-122h-110v122zM213 729v-729h-150v729h150z" />
    <glyph glyph-name="Eth" unicode="&#xd0;" horiz-adv-x="722" 
d="M77 0v335h-95v91h95v303h339q151 0 233 -170q32 -66 32 -162q0 -165 -67 -269q-38 -58 -94.5 -93t-113.5 -35h-329zM227 604v-178h121v-91h-121v-210h120q111 0 157 98q27 57 26 155q-1 107 -37 159q-27 39 -60 54q-27 13 -71 13h-135z" />
    <glyph glyph-name="Ntilde" unicode="&#xd1;" horiz-adv-x="722" 
d="M501 919h44q-9 -42 -29 -73q-33 -50 -86 -50q-11 0 -23 2l-95 38q-14 4 -25 4q-43 0 -52 -55h-44q10 29 21 59q26 48 77 59q16 3 28 3q19 0 99 -30q20 -8 35 -8q40 0 50 51zM68 729h148l295 -501v501h150v-729h-148l-295 508v-508h-150v729z" />
    <glyph glyph-name="Ograve" unicode="&#xd2;" horiz-adv-x="778" 
d="M237 935h125l71 -150h-69zM742 359q0 -83 -28.5 -160.5t-79.5 -130.5q-88 -91 -243 -91t-243 91q-51 53 -79.5 130.5t-28.5 160.5t28.5 160.5t79.5 130.5q88 91 243 91t243 -91q51 -53 79.5 -130.5t28.5 -160.5zM391 108q81 0 134 49q73 67 73 202t-73 202
q-53 49 -134 49t-134 -49q-73 -67 -73 -202t73 -202q53 -49 134 -49z" />
    <glyph glyph-name="Oacute" unicode="&#xd3;" horiz-adv-x="778" 
d="M341 785l71 150h125l-127 -150h-69zM742 359q0 -83 -28.5 -160.5t-79.5 -130.5q-88 -91 -243 -91t-243 91q-51 53 -79.5 130.5t-28.5 160.5t28.5 160.5t79.5 130.5q88 91 243 91t243 -91q51 -53 79.5 -130.5t28.5 -160.5zM391 108q81 0 134 49q73 67 73 202t-73 202
q-53 49 -134 49t-134 -49q-73 -67 -73 -202t73 -202q53 -49 134 -49z" />
    <glyph glyph-name="Ocircumflex" unicode="&#xd4;" horiz-adv-x="778" 
d="M336 935h107l103 -147h-78l-82 95l-82 -95h-76zM742 359q0 -83 -28.5 -160.5t-79.5 -130.5q-88 -91 -243 -91t-243 91q-51 53 -79.5 130.5t-28.5 160.5t28.5 160.5t79.5 130.5q88 91 243 91t243 -91q51 -53 79.5 -130.5t28.5 -160.5zM391 108q81 0 134 49q73 67 73 202
t-73 202q-53 49 -134 49t-134 -49q-73 -67 -73 -202t73 -202q53 -49 134 -49z" />
    <glyph glyph-name="Otilde" unicode="&#xd5;" horiz-adv-x="778" 
d="M742 359q0 -83 -28.5 -160.5t-79.5 -130.5q-88 -91 -243 -91t-243 91q-51 53 -79.5 130.5t-28.5 160.5t28.5 160.5t79.5 130.5q88 91 243 91t243 -91q51 -53 79.5 -130.5t28.5 -160.5zM391 108q81 0 134 49q73 67 73 202t-73 202q-53 49 -134 49t-134 -49
q-73 -67 -73 -202t73 -202q53 -49 134 -49zM521 919h44q-9 -42 -29 -73q-33 -50 -86 -50q-11 0 -23 2l-95 38q-14 4 -25 4q-43 0 -52 -55h-44q10 29 21 59q26 48 77 59q16 3 28 3q19 0 99 -30q20 -8 35 -8q40 0 50 51z" />
    <glyph glyph-name="Odieresis" unicode="&#xd6;" horiz-adv-x="778" 
d="M238 799v122h110v-122h-110zM424 921h110v-122h-110v122zM742 359q0 -83 -28.5 -160.5t-79.5 -130.5q-88 -91 -243 -91t-243 91q-51 53 -79.5 130.5t-28.5 160.5t28.5 160.5t79.5 130.5q88 91 243 91t243 -91q51 -53 79.5 -130.5t28.5 -160.5zM391 108q81 0 134 49
q73 67 73 202t-73 202q-53 49 -134 49t-134 -49q-73 -67 -73 -202t73 -202q53 -49 134 -49z" />
    <glyph glyph-name="multiply" unicode="&#xd7;" horiz-adv-x="451" 
d="M266 243l130 -129l-45 -45l-131 130l-129 -130l-44 45l129 129l-129 130l44 46l129 -130l131 130l45 -46z" />
    <glyph glyph-name="Oslash" unicode="&#xd8;" horiz-adv-x="778" 
d="M622 663l82 91l51 -45l-88 -98q72 -106 72 -248q0 -83 -28.5 -160.5t-79.5 -130.5q-88 -91 -243 -91q-141 0 -225 74l-81 -89l-51 46l85 94q-79 110 -79 257q0 83 28.5 160.5t79.5 130.5q88 91 243 91q151 0 234 -82zM214 214l314 346q-59 54 -140 54t-134 -49
q-73 -67 -73 -202q0 -86 33 -149zM568 502l-312 -343q51 -47 132 -47t134 49q73 67 73 202q0 77 -27 139z" />
    <glyph glyph-name="Ugrave" unicode="&#xd9;" horiz-adv-x="722" 
d="M217 935h125l71 -150h-69zM504 729h150v-503q0 -154 -137 -219q-63 -30 -149 -30q-77 0 -141 24q-151 84 -151 225v503h150v-505q0 -117 138 -117q140 0 140 117v505z" />
    <glyph glyph-name="Uacute" unicode="&#xda;" horiz-adv-x="722" 
d="M321 785l71 150h125l-127 -150h-69zM504 729h150v-503q0 -154 -137 -219q-63 -30 -149 -30q-77 0 -141 24q-151 84 -151 225v503h150v-505q0 -117 138 -117q140 0 140 117v505z" />
    <glyph glyph-name="Ucircumflex" unicode="&#xdb;" horiz-adv-x="722" 
d="M316 935h107l103 -147h-78l-82 95l-82 -95h-76zM504 729h150v-503q0 -154 -137 -219q-63 -30 -149 -30q-77 0 -141 24q-151 84 -151 225v503h150v-505q0 -117 138 -117q140 0 140 117v505z" />
    <glyph glyph-name="Udieresis" unicode="&#xdc;" horiz-adv-x="722" 
d="M218 802v122h110v-122h-110zM404 924h110v-122h-110v122zM504 729h150v-503q0 -154 -137 -219q-63 -30 -149 -30q-77 0 -141 24q-151 84 -151 225v503h150v-505q0 -117 138 -117q140 0 140 117v505z" />
    <glyph glyph-name="Yacute" unicode="&#xdd;" horiz-adv-x="667" 
d="M291 785l71 150h125l-127 -150h-69zM482 729h168l-233 -459v-270h-150v270l-240 459h167l148 -314z" />
    <glyph glyph-name="Thorn" unicode="&#xde;" horiz-adv-x="667" 
d="M76 0v729h150v-80q211 0 270 -15q82 -20 118 -103q19 -45 19 -108q0 -69 -20 -113q-61 -130 -208 -130h-179v-180h-150zM226 524v-219h168q56 0 82 61q12 28 12 64q0 22 -6 38q-20 56 -95 56h-161z" />
    <glyph glyph-name="germandbls" unicode="&#xdf;" horiz-adv-x="611" 
d="M284 349v96q103 0 105 92q1 35 -28 59t-76 21q-78 -5 -78 -89v-528h-140v560q0 121 158 162q32 8 71 8q109 0 171 -50q70 -57 65 -136q-7 -114 -86 -131v-2q81 -6 117 -95q12 -29 12 -80q0 -90 -42 -156q-61 -96 -179 -96q3 0 -70 6v111q21 -2 33 -2q37 0 70 23
q51 37 47 107q-4 75 -62 104q-39 21 -88 16z" />
    <glyph glyph-name="agrave" unicode="&#xe0;" 
d="M133 745h125l71 -150h-69zM524 0h-148q-17 22 -15 54q-42 -40 -75 -56q-42 -21 -99 -21q-166 0 -160 167q6 145 157 171q77 3 141 25q37 13 35 61q-2 49 -92 49q-87 0 -92 -88h-132q2 189 224 189q79 0 128 -20q97 -40 97 -152v-296q0 -36 31 -64v-19zM360 224v31
q-25 -15 -66 -21l-64 -8q-28 -5 -46 -24t-18 -45q0 -24 13 -41q17 -25 57 -25q12 0 26 2q98 16 98 131z" />
    <glyph glyph-name="aacute" unicode="&#xe1;" 
d="M237 595l71 150h125l-127 -150h-69zM524 0h-148q-17 22 -15 54q-42 -40 -75 -56q-42 -21 -99 -21q-166 0 -160 167q6 145 157 171q77 3 141 25q37 13 35 61q-2 49 -92 49q-87 0 -92 -88h-132q2 189 224 189q79 0 128 -20q97 -40 97 -152v-296q0 -36 31 -64v-19zM360 224
v31q-25 -15 -66 -21l-64 -8q-28 -5 -46 -24t-18 -45q0 -24 13 -41q17 -25 57 -25q12 0 26 2q98 16 98 131z" />
    <glyph glyph-name="acircumflex" unicode="&#xe2;" 
d="M232 745h107l103 -147h-78l-82 95l-82 -95h-76zM524 0h-148q-17 22 -15 54q-42 -40 -75 -56q-42 -21 -99 -21q-166 0 -160 167q6 145 157 171q77 3 141 25q37 13 35 61q-2 49 -92 49q-87 0 -92 -88h-132q2 189 224 189q79 0 128 -20q97 -40 97 -152v-296q0 -36 31 -64
v-19zM360 224v31q-25 -15 -66 -21l-64 -8q-28 -5 -46 -24t-18 -45q0 -24 13 -41q17 -25 57 -25q12 0 26 2q98 16 98 131z" />
    <glyph glyph-name="atilde" unicode="&#xe3;" 
d="M524 0h-148q-17 22 -15 54q-42 -40 -75 -56q-42 -21 -99 -21q-166 0 -160 167q6 145 157 171q77 3 141 25q37 13 35 61q-2 49 -92 49q-87 0 -92 -88h-132q2 189 224 189q79 0 128 -20q97 -40 97 -152v-296q0 -36 31 -64v-19zM360 224v31q-25 -15 -66 -21l-64 -8
q-28 -5 -46 -24t-18 -45q0 -24 13 -41q17 -25 57 -25q12 0 26 2q98 16 98 131zM417 732h44q-9 -42 -29 -73q-33 -50 -86 -50q-11 0 -23 2l-95 38q-14 4 -25 4q-43 0 -52 -55h-44q10 29 21 59q26 48 77 59q16 3 28 3q19 0 99 -30q20 -8 35 -8q40 0 50 51z" />
    <glyph glyph-name="adieresis" unicode="&#xe4;" 
d="M134 609v122h110v-122h-110zM320 731h110v-122h-110v122zM524 0h-148q-17 22 -15 54q-42 -40 -75 -56q-42 -21 -99 -21q-166 0 -160 167q6 145 157 171q77 3 141 25q37 13 35 61q-2 49 -92 49q-87 0 -92 -88h-132q2 189 224 189q79 0 128 -20q97 -40 97 -152v-296
q0 -36 31 -64v-19zM360 224v31q-25 -15 -66 -21l-64 -8q-28 -5 -46 -24t-18 -45q0 -24 13 -41q17 -25 57 -25q12 0 26 2q98 16 98 131z" />
    <glyph glyph-name="aring" unicode="&#xe5;" 
d="M524 0h-148q-17 22 -15 54q-42 -40 -75 -56q-42 -21 -99 -21q-166 0 -160 167q6 145 157 171q77 3 141 25q37 13 35 61q-2 49 -92 49q-87 0 -92 -88h-132q2 189 224 189q79 0 128 -20q97 -40 97 -152v-296q0 -36 31 -64v-19zM360 224v31q-25 -15 -66 -21l-64 -8
q-28 -5 -46 -24t-18 -45q0 -24 13 -41q17 -25 57 -25q12 0 26 2q98 16 98 131zM193 655q0 38 26.5 64t63.5 26q38 0 64 -26t26 -64q0 -37 -26 -63.5t-64 -26.5q-37 0 -63.5 26.5t-26.5 63.5zM233 655q0 -21 14.5 -35.5t35.5 -14.5t35.5 14.5t14.5 35.5t-14.5 35.5
t-35.5 14.5t-35.5 -14.5t-14.5 -35.5z" />
    <glyph glyph-name="ae" unicode="&#xe6;" horiz-adv-x="889" 
d="M857 234h-365q-4 -40 19 -81q32 -59 105 -59q41 0 66 25l28 41h145q-23 -83 -86.5 -131.5t-152.5 -48.5q-76 0 -122 24q-41 20 -74 69q-42 -54 -77 -72q-44 -21 -135 -21q-125 0 -166 93q-15 34 -15 74q0 35 12 60q27 78 123 98q64 13 169 28q25 3 32 16q5 8 4 32
q0 18 -2 22q-3 12 -18 23q-30 17 -86 17q-60 0 -77 -84h-137q2 92 62 142t171 50q131 0 173 -60q39 33 60 42q37 18 93 18q170 0 226 -132q25 -58 25 -185zM366 170l3 86q-17 -12 -64 -21q-74 -14 -77 -15q-57 -15 -57 -70q0 -66 79 -66q42 0 78.5 26.5t37.5 59.5zM495 326
h217q0 52 -31 81.5t-83 29.5q-64 0 -87 -39q-14 -22 -16 -72z" />
    <glyph glyph-name="ccedilla" unicode="&#xe7;" 
d="M522 340h-134q-14 57 -43 76q-17 11 -60 13q-72 4 -97 -80q-12 -39 -12 -93q0 -36 8 -65q15 -58 43 -80q21 -17 60 -18q77 -3 101 96h134q1 -48 -35 -103q-25 -38 -51 -60q-32 -26 -62 -36q-33 -11 -97 -13q-113 -4 -179 74q-50 58 -60 137q-5 37 -5 74q0 82 24 136
q43 97 104 129q36 19 123 24t143 -30q42 -26 70 -88q25 -54 25 -93zM279 -9h43l-18 -51q33 10 66 4q48 -8 44 -76q-5 -88 -127 -88q-64 0 -140 30l20 53l42 -20q28 -14 42 -14q6 0 10 3q51 0 67 34q0 30 -27 39q-10 3 -19 3q-11 0 -23 -5q-8 -3 -17 -7z" />
    <glyph glyph-name="egrave" unicode="&#xe8;" 
d="M132 745h125l71 -150h-69zM526 227h-360q-6 -56 17 -87q36 -50 95 -50q37 0 67.5 19t36.5 44h138q-17 -75 -97 -127q-74 -49 -150 -49q-78 0 -141 41q-74 48 -97 129q-7 24 -10 66q-5 59 5 116q37 222 244 222q139 0 206 -107q47 -75 47 -177q0 -16 -1 -40zM166 321h215
q0 108 -98 113q-59 3 -91 -36q-27 -32 -26 -77z" />
    <glyph glyph-name="eacute" unicode="&#xe9;" 
d="M236 595l71 150h125l-127 -150h-69zM526 227h-360q-6 -56 17 -87q36 -50 95 -50q37 0 67.5 19t36.5 44h138q-17 -75 -97 -127q-74 -49 -150 -49q-78 0 -141 41q-74 48 -97 129q-7 24 -10 66q-5 59 5 116q37 222 244 222q139 0 206 -107q47 -75 47 -177q0 -16 -1 -40z
M166 321h215q0 108 -98 113q-59 3 -91 -36q-27 -32 -26 -77z" />
    <glyph glyph-name="ecircumflex" unicode="&#xea;" 
d="M231 748h107l103 -147h-78l-82 95l-82 -95h-76zM526 227h-360q-6 -56 17 -87q36 -50 95 -50q37 0 67.5 19t36.5 44h138q-17 -75 -97 -127q-74 -49 -150 -49q-78 0 -141 41q-74 48 -97 129q-7 24 -10 66q-5 59 5 116q37 222 244 222q139 0 206 -107q47 -75 47 -177
q0 -16 -1 -40zM166 321h215q0 108 -98 113q-59 3 -91 -36q-27 -32 -26 -77z" />
    <glyph glyph-name="edieresis" unicode="&#xeb;" 
d="M133 609v122h110v-122h-110zM319 731h110v-122h-110v122zM526 227h-360q-6 -56 17 -87q36 -50 95 -50q37 0 67.5 19t36.5 44h138q-17 -75 -97 -127q-74 -49 -150 -49q-78 0 -141 41q-74 48 -97 129q-7 24 -10 66q-5 59 5 116q37 222 244 222q139 0 206 -107
q47 -75 47 -177q0 -16 -1 -40zM166 321h215q0 108 -98 113q-59 3 -91 -36q-27 -32 -26 -77z" />
    <glyph glyph-name="igrave" unicode="&#xec;" horiz-adv-x="278" 
d="M-13 745h125l71 -150h-69zM67 542h140v-542h-140v542z" />
    <glyph glyph-name="iacute" unicode="&#xed;" horiz-adv-x="278" 
d="M91 595l71 150h125l-127 -150h-69zM67 542h140v-542h-140v542z" />
    <glyph glyph-name="icircumflex" unicode="&#xee;" horiz-adv-x="278" 
d="M86 745h107l103 -147h-78l-82 95l-82 -95h-76zM67 542h140v-542h-140v542z" />
    <glyph glyph-name="idieresis" unicode="&#xef;" horiz-adv-x="278" 
d="M-12 609v122h110v-122h-110zM174 731h110v-122h-110v122zM67 542h140v-542h-140v542z" />
    <glyph glyph-name="eth" unicode="&#xf0;" horiz-adv-x="611" 
d="M250 546l-41 47l-108 -43l-45 51l96 39q-34 27 -70 38l44 51q53 -5 134 -45l114 46l46 -52l-94 -38q115 -81 170 -152q73 -95 73 -224q0 -148 -80 -221q-72 -66 -187 -66t-187 66q-80 73 -80 221t80 221q67 61 135 61zM302 431q-66 0 -100 -61q-26 -46 -26 -106t26 -106
q34 -61 100 -61t100 61q26 46 26 106t-26 106q-34 61 -100 61z" />
    <glyph glyph-name="ntilde" unicode="&#xf1;" horiz-adv-x="611" 
d="M64 0v542h140v-82h2q20 42 56 66.5t77 24.5q208 0 208 -188v-363h-140v322q0 48 -15 71q-23 34 -86 34q-102 0 -102 -91v-336h-140zM451 729h44q-9 -42 -29 -73q-33 -50 -86 -50q-11 0 -23 2l-95 38q-14 4 -25 4q-43 0 -52 -55h-44q10 29 21 59q26 48 77 59q16 3 28 3
q19 0 99 -30q20 -8 35 -8q40 0 50 51z" />
    <glyph glyph-name="ograve" unicode="&#xf2;" horiz-adv-x="611" 
d="M160 745h125l71 -150h-69zM302 -23q-115 0 -187 66q-80 73 -80 221t80 221q72 66 187 66t187 -66q80 -73 80 -221t-80 -221q-72 -66 -187 -66zM302 431q-66 0 -100 -61q-26 -46 -26 -106t26 -106q34 -61 100 -61t100 61q26 46 26 106t-26 106q-34 61 -100 61z" />
    <glyph glyph-name="oacute" unicode="&#xf3;" horiz-adv-x="611" 
d="M264 598l71 150h125l-127 -150h-69zM302 -23q-115 0 -187 66q-80 73 -80 221t80 221q72 66 187 66t187 -66q80 -73 80 -221t-80 -221q-72 -66 -187 -66zM302 431q-66 0 -100 -61q-26 -46 -26 -106t26 -106q34 -61 100 -61t100 61q26 46 26 106t-26 106q-34 61 -100 61z
" />
    <glyph glyph-name="ocircumflex" unicode="&#xf4;" horiz-adv-x="611" 
d="M256 745h107l103 -147h-78l-82 95l-82 -95h-76zM302 -23q-115 0 -187 66q-80 73 -80 221t80 221q72 66 187 66t187 -66q80 -73 80 -221t-80 -221q-72 -66 -187 -66zM302 431q-66 0 -100 -61q-26 -46 -26 -106t26 -106q34 -61 100 -61t100 61q26 46 26 106t-26 106
q-34 61 -100 61z" />
    <glyph glyph-name="otilde" unicode="&#xf5;" horiz-adv-x="611" 
d="M302 -23q-115 0 -187 66q-80 73 -80 221t80 221q72 66 187 66t187 -66q80 -73 80 -221t-80 -221q-72 -66 -187 -66zM302 431q-66 0 -100 -61q-26 -46 -26 -106t26 -106q34 -61 100 -61t100 61q26 46 26 106t-26 106q-34 61 -100 61zM441 732h44q-9 -42 -29 -73
q-33 -50 -86 -50q-11 0 -23 2l-95 38q-14 4 -25 4q-43 0 -52 -55h-44q10 29 21 59q26 48 77 59q16 3 28 3q19 0 99 -30q20 -8 35 -8q40 0 50 51z" />
    <glyph glyph-name="odieresis" unicode="&#xf6;" horiz-adv-x="611" 
d="M161 609v122h110v-122h-110zM347 731h110v-122h-110v122zM302 -23q-115 0 -187 66q-80 73 -80 221t80 221q72 66 187 66t187 -66q80 -73 80 -221t-80 -221q-72 -66 -187 -66zM302 431q-66 0 -100 -61q-26 -46 -26 -106t26 -106q34 -61 100 -61t100 61q26 46 26 106
t-26 106q-34 61 -100 61z" />
    <glyph glyph-name="glyph389" unicode="&#xf7;" horiz-adv-x="584" 
d="M534 292v-120h-484v120h484zM232 -10v120h120v-120h-120zM232 354v120h120v-120h-120z" />
    <glyph glyph-name="oslash" unicode="&#xf8;" horiz-adv-x="611" 
d="M486 493l67 68l45 -41l-72 -73q45 -70 45 -180q0 -148 -80 -221q-72 -66 -187 -66q-112 0 -179 58l-71 -72l-43 37l76 77q-50 73 -50 187q0 148 80 221q72 66 187 66q112 0 182 -61zM420 339l-199 -202q33 -37 83 -37q66 0 100 61q26 46 26 106q0 27 -10 72zM190 188
l201 204q-34 42 -87 42q-66 0 -100 -61q-26 -46 -26 -106q0 -33 12 -79z" />
    <glyph glyph-name="ugrave" unicode="&#xf9;" horiz-adv-x="611" 
d="M160 745h125l71 -150h-69zM547 542v-542h-140v67h-2q-45 -78 -132 -90q-88 1 -133 27q-76 44 -76 161v377h140v-336q0 -53 12 -73q21 -37 89 -32q95 7 102 91v350h140z" />
    <glyph glyph-name="uacute" unicode="&#xfa;" horiz-adv-x="611" 
d="M261 595l71 150h125l-127 -150h-69zM547 542v-542h-140v67h-2q-45 -78 -132 -90q-88 1 -133 27q-76 44 -76 161v377h140v-336q0 -53 12 -73q21 -37 89 -32q95 7 102 91v350h140z" />
    <glyph glyph-name="ucircumflex" unicode="&#xfb;" horiz-adv-x="611" 
d="M547 542v-542h-140v67h-2q-45 -78 -132 -90q-88 1 -133 27q-76 44 -76 161v377h140v-336q0 -53 12 -73q21 -37 89 -32q95 7 102 91v350h140zM256 745h107l103 -147h-78l-82 95l-82 -95h-76z" />
    <glyph glyph-name="udieresis" unicode="&#xfc;" horiz-adv-x="611" 
d="M547 542v-542h-140v67h-2q-45 -78 -132 -90q-88 1 -133 27q-76 44 -76 161v377h140v-336q0 -53 12 -73q21 -37 89 -32q95 7 102 91v350h140zM158 609v122h110v-122h-110zM344 731h110v-122h-110v122z" />
    <glyph glyph-name="yacute" unicode="&#xfd;" 
d="M231 595l71 150h125l-127 -150h-69zM9 542h155l117 -394l113 394h144l-230 -654q-9 -37 -41 -69q-37 -38 -183 -38v114q57 -5 88.5 15t31.5 60q0 15 -5 30z" />
    <glyph glyph-name="thorn" unicode="&#xfe;" horiz-adv-x="611" 
d="M58 -219v948h140v-261h2q38 88 153 83q113 -5 173 -97q54 -82 47 -201q-7 -117 -62 -193q-65 -88 -174 -83q-87 4 -139 77v-273h-140zM316 429q-59 0 -91 -57q-27 -47 -27 -110t27 -110q32 -57 91 -57q58 0 90 57q27 47 27 110t-27 110q-32 57 -90 57z" />
    <glyph glyph-name="ydieresis" unicode="&#xff;" 
d="M128 609v122h110v-122h-110zM314 731h110v-122h-110v122zM9 542h155l117 -394l113 394h144l-230 -654q-9 -37 -41 -69q-37 -38 -183 -38v114q57 -5 88.5 15t31.5 60q0 15 -5 30z" />
    <glyph glyph-name="dotlessi" unicode="&#x131;" horiz-adv-x="278" 
d="M67 542h140v-542h-140v542z" />
    <glyph glyph-name="Lslash" unicode="&#x141;" horiz-adv-x="611" 
d="M240 125h357v-125h-507v305l-90 -51v77l90 50v348h150v-262l104 59v-77l-104 -59v-265z" />
    <glyph glyph-name="lslash" unicode="&#x142;" horiz-adv-x="278" 
d="M60 376v353h131v-225l61 59v-78l-61 -60v-425h-131v297l-60 -60v79z" />
    <glyph glyph-name="OE" unicode="&#x152;" horiz-adv-x="1000" 
d="M953 602h-329v-166h300v-125h-300v-186h346v-125h-485v58q-32 -36 -50 -48q-48 -32 -113 -29q-58 3 -96 16q-54 19 -103 67q-95 93 -95 289q0 164 71 265q88 125 224 124q109 -1 156 -63h2v48h472v-125zM474 177v367q-8 27 -34 48q-32 26 -79 26q-11 0 -22 -1
q-71 -9 -116 -74q-19 -27 -32 -81q-14 -59 -14 -119q0 -89 32 -148q15 -28 45 -54q36 -31 72 -38q15 -3 28 -3q67 0 120 77z" />
    <glyph glyph-name="oe" unicode="&#x153;" horiz-adv-x="944" 
d="M919 228h-360q-3 -10 -3 -23q0 -36 20 -64q36 -50 95 -50q36 0 66.5 19t37.5 44h138q-20 -66 -83 -118q-68 -56 -146 -56q-140 0 -211 80q-64 -80 -205 -80q-67 0 -128 38t-88 98q-30 66 -30 156q0 64 12 99q62 180 248 180q84 0 130 -25q28 -16 63 -59q67 84 192 84
q140 0 206 -106q47 -75 47 -177q0 -16 -1 -40zM377 373q-34 61 -100 61t-100 -61q-26 -46 -26 -106t26 -106q34 -61 100 -61t100 61q26 46 26 106t-26 106zM559 332h224q5 38 -25 72q-34 39 -90 39q-102 0 -109 -111z" />
    <glyph glyph-name="Scaron" unicode="&#x160;" horiz-adv-x="667" 
d="M609 507h-141q2 47 -36 79q-41 35 -114 36q-125 2 -132 -84q-3 -35 9 -50q9 -12 37 -23q14 -15 183 -45q124 -22 171.5 -71t47.5 -129q0 -58 -25.5 -111.5t-67.5 -80.5q-75 -48 -228 -51q-36 -1 -83 11q-60 14 -96 40q-93 67 -102 188h146q0 -43 31 -75q44 -46 137 -43
q83 2 116 34q27 25 27 64q0 34 -24 59q-28 29 -126 48q-135 25 -160 34q-133 46 -133 174q0 14 1 28q9 92 75 145q71 57 199 57q173 0 246 -93q44 -56 44 -124q0 -10 -2 -17zM179 935h76l82 -95l82 95h78l-103 -147h-107z" />
    <glyph glyph-name="scaron" unicode="&#x161;" 
d="M119 745h76l82 -95l82 95h78l-103 -147h-107zM29 159h138q13 -43 45 -60q22 -11 77 -17q42 -5 65 13q20 16 20 41q0 39 -35 49l-174 50q-114 33 -116 132q-2 90 66 142q51 39 143 42q101 3 168 -40q80 -52 80 -144h-135q-1 29 -9 42q-10 17 -43 27q-28 9 -52 9
q-32 0 -61 -16q-22 -12 -22 -38q0 -27 33 -36l202 -55q40 -11 69 -45q32 -38 32 -86q0 -51 -24 -95q-31 -57 -93 -79q-58 -20 -136 -18q-77 2 -119 21q-116 51 -119 161z" />
    <glyph glyph-name="Ydieresis" unicode="&#x178;" horiz-adv-x="667" 
d="M188 796v122h110v-122h-110zM374 918h110v-122h-110v122zM482 729h168l-233 -459v-270h-150v270l-240 459h167l148 -314z" />
    <glyph glyph-name="Zcaron" unicode="&#x17d;" horiz-adv-x="611" 
d="M30 729h548v-125l-373 -479h373v-125h-548v125l372 479h-372v125zM149 935h76l82 -95l82 95h78l-103 -147h-107z" />
    <glyph glyph-name="zcaron" unicode="&#x17e;" horiz-adv-x="500" 
d="M89 745h76l82 -95l82 95h78l-103 -147h-107zM40 542h420v-115l-265 -312h273v-115h-447v115l268 312h-249v115z" />
    <glyph glyph-name="florin" unicode="&#x192;" 
d="M500 383h-137l-62 -397q-10 -67 -38 -117q-31 -57 -74.5 -73.5t-80.5 -16.5q-28 0 -53 9l-34 14l24 116q48 -18 62 -17q39 2 58 128l55 355l-115 -1v98h138q20 113 36 152q39 95 121 109q22 4 42 4q35 0 93 -18l-20 -115q-44 18 -68 14q-52 -8 -69 -146h122v-98z" />
    <glyph glyph-name="circumflex" unicode="&#x2c6;" horiz-adv-x="333" 
d="M116 745h107l103 -147h-78l-82 95l-82 -95h-76z" />
    <glyph glyph-name="caron" unicode="&#x2c7;" horiz-adv-x="333" 
d="M9 745h76l82 -95l82 95h78l-103 -147h-107z" />
    <glyph glyph-name="macron" unicode="&#x2c9;" horiz-adv-x="333" 
d="M16 717h299v-88h-299v88z" />
    <glyph glyph-name="breve" unicode="&#x2d8;" horiz-adv-x="333" 
d="M31 736h28q8 -48 58 -62q34 -10 83 1q56 12 64 61h31q4 -57 -38 -105q-45 -40 -94 -38q-49 -2 -94 38q-42 48 -38 105z" />
    <glyph glyph-name="dotaccent" unicode="&#x2d9;" horiz-adv-x="333" 
d="M112 729h110v-122h-110v122z" />
    <glyph glyph-name="ring" unicode="&#x2da;" horiz-adv-x="333" 
d="M77 655q0 38 26.5 64t63.5 26q38 0 64 -26t26 -64q0 -37 -26 -63.5t-64 -26.5q-37 0 -63.5 26.5t-26.5 63.5zM117 655q0 -21 14.5 -35.5t35.5 -14.5t35.5 14.5t14.5 35.5t-14.5 35.5t-35.5 14.5t-35.5 -14.5t-14.5 -35.5z" />
    <glyph glyph-name="ogonek" unicode="&#x2db;" horiz-adv-x="333" 
d="M81 38h81l-26 -72q-5 -15 -5 -29q0 -52 63 -50q48 1 71 21v-82q-64 -21 -95 -21q-16 0 -30 4q-101 21 -98 103q1 36 39 126z" />
    <glyph glyph-name="tilde" unicode="&#x2dc;" horiz-adv-x="333" 
d="M301 729h44q-9 -42 -29 -73q-33 -50 -86 -50q-11 0 -23 2l-95 38q-14 4 -25 4q-43 0 -52 -55h-44q10 29 21 59q26 48 77 59q16 3 28 3q19 0 99 -30q20 -8 35 -8q40 0 50 51z" />
    <glyph glyph-name="hungarumlaut" unicode="&#x2dd;" horiz-adv-x="333" 
d="M27 745h125l-127 -150h-69zM215 745h125l-127 -150h-69z" />
    <glyph glyph-name="commaarabic" unicode="&#x60c;" horiz-adv-x="223" 
d="M103 -10q-35 0 -54 22t-19 48q0 46 27 96t65 88l48 -32q-46 -51 -46 -112q0 -11 54 -28q-26 -82 -75 -82z" />
    <glyph glyph-name="semicolonarabic" unicode="&#x61b;" horiz-adv-x="253" 
d="M27 67q0 26 19.5 45.5t46.5 19.5q26 0 45.5 -19.5t19.5 -45.5q0 -28 -19 -47t-46 -19q-28 0 -47 19t-19 47zM93 167q-35 0 -54 22t-19 48q0 46 27 96t65 88l48 -32q-46 -51 -46 -112q0 -11 54 -28q-26 -82 -75 -82z" />
    <glyph glyph-name="questionarabic" unicode="&#x61f;" horiz-adv-x="315" 
d="M140 165q-3 41 -17 72.5t-32 51t-35 37.5t-29 41t-12 53q0 79 54.5 139.5t119.5 60.5q71 0 96.5 -49.5t6.5 -119.5h-50l-9 32q-54 0 -84.5 -18.5t-45.5 -68.5q75 -34 105 -83t30 -131zM131 66q0 26 19.5 45.5t46.5 19.5q26 0 45.5 -19.5t19.5 -45.5q0 -28 -19 -47
t-46 -19q-28 0 -47 19t-19 47z" />
    <glyph glyph-name="tatweelarabic" unicode="&#x640;" horiz-adv-x="125" 
d="M125 -10h-115q-8 0 -9 1t-1 9v130q0 8 1 9t9 1h115q7 0 8.5 -1t1.5 -9v-130q-7 -9 -10 -10z" />
    <glyph glyph-name="zeroarabic" unicode="&#x660;" horiz-adv-x="323" 
d="M161 95l-111 119l97 106h33l93 -109z" />
    <glyph glyph-name="onearabic" unicode="&#x661;" horiz-adv-x="255" 
d="M205 0l-73 -10q-26 172 -49 254.5t-73 203.5q50 40 81 67h50q42 -124 64 -333v-182z" />
    <glyph glyph-name="twoarabic" unicode="&#x662;" horiz-adv-x="378" 
d="M222 273l-30 13q4 -26 13 -104v-182l-73 -10q-26 172 -49 254.5t-73 203.5q50 40 81 67h44q9 -29 25 -87q19 -10 46 -10q70 0 114 97l48 -15q-4 -101 -47 -164t-99 -63z" />
    <glyph glyph-name="threearabic" unicode="&#x663;" horiz-adv-x="422" 
d="M296 276l-60 29q-21 -29 -42 -33q8 -57 11 -90v-182l-73 -10q-26 172 -49 254.5t-73 203.5q50 40 81 67h44q16 -50 27 -97q8 -2 21 -2q27 0 40 19.5t30 79.5l49 -11q-3 -42 -15 -85q7 -3 15 -3q25 0 37.5 23.5t23.5 75.5l49 -10q-3 -90 -38 -159.5t-78 -69.5z" />
    <glyph glyph-name="fourarabic" unicode="&#x664;" horiz-adv-x="312" 
d="M10 130q0 104 90 154q-27 10 -42.5 34.5t-15.5 50.5q0 63 44.5 104.5t117.5 41.5q27 0 59 -8q-6 -71 -11 -95q-84 -8 -126 -18q0 -37 23 -51.5t78 -14.5l13 -29l-23 -61q-7 -1 -86 -16q-22 -35 -2.5 -63.5t73.5 -28.5q40 0 90 11v-50q-62 -64 -122 -101q-61 0 -110.5 39
t-49.5 101z" />
    <glyph glyph-name="fivearabic" unicode="&#x665;" horiz-adv-x="308" 
d="M153 64q-57 0 -102.5 41t-45.5 118q0 140 123 245h50q60 -48 92.5 -113t32.5 -135q0 -76 -46 -116t-104 -40zM153 194q44 0 81 28q-21 62 -72 118h-20q-46 -56 -68 -118q33 -28 79 -28z" />
    <glyph glyph-name="sixarabic" unicode="&#x666;" horiz-adv-x="334" 
d="M226 -10h-50q-10 127 -10 182q0 107 31 192q-38 -16 -100 -16q-54 0 -92 26v136q75 -20 137 -20q58 0 118 19l34 -36q-35 -104 -35 -170q0 -137 65 -277z" />
    <glyph glyph-name="sevenarabic" unicode="&#x667;" horiz-adv-x="456" 
d="M220 -10h-51q-116 355 -169 459l74 61h50q57 -166 93 -354q41 194 102 354h50l73 -60q-50 -84 -79.5 -155.5t-111.5 -294.5z" />
    <glyph glyph-name="eightarabic" unicode="&#x668;" horiz-adv-x="456" 
d="M226 510h51q116 -355 169 -459l-74 -61h-50q-57 166 -93 354q-41 -194 -102 -354h-50l-73 60q50 84 79.5 155.5t111.5 294.5z" />
    <glyph glyph-name="ninearabic" unicode="&#x669;" horiz-adv-x="383" 
d="M225 -10q2 161 0 206q-37 -29 -81 -29q-53 0 -96 42t-43 111q0 70 40.5 130t112.5 60q101 0 130 -109q12 -43 38.5 -175.5t43.5 -199.5l-95 -36h-50zM171 285q28 0 49 7l-12 111q-70 -7 -121 -45q5 -38 28.5 -55.5t55.5 -17.5z" />
    <glyph glyph-name="percentarabic" unicode="&#x66a;" horiz-adv-x="381" 
d="M58 -214l198 823h77l-198 -823h-77zM10 382q0 30 21 51t52 21q29 0 50.5 -21.5t21.5 -50.5q0 -30 -21.5 -51.5t-50.5 -21.5q-31 0 -52 21t-21 52zM226 -28q0 30 21 51t52 21q29 0 50.5 -21.5t21.5 -50.5q0 -30 -21.5 -51.5t-50.5 -21.5q-31 0 -52 21t-21 52z" />
    <glyph glyph-name="decimalseparatorarabic" unicode="&#x66b;" horiz-adv-x="193" 
d="M71 -129l-48 32q46 51 46 102q0 13 -11.5 20.5t-42.5 17.5q26 82 75 82q35 0 54 -22t19 -48q0 -46 -27 -96t-65 -88z" />
    <glyph glyph-name="thousandsseparatorarabic" unicode="&#x66c;" horiz-adv-x="404" 
d="M176 -40l-48 32q46 51 46 102q0 13 -11.5 20.5t-42.5 17.5q26 82 75 82q35 0 54 -22t19 -48q0 -46 -27 -96t-65 -88z" />
    <glyph glyph-name="asteriskarabic" unicode="&#x66d;" horiz-adv-x="655" 
d="M488 382l129 -126l-131 -115l-120 120zM328 550l119 -130l-119 -121l-121 121zM166 382l122 -121l-121 -120l-129 120zM328 222l122 -122l-122 -133l-121 133z" />
    <glyph glyph-name="endash" unicode="&#x2013;" 
d="M-9 313h566v-105h-566v105z" />
    <glyph glyph-name="emdash" unicode="&#x2014;" horiz-adv-x="1000" 
d="M-7 313h1010v-105h-1010v105z" />
    <glyph glyph-name="quoteleft" unicode="&#x2018;" horiz-adv-x="278" 
d="M202 469h-135v117q0 85 71 126q18 10 64 17v-46q-41 -7 -63 -36q-26 -28 -14 -53h77v-125z" />
    <glyph glyph-name="quoteright" unicode="&#x2019;" horiz-adv-x="278" 
d="M66 729h135v-117q0 -85 -71 -126q-18 -10 -64 -17v46q41 7 63 36q26 28 14 53h-77v125z" />
    <glyph glyph-name="quotesinglbase" unicode="&#x201a;" horiz-adv-x="278" 
d="M66 125h135v-117q0 -85 -71 -126q-18 -10 -64 -17v46q41 7 63 36q26 28 14 53h-77v125z" />
    <glyph glyph-name="quotedblleft" unicode="&#x201c;" horiz-adv-x="500" 
d="M206 469h-135v117q0 85 71 126q18 10 64 17v-46q-41 -7 -63 -36q-26 -28 -14 -53h77v-125zM433 469h-135v117q0 85 71 126q18 10 64 17v-46q-41 -7 -63 -36q-26 -28 -14 -53h77v-125z" />
    <glyph glyph-name="quotedblright" unicode="&#x201d;" horiz-adv-x="500" 
d="M73 729h135v-117q0 -85 -71 -126q-18 -10 -64 -17v46q41 7 63 36q26 28 14 53h-77v125zM305 729h135v-117q0 -85 -71 -126q-18 -10 -64 -17v46q41 7 63 36q26 28 14 53h-77v125z" />
    <glyph glyph-name="quotedblbase" unicode="&#x201e;" horiz-adv-x="500" 
d="M72 141h135v-162q0 -85 -71 -126q-18 -10 -64 -17v46q41 7 63 36q23 24 14 82h-77v141zM297 141h135v-162q0 -85 -71 -126q-18 -10 -64 -17v46q41 7 63 36q23 24 14 82h-77v141z" />
    <glyph glyph-name="dagger" unicode="&#x2020;" 
d="M348 368v-563h-136v563h-181v116h181v224h136v-224h175v-116h-175z" />
    <glyph glyph-name="daggerdbl" unicode="&#x2021;" 
d="M209 484v224h136v-224h175v-116h-175v-219h175v-116h-175v-228h-136v228h-181v116h181v219h-181v116h181z" />
    <glyph glyph-name="bullet" unicode="&#x2022;" horiz-adv-x="350" 
d="M300 300q0 -52 -36.5 -88.5t-88.5 -36.5t-88.5 36.5t-36.5 88.5t36.5 88.5t88.5 36.5t88.5 -36.5t36.5 -88.5z" />
    <glyph glyph-name="ellipsis" unicode="&#x2026;" horiz-adv-x="640" 
d="M475 150q37 0 72 -22q38 -24 38 -56q0 -13 -75 -54q-28 -15 -35 -15q-14 0 -86 50q-69 -50 -91 -50q-17 0 -87 50q-70 -50 -90 -50q-9 0 -57 30.5t-48 35.5q0 12 73 63q26 18 32 18q10 0 90 -62q14 13 43 35q35 27 44 27q12 0 90 -62q68 62 87 62z" />
    <glyph glyph-name="perthousand" unicode="&#x2030;" horiz-adv-x="1000" 
d="M143 -20h-67l421 765h69zM11 595q0 62 44 106t106 44t106 -44t44 -106t-44 -106t-106 -44t-106 44t-44 106zM91 595q0 -29 20.5 -49.5t49.5 -20.5t49.5 20.5t20.5 49.5t-20.5 49.5t-49.5 20.5t-49.5 -20.5t-20.5 -49.5zM321 130q0 62 44 106t106 44t106 -44t44 -106
t-44 -106t-106 -44t-106 44t-44 106zM401 130q0 -29 20.5 -49.5t49.5 -20.5t49.5 20.5t20.5 49.5t-20.5 49.5t-49.5 20.5t-49.5 -20.5t-20.5 -49.5zM690 130q0 62 44 106t106 44t106 -44t44 -106t-44 -106t-106 -44t-106 44t-44 106zM770 130q0 -29 20.5 -49.5t49.5 -20.5
t49.5 20.5t20.5 49.5t-20.5 49.5t-49.5 20.5t-49.5 -20.5t-20.5 -49.5z" />
    <glyph glyph-name="guilsinglleft" unicode="&#x2039;" horiz-adv-x="333" 
d="M83 214v123l167 139v-110l-104 -88l104 -89v-116z" />
    <glyph glyph-name="guilsinglright" unicode="&#x203a;" horiz-adv-x="333" 
d="M247 337v-123l-167 -141v116l104 89l-104 88v110z" />
    <glyph glyph-name="trademark" unicode="&#x2122;" horiz-adv-x="1000" 
d="M929 745v-404h-88v326l-119 -326h-52l-119 326v-326h-88v404h142l91 -239l91 239h142zM414 745v-78h-123v-326h-97v326h-123v78h343z" />
    <glyph glyph-name="minus" unicode="&#x2212;" horiz-adv-x="584" 
d="M40 174v116h504v-116h-504z" />
    <glyph glyph-name="fraction" unicode="&#x2215;" horiz-adv-x="167" 
d="M-173 -20l423 735h87l-425 -735h-85z" />
    <glyph glyph-name="periodcentered" unicode="&#x2219;" horiz-adv-x="278" 
d="M64 380q0 26 18.5 44t43.5 18q26 0 44 -18t18 -44q0 -25 -18 -43.5t-44 -18.5q-25 0 -43.5 18.5t-18.5 43.5z" />
    <glyph glyph-name="fi" unicode="&#xf001;" horiz-adv-x="611" 
d="M9 438v93h76v63q0 135 132 135h87v-104h-49q-30 0 -30 -37v-57h83v-93h-83v-438h-140v438h-76zM408 729h140v-125h-140v125zM408 542h140v-542h-140v542z" />
    <glyph glyph-name="fl" unicode="&#xf002;" horiz-adv-x="611" 
d="M12 438v93h76v63q0 135 132 135h87v-104h-49q-30 0 -30 -37v-57h83v-93h-83v-438h-140v438h-76zM406 729h140v-729h-140v729z" />
    <glyph glyph-name="glyph12" horiz-adv-x="500" 
 />
    <glyph glyph-name="kashidaautoarabic" horiz-adv-x="86" 
 />
    <glyph glyph-name="alefmaksurainitialarabic" horiz-adv-x="364" 
 />
    <glyph glyph-name="divide" horiz-adv-x="451" 
d="M219 439q26 0 42 -14q18 -15 18 -41q0 -23 -18 -37q-17 -13 -40 -13t-40 14q-18 15 -18 38q0 24 16 39q16 14 40 14zM395 275v-63h-349v63h349zM222 152q23 0 39 -13q18 -14 18 -36q0 -56 -59 -56q-25 0 -41 15t-16 39q0 23 18 38q17 13 41 13z" />
    <glyph glyph-name="glyph418" horiz-adv-x="0" 
 />
  </font>
</defs>
</svg>
