<?xml version="1.0" encoding="utf-8"?>
<!-- Generator: Adobe Illustrator 22.0.1, SVG Export Plug-In . SVG Version: 6.00 Build 0)  -->
<svg version="1.1" id="Layer_1" xmlns="http://www.w3.org/2000/svg" xmlns:xlink="http://www.w3.org/1999/xlink" x="0px" y="0px"
	 viewBox="0 0 512 490.2" style="enable-background:new 0 0 512 490.2;" xml:space="preserve">
<style type="text/css">
	.st0{fill:#FFFFFF;}
</style>
<g>
	<circle class="st0" cx="148.8" cy="82.1" r="82.1"/>
	<path class="st0" d="M375.9,218c-75,0-136.1,61-136.1,136.1s61,136.1,136.1,136.1S512,429.1,512,354.1S451,218,375.9,218z
		 M460.1,374.6h-63.6v63.6h-41.1v-63.6h-63.6v-41.1h63.6v-63.6h41.1v63.6h63.6V374.6z"/>
	<path class="st0" d="M148.8,205.3C66.6,205.3,0,271.9,0,354.1h198.8c0-44.3,16.3-84.8,43.3-115.9
		C216.6,217.6,184.2,205.3,148.8,205.3z"/>
</g>
</svg>
