<?xml version="1.0" standalone="no"?>
<!DOCTYPE svg PUBLIC "-//W3C//DTD SVG 1.1//EN" "http://www.w3.org/Graphics/SVG/1.1/DTD/svg11.dtd" >
<svg xmlns="http://www.w3.org/2000/svg">
<metadata>Generated by IcoMoon</metadata>
<defs>
<font id="icomoon" horiz-adv-x="1024">
<font-face units-per-em="1024" ascent="960" descent="-64" />
<missing-glyph horiz-adv-x="1024" />
<glyph unicode="&#x20;" horiz-adv-x="512" d="" />
<glyph unicode="&#xe900;" glyph-name="dark-eye" d="M512 734.72c-335.904 0-512-247.485-512-286.72 0-39.246 176.096-286.72 512-286.72 335.883 0 512 247.474 512 286.72 0 39.235-176.117 286.72-512 286.72zM512 227.441c-125.672 0-227.565 98.746-227.565 220.559s101.893 220.559 227.565 220.559 227.554-98.746 227.554-220.559-101.883-220.559-227.554-220.559zM625.772 448c0-60.901-50.952-110.29-113.772-110.29-62.841 0-113.772 49.389-113.772 110.29s50.931 110.279 113.772 110.279c33.954 0-20.836-87.396 0-110.279 17.71-19.434 113.772 27.971 113.772 0z" />
<glyph unicode="&#xe901;" glyph-name="report-symbol" d="M718.497 957.171h-418.652l-299.845-299.845v-424.309l299.845-294.188h424.309l299.843 299.845v418.652l-305.501 299.845zM509.171 148.155c-39.602 0-73.547 33.947-73.547 73.547s33.945 73.547 73.547 73.547c39.602 0 73.547-33.947 73.547-73.547s-33.945-73.547-73.547-73.547zM565.746 391.425h-113.149v339.448h113.149v-339.448z" />
<glyph unicode="&#xe902;" glyph-name="share" d="M815.729 283.119c-46.358 0-89.938-18.050-122.724-50.836-9.095-9.095-16.922-19.092-23.691-29.661l-299.911 182.046c7.932 19.855 12.427 41.446 12.427 64.095s-4.495 44.24-12.409 64.095l299.98 180.658c30.824-48.388 84.818-80.636 146.328-80.636 95.701 0 173.559 77.859 173.559 173.559s-77.859 173.559-173.559 173.559-173.559-77.859-173.559-173.559c0-21.799 4.217-42.591 11.576-61.822l-300.362-180.901c-31.032 47.278-84.454 78.605-145.113 78.605-95.701 0-173.559-77.859-173.559-173.559s77.859-173.559 173.559-173.559c60.659 0 114.063 31.327 145.096 78.605l300.327-182.289c-7.463-19.543-11.524-40.422-11.524-61.961 0-46.358 18.050-89.956 50.836-122.724 32.785-32.785 76.366-50.836 122.724-50.836s89.938 18.050 122.724 50.836c32.785 32.768 50.836 76.366 50.836 122.724s-18.050 89.956-50.836 122.724c-32.785 32.785-76.366 50.836-122.724 50.836z" />
<glyph unicode="&#xe903;" glyph-name="add-a-contact-on-phone-interface-symbol-of-a-user-with-a-plus-sign" d="M446.906 416.837c149.927 0 271.538 121.654 271.538 271.43 0 150.056-121.589 271.732-271.538 271.732-150.034 0-271.475-121.698-271.475-271.732 0-149.777 121.419-271.43 271.475-271.43zM790.102 342.312c-14.34 30.713-32.405 61.598-55.476 91.068-12.413 15.795-35.057 33.132-56.951 45.008-56.761-63.608-139.033-103.889-230.769-103.889-91.668 0-173.92 40.281-230.616 103.741-21.402-12.158-43.448-29.495-55.454-45.245-38.954-50.832-99.074-149.351-108.663-282.113-2.012-28.018 11.323-70.801 34.737-87.131 44.433-31.1 140.273-70.886 339.834-70.886 69.089 0 127.305 4.259 176.51 10.893-19.862 33.495-31.483 72.449-31.483 114.142-0.022 121.763 97.382 220.988 218.331 224.412zM790.102 299.848c-100.467 0-181.924-81.46-181.924-181.924s81.46-181.922 181.924-181.922 181.924 81.46 181.924 181.922c0 100.464-81.44 181.924-181.924 181.924zM879.908 84.449h-70.179v-70.202c0-11.621-9.439-21.037-21.059-21.037s-21.062 9.416-21.062 21.037v70.179l-70.177 0.022c-11.643-0.022-21.062 9.394-21.039 21.019 0 11.641 9.416 21.059 21.039 21.059h70.199v70.179c0 11.621 9.418 21.037 21.039 21.019 11.601 0 21.037-9.396 21.059-21.039v-70.159h70.159c11.621 0 21.039-9.418 21.062-21.062-0.002-11.601-9.421-21.017-21.041-21.017z" />
<glyph unicode="&#xe904;" glyph-name="add-house" d="M1014.129 380.006l-226.173 226.19v149.167c0 18.58-15.093 33.658-33.674 33.658s-33.658-15.077-33.658-33.658v-81.885l-159.578 159.595c-13.145 13.129-34.443 13.129-47.556 0l-208.804-208.788c-13.162-13.129-13.162-34.443 0-47.589 13.145-13.129 34.443-13.129 47.556 0l185.002 184.985 429.28-429.264c6.581-6.548 15.192-9.871 23.786-9.871 8.627 0 17.254 3.29 23.803 9.871 13.178 13.129 13.178 34.443 0.016 47.589zM917.854 341.355l-356.825 356.809c-6.303 6.319-14.848 9.871-23.786 9.871-8.922 0-17.451-3.552-23.77-9.871l-137.102-137.102c90.757-45.264 155.748-134.499 166.945-239.777 27.748-5.533 48.44-30.023 48.44-58.999v-127.885c0-20.496 7.727-40.075 21.707-55.217 15.355-16.6 37.112-26.127 59.67-26.127h174.164c44.822 0 81.344 36.49 81.344 81.344v174.099c0 5.108-0.475 10.297-1.506 15.421-1.277 6.63-4.518 12.687-9.282 17.434zM254.789 562.634c-140.736 0-254.789-114.102-254.789-254.789 0-140.72 114.069-254.772 254.789-254.772s254.789 114.085 254.789 254.756c0.016 140.72-114.052 254.805-254.789 254.805zM338.261 265.757h-41.401v-41.352c0-23.246-18.826-42.039-42.056-42.039-23.246 0-42.056 18.793-42.056 42.039v41.352h-41.401c-23.23 0-42.056 18.826-42.056 42.056s18.826 42.056 42.056 42.056h41.401v41.352c0 23.213 18.81 42.056 42.056 42.056 23.23 0 42.056-18.842 42.056-42.056v-41.352h41.401c23.23 0 42.039-18.826 42.039-42.056s-18.81-42.056-42.039-42.056z" />
<glyph unicode="&#xe905;" glyph-name="eye2" d="M1006.407 470.243c-2.067 2.618-51.683 64.859-136.744 127.351-113.666 83.51-237.345 127.652-357.666 127.652-120.317 0-243.996-44.141-357.666-127.652-85.059-62.49-134.675-124.733-136.744-127.351l-17.586-22.242 17.588-22.244c2.069-2.618 51.685-64.862 136.744-127.354 113.67-83.508 237.35-127.649 357.666-127.649 120.319 0 243.998 44.141 357.664 127.649 85.062 62.492 134.677 124.735 136.744 127.354l17.593 22.244-17.593 22.242zM511.997 253.775c-107.095 0-194.226 87.128-194.226 194.226 0 16.779 2.139 33.067 6.158 48.609l-44.343 7.463c-4.344-17.99-6.649-36.766-6.649-56.072 0-69.179 29.55-131.579 76.675-175.272-60.663 22.408-112.247 53.852-151.178 82.291-48.233 35.228-84.38 70.858-104.988 92.981 20.617 22.13 56.76 57.755 104.988 92.981 38.932 28.438 90.518 59.883 151.178 82.293l29.747-33.531c34.742 32.532 81.401 52.483 132.637 52.483 107.095 0 194.224-87.128 194.224-194.226s-87.128-194.226-194.224-194.226zM825.56 355.020c-38.936-28.438-90.518-59.883-151.178-82.291 47.123 43.691 76.673 106.091 76.673 175.274s-29.55 131.581-76.673 175.274c60.663-22.41 112.242-53.855 151.178-82.293 48.233-35.228 84.38-70.858 104.988-92.979-20.617-22.135-56.76-57.762-104.988-92.986zM388.4 485.756c-3.645-11.946-5.62-24.618-5.62-37.757 0-71.362 57.852-129.216 129.216-129.216 71.362 0 129.214 57.852 129.214 129.216s-57.852 129.216-129.214 129.216c-34.76 0-66.289-13.751-89.516-36.078l63.736-71.842-97.817 16.461z" />
<glyph unicode="&#xe906;" glyph-name="favorite-heart-button" d="M512-23.040l-71.68 71.68c-266.24 235.52-440.32 394.24-440.32 588.8 0 158.72 122.88 281.6 281.6 281.6 87.040 0 174.080-40.96 230.4-107.52 56.32 66.56 143.36 107.52 230.4 107.52 158.72 0 281.6-122.88 281.6-281.6 0-194.56-174.080-353.28-440.32-588.8l-71.68-71.68z" />
<glyph unicode="&#xe907;" glyph-name="icon" d="M92.988 102.209v670.363h-74.957c-9.919 0-18.031-8.077-18.031-18.031v-740.325c0-9.99 8.112-18.102 18.031-18.102h855.665c9.954 0 18.066 8.112 18.066 18.102v69.927h-780.673c-10.096 0-18.102 8.148-18.102 18.066zM1005.898 899.85h-855.559c-9.99 0-18.031-8.112-18.031-18.031v-740.29c0-9.99 8.077-18.172 18.031-18.172h855.595c9.954 0 18.066 8.148 18.066 18.172v740.29c-0.035 9.919-8.112 18.031-18.102 18.031zM371.987 832.545c52.923 0 95.928-42.969 95.928-95.999 0-53.1-43.005-95.893-95.928-95.893-52.994 0-95.963 42.792-95.963 95.893 0 53.030 42.969 95.999 95.963 95.999zM965.303 346.953h-764.413v7.368l150.835 172.337 84.876-57.245 98.904 169.504 114.915-81.475 103.863 215.271 211.020-417.755v-8.006z" />
<glyph unicode="&#xe908;" glyph-name="label" d="M732.042 668.024c8.572-8.572 22.478-8.572 31.038 0l254.488 254.498c8.572 8.572 8.572 22.466 0 31.050-8.56 8.572-22.466 8.572-31.038 0l-254.488-254.498c-8.582-8.572-8.582-22.478 0-31.050zM951.969 475.536l-27.911 306.894-76.619-76.619c4.456-28.448-4.225-58.565-26.144-80.482-36.427-36.427-95.498-36.439-131.925 0-36.427 36.427-36.427 95.508 0 131.935 21.917 21.917 52.013 30.588 80.451 26.144l76.641 76.641-306.906 27.912c-12.072 1.086-24.014-3.228-32.597-11.809l-494.992-494.992c-15.947-15.959-15.959-41.817 0-57.764l110.105-110.116 54.329 54.329 155.214-155.214-54.317-54.317 110.105-110.105c15.959-15.959 41.805-15.959 57.752 0l495.025 494.992c8.552 8.58 12.864 20.522 11.789 32.572z" />
<glyph unicode="&#xe909;" glyph-name="link2" d="M624.794 560.87c-12.13 12.202-25.579 23.018-40.099 32.25-38.457 24.626-83.165 37.711-128.831 37.711-63.383 0.118-124.19-25.065-168.93-69.961l-217.049-217.219c-44.664-44.75-69.767-105.381-69.807-168.606-0.084-131.936 106.801-238.959 238.737-239.043 63.285-0.22 124.036 24.844 168.76 69.619l179.168 179.168c3.255 3.227 5.073 7.631 5.047 12.214-0.054 9.424-7.739 17.019-17.163 16.965h-6.825c-37.433-0.132-74.533 7.057-109.206 21.158-6.389 2.63-13.732 1.146-18.599-3.753l-128.831-129.001c-40.005-40.005-104.865-40.005-144.87 0s-40.005 104.865 0 144.87l217.903 217.731c39.973 39.923 104.727 39.923 144.7 0 26.939-25.353 68.96-25.353 95.897 0 11.59 11.6 18.617 26.985 19.794 43.342 1.246 19.546-5.963 38.689-19.796 52.555zM953.951 890.027c-93.297 93.297-244.562 93.297-337.859 0l-178.998-178.826c-4.915-4.939-6.333-12.368-3.583-18.771 2.718-6.421 9.068-10.542 16.039-10.408h6.313c37.389 0.068 74.429-7.177 109.036-21.33 6.389-2.63 13.732-1.146 18.599 3.753l128.489 128.319c40.005 40.005 104.865 40.005 144.87 0s40.005-104.865 0-144.87l-160.057-159.885-1.366-1.536-55.968-55.628c-39.973-39.923-104.727-39.923-144.7 0-26.939 25.353-68.96 25.353-95.897 0-11.664-11.688-18.697-27.207-19.794-43.682-1.248-19.546 5.961-38.689 19.794-52.557 19.75-19.834 42.858-36.010 68.254-47.777 3.583-1.706 7.167-3.071 10.75-4.607s7.337-2.73 10.92-4.095c3.583-1.366 7.337-2.56 10.92-3.583l10.068-2.73c6.825-1.706 13.652-3.071 20.646-4.265 8.426-1.252 16.913-2.050 25.425-2.39h12.968l10.238 1.194c3.753 0.17 7.679 1.024 12.116 1.024h5.801l11.774 1.706 5.461 1.024 9.896 2.048h1.878c41.914 10.528 80.188 32.23 110.742 62.795l217.219 217.219c93.303 93.297 93.303 244.562 0.006 337.859z" />
<glyph unicode="&#xe90a;" glyph-name="user2" d="M461.854 773.939c0-90.693-73.521-164.215-164.215-164.215s-164.215 73.521-164.215 164.215c0 90.693 73.521 164.215 164.215 164.215s164.215-73.521 164.215-164.215zM751.871 502.106c-150.054 0-272.131-122.077-272.131-272.129s122.077-272.131 272.131-272.131c150.054 0 272.131 122.077 272.131 272.131s-122.077 272.129-272.131 272.129zM920.192 188.924h-127.267v-127.267h-82.107v127.267h-127.267v82.107h127.267v127.267h82.107v-127.267h127.267v-82.107zM297.639 527.617c-164.382 0-297.639-133.258-297.639-297.639h397.633c0 88.577 32.681 169.664 86.615 231.841-51.046 41.144-115.938 65.798-186.608 65.798z" />
<glyph unicode="&#xe90b;" glyph-name="mapit" horiz-adv-x="2296" d="M315.33 12.91c0 4.944-2.747 32.412-39.554 32.412-20.326 0-39.004-10.438-39.004-32.961 0-14.283 9.339-21.425 24.172-25.27l20.326-4.944c14.833-3.845 20.326-6.592 20.326-14.833 0-11.536-11.536-16.481-23.622-16.481-24.721 0-26.918 13.185-27.468 21.425h-17.030c0.549-12.635 3.296-36.258 44.498-36.258 23.073 0 41.202 12.635 41.202 34.060 0 14.283-7.691 21.974-29.116 27.468l-17.579 4.395c-13.185 3.296-18.678 5.494-18.678 13.734 0 12.635 15.382 14.833 20.326 14.833 21.974 0 24.172-10.987 24.721-17.579h16.481zM332.91-9.064c0-26.918 14.833-54.386 47.794-54.386s47.794 28.017 47.794 54.386c0 26.918-14.833 54.386-47.794 54.386s-47.794-28.017-47.794-54.386zM350.489-9.064c0 13.734 4.944 39.554 30.215 39.554 24.721 0 30.215-25.82 30.215-39.554s-4.944-39.554-30.215-39.554c-24.721 0-30.215 25.27-30.215 39.554zM532.326-61.253v103.828h-17.579v-57.133c0-14.833-6.592-34.609-28.567-34.609-11.536 0-19.777 5.494-19.777 22.524v69.219h-17.579v-74.163c0-24.721 18.129-31.863 33.511-31.863 16.481 0 25.27 6.592 32.961 18.129l0.549-0.549v-14.833h16.481zM578.472-0.824c0 14.833 10.438 27.468 26.369 27.468h6.592v18.129c-1.648 0.549-2.197 0.549-4.395 0.549-13.185 0-21.974-8.24-29.116-20.326h-0.549v17.579h-16.481v-103.279h17.579v59.88zM705.923 7.416c-1.648 18.129-11.536 37.906-39.004 37.906-34.060 0-49.442-25.27-49.442-57.682 0-29.665 17.030-51.639 46.146-51.639 30.215 0 40.103 23.073 42.3 39.554h-17.030c-2.747-15.931-13.185-24.721-24.721-24.721-24.172 0-28.017 21.974-28.017 39.554 0 18.129 7.142 39.004 28.567 39.004 14.833 0 22.524-8.24 24.721-21.974h16.481zM793.82-28.841c-0.549-7.691-10.438-20.326-26.918-20.326-19.777 0-30.215 12.635-30.215 34.060h75.811c0 36.807-14.833 60.429-44.498 60.429-34.060 0-49.442-25.27-49.442-57.682 0-29.665 17.030-51.639 46.146-51.639 16.481 0 23.073 3.845 28.017 7.142 13.185 8.79 17.579 23.073 18.129 28.017h-17.030zM736.687-1.373c0 15.931 12.635 30.764 28.567 30.764 21.425 0 28.017-14.833 29.116-30.764h-57.682zM927.313 27.742v14.833h-17.579v12.635c0 8.24 2.747 12.086 10.438 12.086 2.197 0 4.944 0 7.142-0.549v15.382c-2.747 0-5.494 0.549-7.691 0.549-17.030 0-26.918-7.142-26.918-22.524v-17.579h-14.283v-14.283h14.283v-88.996h17.579v88.996h17.030zM931.159-9.064c0-26.918 14.833-54.386 47.794-54.386s47.794 28.017 47.794 54.386c0 26.918-14.833 54.386-47.794 54.386-32.412 0-47.794-28.017-47.794-54.386zM949.288-9.064c0 13.734 4.944 39.554 30.215 39.554 24.721 0 30.215-25.82 30.215-39.554s-4.944-39.554-30.215-39.554c-25.27 0-30.215 25.27-30.215 39.554zM1066.85-0.824c0 14.833 10.438 27.468 26.369 27.468h6.592v18.129c-1.648 0.549-2.197 0.549-4.395 0.549-13.185 0-21.974-8.24-29.116-20.326h-0.549v17.579h-16.481v-103.279h17.579v59.88zM1187.708-0.824c0 14.833 10.438 27.468 26.369 27.468h6.592v18.129c-1.648 0.549-2.197 0.549-4.395 0.549-13.185 0-21.974-8.24-29.116-20.326h-0.549v17.579h-16.481v-103.279h17.579v59.88zM1304.172-28.841c-0.549-7.691-10.438-20.326-26.918-20.326-19.777 0-30.215 12.635-30.215 34.060h75.811c0 36.807-14.833 60.429-44.498 60.429-34.060 0-49.442-25.27-49.442-57.682 0-29.665 17.030-51.639 46.146-51.639 16.481 0 23.073 3.845 28.017 7.142 13.185 8.79 17.579 23.073 18.129 28.017h-17.030zM1247.588-1.373c0 15.931 12.635 30.764 28.567 30.764 21.425 0 28.017-14.833 29.116-30.764h-57.682zM1359.107 10.712c1.099 7.691 3.845 19.777 23.622 19.777 16.481 0 24.172-6.043 24.172-17.030 0-10.438-4.944-12.086-9.339-12.086l-28.567-3.296c-29.116-3.296-31.313-23.622-31.313-32.412 0-17.579 13.185-29.665 32.412-29.665 20.326 0 30.764 9.339 37.356 17.030 0.549-7.691 2.747-15.931 18.129-15.931 3.845 0 6.592 1.099 9.339 2.197v12.635c-2.197-0.549-4.395-0.549-5.494-0.549-3.296 0-5.494 1.648-5.494 6.043v59.33c0 26.369-30.215 29.116-38.455 29.116-25.27 0-41.751-9.888-42.85-34.609h16.481zM1406.901-25.545c0-13.734-15.931-24.172-31.863-24.172-13.185 0-18.678 6.592-18.678 18.129 0 13.185 13.734 15.382 21.974 17.030 21.425 2.747 25.82 4.395 28.567 6.592v-17.579zM1471.725 81.030h-17.579v-141.734h17.579v141.734zM1622.798-28.841c-0.549-7.691-10.438-20.326-26.918-20.326-19.777 0-30.215 12.635-30.215 34.060h75.811c0 36.807-14.833 60.429-44.498 60.429-34.060 0-49.442-25.27-49.442-57.682 0-29.665 17.030-51.639 46.146-51.639 16.481 0 23.073 3.845 28.017 7.142 13.185 8.79 17.579 23.073 18.129 28.017h-17.030zM1566.215-1.373c0 15.931 12.635 30.764 28.567 30.764 21.425 0 28.017-14.833 29.116-30.764h-57.682zM1738.163 12.91c0 4.944-2.747 32.412-39.554 32.412-20.326 0-39.004-10.438-39.004-32.961 0-14.283 9.339-21.425 24.172-25.27l20.326-4.944c14.833-3.845 20.326-6.592 20.326-14.833 0-11.536-11.536-16.481-23.622-16.481-24.721 0-26.918 13.185-27.468 21.425h-17.030c0.549-12.635 3.296-36.258 44.498-36.258 23.073 0 41.202 12.635 41.202 34.060 0 14.283-7.691 21.974-29.116 27.468l-17.579 4.395c-13.185 3.296-18.678 5.494-18.678 13.734 0 12.635 15.382 14.833 20.326 14.833 21.974 0 24.172-10.987 24.721-17.579h16.481zM1799.691 27.742v14.833h-16.481v29.116h-17.579v-29.116h-14.283v-14.283h14.283v-68.12c0-12.635 3.845-21.974 20.876-21.974 1.648 0 6.592 0.549 13.185 1.648v13.734h-6.043c-3.296 0-10.438 0-10.438 8.24v67.021h16.481zM1832.103 10.712c1.099 7.691 3.845 19.777 23.622 19.777 16.481 0 24.172-6.043 24.172-17.030 0-10.438-4.944-12.086-9.339-12.086l-28.567-3.296c-29.116-3.296-31.313-23.622-31.313-32.412 0-17.579 13.185-29.665 32.412-29.665 20.326 0 30.764 9.339 37.356 17.030 0.549-7.691 2.747-15.931 18.129-15.931 3.845 0 6.592 1.099 9.339 2.197v12.635c-2.197-0.549-4.395-0.549-5.494-0.549-3.296 0-5.494 1.648-5.494 6.043v59.33c0 26.369-30.215 29.116-38.455 29.116-25.27 0-41.751-9.888-42.85-34.609h16.481zM1879.348-25.545c0-13.734-15.931-24.172-31.863-24.172-13.185 0-18.678 6.592-18.678 18.129 0 13.185 13.734 15.382 21.974 17.030 21.425 2.747 25.82 4.395 28.567 6.592v-17.579zM1964.498 27.742v14.833h-16.481v29.116h-17.579v-29.116h-14.283v-14.283h14.283v-68.12c0-12.635 3.845-21.974 20.876-21.974 1.648 0 6.592 0.549 13.185 1.648v13.734h-6.043c-3.296 0-10.438 0-10.438 8.24v67.021h16.481zM2051.845-28.841c-0.549-7.691-10.438-20.326-26.918-20.326-19.777 0-30.215 12.635-30.215 34.060h75.811c0 36.807-14.833 60.429-44.498 60.429-34.060 0-49.442-25.27-49.442-57.682 0-29.665 17.030-51.639 46.146-51.639 16.481 0 23.073 3.845 28.017 7.142 13.185 8.79 17.579 23.073 18.129 28.017h-17.030zM1995.262-1.373c0 15.931 12.635 30.764 28.567 30.764 21.425 0 28.017-14.833 29.116-30.764h-57.682zM1597.528 598.524l-191.725-404.876c-5.494-11.536-13.734-20.326-25.27-27.468-10.987-6.592-23.073-9.888-35.708-9.888s-24.721 3.296-35.708 9.888c-2.197 1.099-4.395 2.747-6.043 4.395v221.391c34.609 0 67.021 3.845 97.236 11.536s56.584 19.777 79.107 35.708c22.524 16.481 40.103 37.356 53.288 63.725s19.777 58.232 19.777 95.588c0 37.356-6.592 69.219-19.777 95.588s-30.764 47.794-53.288 63.725c-22.524 16.481-48.893 28.017-79.107 35.708s-62.627 11.536-97.236 11.536h-173.047v-285.116l-36.807 78.558c-11.536 24.172-17.579 55.485-17.579 93.94 0 74.163 26.369 137.339 79.107 189.528 52.738 51.639 115.914 78.009 190.627 78.009s137.888-26.369 190.627-78.558c52.738-52.189 79.107-115.365 79.107-189.528 0-37.906-6.043-69.219-17.579-93.391zM1360.206 643.021c9.888-10.438 14.833-25.27 14.833-44.498s-4.944-33.511-14.833-44.498c-9.888-10.438-26.369-15.931-49.442-15.931h-7.142v120.858h7.142c22.524 0 39.004-5.494 49.442-15.931zM0 806.18h142.833l137.339-203.262 137.339 203.262h148.326v-543.863h-175.794v192.275l-109.871-159.313-109.871 159.313v-192.275h-170.3v543.863zM576.824 262.318h170.3l21.974 49.442h164.807l16.481-49.442h170.3l-203.262 543.863h-131.845l-208.755-543.863zM846.009 526.009l38.455-93.391h-71.416l32.961 93.391zM1703.004 806.18h186.781v-543.863h-186.781v543.863zM1917.253 806.18h379.056v-142.833h-104.378v-401.030h-175.794v401.030h-98.884v142.833z" />
<glyph unicode="&#xe90c;" glyph-name="arrow" d="M465.415 261.769l186.341 186.122-186.341 186.341v-139.646h-465.415v-93.17h465.415zM931.048 866.393h-837.878c-51.495 0-93.17-41.676-93.17-92.952v-185.686h93.17v186.559h837.878v-653.065h-837.878v187.213h-93.17v-186.559c0-51.495 41.676-92.079 93.17-92.079h837.878c51.495 0 93.17 41.021 93.17 92.079v651.537c-0.218 51.276-41.894 92.952-93.17 92.952z" />
<glyph unicode="&#xe90d;" glyph-name="arrowSubMenu" d="M690.941 214.238l330.99 575.095h-1021.931l332.024-575.095c79.644-137.568 279.273-137.568 358.917 0z" />
<glyph unicode="&#xe90e;" glyph-name="close-envelope" d="M512 301.714l-124.343 109.714-365.714-307.2c14.629-14.629 29.257-21.943 51.2-21.943h877.714c21.943 0 36.571 7.314 51.2 21.943l-365.714 307.2-124.343-109.714zM1002.057 791.771c-14.629 14.629-29.257 21.943-51.2 21.943h-877.714c-21.943 0-36.571-7.314-51.2-21.943l490.057-416.914 490.057 416.914zM0 747.886v-607.086l351.086 299.886zM672.914 440.686l351.086-299.886v607.086z" />
<glyph unicode="&#xe90f;" glyph-name="facebook" d="M0 960v-1024h1024v1024h-1024zM677.415 678.231h-80.12c-15.754 0-31.958-16.429-31.958-28.582v-81.695h111.627c-4.501-62.565-13.728-119.729-13.728-119.729h-98.349v-354.687h-146.961v354.687h-71.342v119.279h71.567v97.674c0 17.779-3.601 137.284 150.562 137.284h108.702v-124.23z" />
<glyph unicode="&#xe910;" glyph-name="male-telemarketer" d="M314.991 503.652c47.026-103.513 147.2-148.591 197.009-148.591 32.835 0 87.374 19.478 134.4 62.33-17.252-1.113-35.617-1.67-55.096-1.67-4.73 0-9.461 0-14.47 0-9.739-7.513-21.983-11.965-34.783-11.965h-41.739c-31.443 0-57.043 25.6-57.043 57.043s25.6 57.043 57.043 57.043h41.739c15.026 0 29.217-5.843 39.513-16.139 3.339 0 6.957 0 10.296 0 53.983 0 89.322 5.009 112.696 10.852-3.061 7.235-4.73 15.304-4.73 23.652v144.696c0 15.026 5.565 29.496 15.304 40.626-5.287 40.070-14.47 70.678-28.383 93.217-28.661 46.47-84.313 68.174-174.47 68.174-74.852 0-126.609-15.583-158.052-47.583-24.487-24.765-38.678-60.104-45.078-113.53 9.739-11.13 15.583-25.878 15.583-40.904v-144.696c-0.278-11.687-3.896-22.817-9.739-32.557zM212.313 502.261h50.087c18.922 0 34.226 15.304 34.226 34.226v144.696c0 12.522-6.957 23.652-16.974 29.496 11.13 118.539 56.765 200.626 232.626 200.626 101.009 0 163.896-25.878 198.122-81.53 20.035-32.278 29.496-74.017 33.948-119.374-10.017-5.843-16.696-16.974-16.696-29.217v-144.696c0-16.139 11.409-29.774 26.713-33.391-21.983-14.47-67.896-29.217-162.504-29.217-7.791 0-15.583 0-23.93 0.278-5.009 9.461-14.748 15.861-25.878 15.861h-41.739c-16.139 0-29.217-13.078-29.217-29.217s13.078-29.217 29.217-29.217h41.739c9.739 0 18.365 4.73 23.652 12.243 8.904-0.278 17.53-0.278 25.6-0.278 106.574 0 174.47 18.087 202.017 54.261 1.113 1.67 2.226 3.061 3.339 4.452h15.304c18.922 0 34.226 15.304 34.226 34.226v144.696c0 18.922-15.304 34.226-34.226 34.226h-18.922c-5.287 54.539-16.974 101.009-41.183 139.965-43.687 70.4-121.878 104.626-239.861 104.626-117.704 0-196.174-34.226-239.861-104.626-24.209-38.957-35.896-85.426-41.183-139.965h-18.922c-18.922 0-34.226-15.304-34.226-34.226v-144.696c0.278-18.922 15.583-34.226 34.504-34.226zM924.939 77.078c-11.409 70.678-34.783 161.391-81.53 193.948-32 21.983-143.583 81.53-191.165 107.13l-1.113 0.278c-5.565 2.783-12.243 2.226-16.974-1.391-25.043-19.757-52.313-32.835-81.252-39.235-5.009-1.113-9.461-4.73-11.13-9.739l-29.496-77.913-29.496 77.913c-1.948 5.009-6.122 8.626-11.13 9.739-28.939 6.4-56.209 19.757-81.252 39.235-4.73 3.896-11.409 4.452-16.974 1.391-47.026-25.043-160.278-85.983-192-107.687-53.983-36.452-77.635-167.791-81.809-193.948-0.278-2.504-0.278-5.287 0.835-7.791 1.948-5.565 51.478-133.565 412.104-133.565s410.157 128 412.104 133.565c0.278 2.783 0.557 5.565 0.278 8.070zM756.87 158.052h-142.748v30.052h142.748v-30.052z" />
<glyph unicode="&#xe911;" glyph-name="link22" d="M624.794 560.87c-12.13 12.202-25.579 23.018-40.099 32.25-38.457 24.626-83.165 37.711-128.831 37.711-63.383 0.118-124.19-25.065-168.93-69.961l-217.049-217.219c-44.664-44.75-69.767-105.381-69.807-168.606-0.084-131.936 106.801-238.959 238.737-239.043 63.285-0.22 124.036 24.844 168.76 69.619l179.168 179.168c3.255 3.227 5.073 7.631 5.047 12.214-0.054 9.424-7.739 17.019-17.163 16.965h-6.825c-37.433-0.132-74.533 7.057-109.206 21.158-6.389 2.63-13.732 1.146-18.599-3.753l-128.831-129.001c-40.005-40.005-104.865-40.005-144.87 0s-40.005 104.865 0 144.87l217.903 217.731c39.973 39.923 104.727 39.923 144.7 0 26.939-25.353 68.96-25.353 95.897 0 11.59 11.6 18.617 26.985 19.794 43.342 1.246 19.546-5.963 38.689-19.796 52.555zM953.951 890.027c-93.297 93.297-244.562 93.297-337.859 0l-178.998-178.826c-4.915-4.939-6.333-12.368-3.583-18.771 2.718-6.421 9.068-10.542 16.039-10.408h6.313c37.389 0.068 74.429-7.177 109.036-21.33 6.389-2.63 13.732-1.146 18.599 3.753l128.489 128.319c40.005 40.005 104.865 40.005 144.87 0s40.005-104.865 0-144.87l-160.057-159.885-1.366-1.536-55.968-55.628c-39.973-39.923-104.727-39.923-144.7 0-26.939 25.353-68.96 25.353-95.897 0-11.664-11.688-18.697-27.207-19.794-43.682-1.248-19.546 5.961-38.689 19.794-52.557 19.75-19.834 42.858-36.010 68.254-47.777 3.583-1.706 7.167-3.071 10.75-4.607s7.337-2.73 10.92-4.095c3.583-1.366 7.337-2.56 10.92-3.583l10.068-2.73c6.825-1.706 13.652-3.071 20.646-4.265 8.426-1.252 16.913-2.050 25.425-2.39h12.968l10.238 1.194c3.753 0.17 7.679 1.024 12.116 1.024h5.801l11.774 1.706 5.461 1.024 9.896 2.048h1.878c41.914 10.528 80.188 32.23 110.742 62.795l217.219 217.219c93.303 93.297 93.303 244.562 0.006 337.859z" />
<glyph unicode="&#xe912;" glyph-name="information-button" d="M505.155 959.955c-282.735-3.784-508.861-236.088-505.11-518.845 3.784-282.635 236.065-508.828 518.801-505.066 282.691 3.807 508.872 236.11 505.11 518.845-3.784 282.657-236.088 508.839-518.801 505.066zM561.909 789.337c52.046 0 67.417-30.208 67.417-64.723 0-43.153-34.549-83.044-93.451-83.044-49.308 0-72.76 24.81-71.391 65.781 0 34.527 28.928 81.987 97.425 81.987zM428.488 128c-35.562 0-61.629 21.571-36.742 116.502l40.804 168.348c7.090 26.98 8.281 37.766 0 37.766-10.674 0-56.843-18.632-84.113-36.975l-17.786 29.128c86.517 72.248 186.012 114.632 228.664 114.632 35.562 0 41.483-42.062 23.719-106.785l-46.737-176.974c-8.281-31.288-4.719-42.062 3.539-42.062 10.696 0 45.657 12.978 80.006 39.958l20.157-26.98c-84.157-84.146-175.972-116.558-211.512-116.558z" />
<glyph unicode="&#xe913;" glyph-name="magnifying-glass2" d="M1001.239 70.148l-211.077 211.068c50.868 73.43 76.314 155.291 76.314 245.538 0 58.666-11.389 114.773-34.168 168.309-22.763 53.545-53.536 99.696-92.305 138.466s-84.914 69.542-138.448 92.308c-53.551 22.772-109.654 34.157-168.32 34.157-58.662 0-114.769-11.385-168.305-34.157-53.545-22.765-99.696-53.538-138.466-92.308-38.774-38.769-69.542-84.93-92.31-138.466-22.77-53.542-34.155-109.643-34.155-168.309 0-58.662 11.385-114.75 34.155-168.301 22.765-53.536 53.536-99.681 92.31-138.45 38.769-38.782 84.93-69.542 138.466-92.32 53.542-22.768 109.643-34.15 168.305-34.15 90.266 0 172.114 25.449 245.548 76.312l211.077-210.456c14.769-15.586 33.206-23.384 55.379-23.384 21.332 0 39.804 7.796 55.381 23.384 15.584 15.584 23.382 34.047 23.382 55.379 0.006 21.731-7.583 40.201-22.763 55.381zM628.006 332.005c-53.948-53.956-118.866-80.933-194.771-80.933-75.892 0-140.811 26.984-194.763 80.933s-80.927 118.858-80.927 194.763c0 75.892 26.981 140.821 80.927 194.763 53.941 53.954 118.871 80.927 194.763 80.927 75.896 0 140.815-26.984 194.771-80.927 53.956-53.941 80.931-118.871 80.931-194.763 0-75.905-26.984-140.815-80.931-194.763z" />
<glyph unicode="&#xe914;" glyph-name="sofa-1" d="M736.759 366.319h-449.502c-76.129 0-89.442-29.018-89.442-64.836v-17.985h628.378v17.981c0 35.875-13.318 64.84-89.434 64.84zM201.53 390.605h305.611v258.864c-30.078 36.015-88.446 60.837-156.504 60.837h-67.43c-98.561 0-178.472-51.39-178.472-114.769v-76.581c57.847-21.744 96.82-60.589 96.82-105.218l-0.024-23.133zM919.294 595.477c0 63.443-79.919 114.761-178.444 114.761h-67.426c-68.067 0-126.442-24.786-156.556-60.829v-258.864h305.603v23.129c0 44.629 38.977 83.418 96.824 105.218v76.585zM0 516.071v-330.377h166.632v228.049c0 56.478-74.667 102.328-166.632 102.328zM857.36 413.743v-228.049h166.64v330.377c-91.968 0-166.64-45.85-166.64-102.328zM197.815 275.16h628.378v-89.466h-628.378v89.466z" />
<glyph unicode="&#xe915;" glyph-name="fields" d="M0-1.131h1024v255.992c-693.334 55.479-1024-255.992-1024-255.992zM772.79 430.694v164.631c31.602-4.615 56.047-26.452 56.047 49.058 0 82.967-65.645 252.748-65.645 252.748s-65.712-169.747-65.712-252.748c0-76.747 25.281-52.937 57.686-48.857v-166.202c-41.868-4.080-83.001-10.3-123.364-17.924v203.322l4.849-3.545c3.645-2.809 7.959-4.113 12.34-4.113 6.22 0 12.34 2.842 16.319 8.227 6.855 9.063 5.016 21.937-3.979 28.759l-48.69 36.518c0.067 0.669 0.268 1.471 0.268 2.174v34.143c0 11.437-9.263 20.566-20.566 20.566-11.37 0-20.566-9.129-20.566-20.566v-5.752l-47.419 35.548c-7.257 5.451-17.322 5.451-24.613 0l-136.975-102.664c-9.063-6.822-10.868-19.73-4.013-28.759 6.789-9.096 19.63-10.868 28.726-4.113l4.782 3.545v-118.917c-189.31 98.35-392.264 69.892-392.264 69.892v-113.9c0 0 273.749 59.291 526.564-53.94-31.468 31.669-65.411 57.084-100.123 78.419v164.229l85.542 64.14 85.576-64.173v-235.693c-219.875-47.386-407.38-139.449-497.236-198.975 202.72 61.833 580.237 191.952 923.677 108.851v108.717c-83.803 13.276-168.51 14.179-251.21 7.357z" />
<glyph unicode="&#xe916;" glyph-name="cooking-on-fire" d="M157.163-32.403h665.64v-31.597h-665.64v31.597zM480.529-10.606h227.147l-59.958 89.936-53.615-80.483-53.615 80.483-51.281-76.961-51.3 76.961-53.596-80.483-53.632 80.483-59.975-89.936h119.903zM844.98 451.793c-11.867-4.189-27.094-18.226-37.025-28.312-0.412 25.093-1.237 42.541-1.425 47.521h22.013v31.155h-639.958v-31.155h24.951c-0.238-5.076-1.109-23.332-1.458-49.427-9.756 9.548-22.685 20.762-33.071 24.427-19.176 6.758-82.976 0-82.976 0v-25.825c0 0 62.702 2.19 76.185-5.647 13.546-7.834 28.058-74.17 39.338-74.17 0.412 0 1.095 0 1.554 0 3.064-70.779 12.992-147.489 40.179-172.265h-33.738v-41.115h575.049v41.115h-27.853c27.853 25.442 37.689 105.767 40.482 177.977 1.966 0 3.741 0 5.139 0 11.228 0 25.825 66.367 39.338 74.17 13.45 7.866 76.267 5.712 76.267 5.712v25.806c-0.063 0.033-63.956 6.725-82.99 0.033zM291.406 220.629c-6.078 11.995-12.058 26.524-16.577 42.702-2.76 7.839-3.932 16.91-5.805 25.636-2.22 9.011-2.411 17.764-3.094 26.267-0.841 8.123-0.904 18.021-0.429 26.712 0.238 8.817 0.524 17.382 1.207 25.634 0.92 8.312 0.557 16.244 2.315 23.856 1.458 7.487 2.856 14.624 4.093 21.191 5.36 26.365 14.228 42.131 14.228 42.131s-0.096-4.489 0.683-12.23c0.745-7.79 0.713-18.226 2.427-31.231 1.109-12.882 1.887-27.6 4.093-43.524 1.111-7.932 1.761-16.052 2.444-24.301 0.287-8.44 2.048-15.643 3.156-24.872 2.203-17.699 4.743-32.547 6.979-48.348 2.141-15.64 4.093-30.393 5.821-42.953 3.14-25.472 3.885-44.031 3.885-44.031s-13.344 13.221-25.429 37.361zM369.825 700.764c3.727-7.012 6.266-8.964 9.551-13.707l8.437-10.168c1.554-3.378 4.093-6.108 5.234-9.882 2.73-7.045 5.745-14.515 6.695-22.731 2.695-16.148 2.49-33.041 1.808-47.761-1.936-29.503-4.808-51.027-4.808-51.027s15.768 15.258 28.299 45.476c3.126 7.503 6.171 15.94 8.153 25.363 2.012 9.36 3.997 19.621 3.536 30.71 0 10.914-1.316 22.999-5.709 34.721-1.731 6.012-5.395 11.533-8.186 17.306-1.619 2.84-3.806 5.33-5.726 7.995l-3.077 3.965-1.524 1.952-0.366 0.459c0.191-0.238 0.491-0.557 1.079-1.207l-0.172 0.191-0.541 0.745c-2.632 3.618-7.866 8.707-8.421 10.993-1.27 2.616-3.047 4.838-4.251 8.899-2.856 6.979-5.076 15.007-6.201 23.127-2.474 16.339-2.143 33.265-1.461 48.078 1.936 29.535 4.505 51.092 4.505 51.092s-15.591-15.419-28.124-45.541c-6.234-15.007-11.801-33.787-12.058-55.772 0.224-10.881 0.429-22.873 4.901-34.644 1.466-5.704 4.844-12.301 8.426-18.63zM412.147 713.439c0.033-0.033-0.554 0.65 0 0v0zM462.666 805.377c3.727-7.028 6.266-8.978 9.551-13.721l8.437-10.168c1.57-3.378 4.093-6.108 5.237-9.865 2.725-7.058 5.756-14.529 6.692-22.747 2.695-16.148 2.507-33.041 1.824-47.745-1.952-29.503-4.806-51.043-4.806-51.043s15.749 15.274 28.279 45.476c3.126 7.503 6.171 15.957 8.137 25.38 2.029 9.36 3.997 19.621 3.552 30.693 0 10.914-1.332 22.999-5.709 34.737-1.715 5.996-5.395 11.517-8.186 17.306-1.619 2.823-3.806 5.33-5.709 7.995l-3.028 3.902-1.526 1.95-0.426 0.541c0.205-0.224 0.491-0.541 1.079-1.204l-0.126 0.205-0.59 0.745c-2.632 3.569-7.866 8.707-8.421 10.976-1.253 2.632-3.044 4.806-4.251 8.869-2.856 7.028-5.062 15.007-6.201 23.127-2.444 16.386-2.111 33.262-1.428 48.078 1.922 29.565 4.524 51.139 4.524 51.139s-15.61-15.435-28.143-45.541c-6.264-15.020-11.831-33.787-12.085-55.789 0.254-10.881 0.426-22.873 4.934-34.628 1.474-5.707 4.852-12.306 8.388-18.665zM504.988 818.065c0.066-0.033-0.508 0.62 0 0v0zM577.351 710.504c3.743-7.012 6.283-8.961 9.581-13.707l8.44-10.168c1.554-3.378 4.090-6.108 5.234-9.865 2.728-7.058 5.742-14.532 6.692-22.747 2.668-16.148 2.474-33.041 1.81-47.761-1.936-29.486-4.792-51.027-4.792-51.027s15.736 15.258 28.299 45.476c3.11 7.503 6.154 15.957 8.12 25.38 2.031 9.344 3.997 19.621 3.555 30.693 0 10.914-1.332 22.999-5.712 34.721-1.712 6.012-5.393 11.533-8.183 17.322-1.649 2.823-3.809 5.33-5.712 7.995l-3.044 3.885-1.524 1.95-0.349 0.491c0.188-0.224 0.478-0.554 1.048-1.204l-0.191 0.27-0.571 0.745c-2.635 3.569-7.866 8.707-8.407 10.976-1.27 2.632-3.077 4.806-4.251 8.869-2.889 7.028-5.076 15.007-6.217 23.127-2.444 16.386-2.124 33.262-1.425 48.078 1.966 29.535 4.503 51.109 4.503 51.109s-15.575-15.435-28.107-45.558c-6.283-15.007-11.834-33.77-12.088-55.772 0.254-10.881 0.412-22.873 4.918-34.628 1.458-5.69 4.852-12.273 8.374-18.649zM619.736 723.209c0.030-0.030-0.571 0.62 0 0v0z" />
<glyph unicode="&#xe917;" glyph-name="cold2" d="M964.008 944.385c-9.211-9.53-19.338-19.484-31.556-25.023-7.169-3.253-14.625-4.088-22.281-2.102-6.903 1.792-13.414 5.165-19.424 8.945-9.191 5.78-18.417 11.122-28.894 14.275-12.962 3.902-26.93 4.409-39.989 0.662-12.225-3.508-23.087-10.721-31.268-20.432-6.994-8.305-13.106-19.3-14.094-30.307 13.525 8.433 29.12 16.402 45.305 17.294 9.835 0.54 19.405-1.911 28.259-6.084 6.405-3.019 12.296-6.934 18.319-10.621 19.588-11.983 44.975-16.791 66-5.561 10.768 5.749 19.125 15.405 24.162 26.436 4.471 9.778 7.189 21.761 5.463 32.517zM842.029 637.936v227.014h-110.634v-121.071l-226.554 216.121-445.374-425.666 67.238-64.39 378.136 362.104 378.134-362.104 67.24 64.39zM812.025 132.335v340.968l-307.184 294.162-307.184-294.162v-301.47c-19.256-13.959-36.847-30.274-52.287-48.604-31.459-37.345-58.951-86.811-63.398-136.317 60.838 37.925 130.986 73.774 203.776 77.789 44.246 2.432 87.269-8.599 127.095-27.362 28.803-13.578 55.301-31.191 82.413-47.774 88.107-53.904 202.279-75.523 296.859-25.014 48.436 25.854 86.012 69.289 108.674 118.899 20.1 43.98 32.331 97.88 24.567 146.267-34.025-35.197-70.837-71.656-113.331-97.381zM470.922 189.838h-119.293v119.291h119.293v-119.291zM470.922 376.969h-119.293v119.295h119.293v-119.295zM658.056 189.838h-119.293v119.291h119.293v-119.291zM658.056 376.969h-119.293v119.295h119.293v-119.295z" />
<glyph unicode="&#xe918;" glyph-name="signing-the-contract2" d="M570.782 777.684h-349.075c-25.709 0-46.559-20.85-46.559-46.538s20.85-46.538 46.559-46.538h349.075c25.753 0 46.559 20.85 46.559 46.538-0.022 25.687-20.829 46.538-46.559 46.538zM617.319 556.609c0 25.709-20.807 46.538-46.559 46.538h-349.053c-25.709 0-46.559-20.85-46.559-46.538 0-25.709 20.85-46.559 46.559-46.559h349.075c25.731 0 46.538 20.85 46.538 46.559zM396.266 335.513c25.709 0 46.538 20.85 46.538 46.538 0 25.709-20.829 46.559-46.538 46.559h-174.559c-25.709 0-46.559-20.85-46.559-46.559s20.85-46.538 46.559-46.538h174.559zM747.607 177.185l-48.825-32.223v-115.865h-605.075v837.806h605.075v-183.928l93.097 161.247v69.24c0 25.709-20.85 46.538-46.559 46.538h-698.172c-25.709 0-46.538-20.85-46.538-46.538v-930.947c0-25.709 20.829-46.538 46.538-46.538h698.172c25.731 0 46.581 20.85 46.581 46.538v256.545l-22.245-38.476c-5.425-9.39-13.051-17.473-22.049-23.399zM1022.845 744.437c-0.959 4.183-10.785 41.788-70.002 75.994-59.218 34.184-96.692 23.901-100.831 22.615-5.556-1.765-10.24-5.512-13.159-10.567l-290.903-503.852c-1.808-3.159-2.876-6.667-3.094-10.284l-10.894-181.814c-0.523-8.802 3.965-17.125 11.569-21.548 7.669-4.401 17.103-4.096 24.467 0.719l152.010 100.352c3.028 1.961 5.534 4.641 7.342 7.756l290.925 503.939c2.919 5.055 3.813 10.981 2.571 16.689zM628.649 196.249c-7.734 6.253-16.515 12.157-25.949 17.626-9.477 5.469-18.977 10.066-28.258 13.682l3.246 54.512c12.135-1.59 30.132-6.514 52.987-19.674 22.833-13.181 36.058-26.341 43.553-36.036l-45.579-30.11zM325.109 120.451c1.525-9.347 12.31-12.244 19.521-15.251 6.972-2.941 15.295 2.636 21.090 5.447 35.513 17.277 83.619-3.028 121.66-3.028 22.506 0 22.506 34.903 0 34.903-44.359 0-81.266 11.22-125.233 3.965 0 2.549-0.937 5.991-3.682 10.676-8.214 14.053-18.672 18.040-29.151 16.34-0.697 1.656-1.373 3.312-2.353 4.989-2.745 4.488-6.58 6.732-10.894 7.669 12.266 21.439 20.175 44.119 12.135 62.464-2.462 5.578-9.456 8.432-15.077 8.65-23.312 0.871-43.313-23.596-58.303-38.28-37.496-36.755-70.525-78.478-102.487-120.004-13.726-17.844 16.624-35.186 30.132-17.648 28.323 36.777 58.324 72.486 90.613 105.886-7.778-12.767-16.035-25.295-24.729-37.365-12.419-19.195 17.234-35.535 30.132-17.626 3.072 4.684 6.972 8.061 11.242 10.959-0.85-2.157-1.721-4.27-2.593-6.449 0.044 0 0.087-0.022 0.131-0.044-0.675-1.394-1.351-2.789-1.895-4.118-7.8-19.543 21.33-28.498 31.918-13.421 2.68 3.791 5.164 7.843 7.408 12.092-0.153-2.919-0.218-6.841 0.414-10.806z" />
<glyph unicode="&#xe919;" glyph-name="double-king-size-bed" d="M1021.942 308.994l-112.718 178.454v328.275l-45.883 45.883h-702.684l-45.883-45.883v-328.272l-112.718-178.457h1019.886zM817.457 769.839v-229.054c-59.132 15.296-161.283 34.158-305.459 34.158s-246.327-18.862-305.459-34.158v229.054h610.918zM0 252.531v-91.766h106.916v-126.368h91.766v126.368h626.633v-126.368h91.766v126.368h106.918v91.766zM474.76 622.685v53.458c0 31.73-46.051 57.461-102.857 57.461s-102.854-25.731-102.854-57.461v-80.241c0 0 60.671 15.275 102.372 19.224 37.543 3.558 103.339 7.559 103.339 7.559zM754.951 595.902v80.241c0 31.73-46.051 57.461-102.857 57.461s-102.857-25.731-102.857-57.461v-53.458c0 0 65.799-3.998 103.342-7.559 41.704-3.949 102.372-19.224 102.372-19.224z" />
<glyph unicode="&#xe91a;" glyph-name="bathtub" d="M960 608.004h-896c-35.286 0-64-28.714-64-64s28.714-64 64-64h896c35.286 0 64 28.714 64 64s-28.714 64-64 64zM965.888 521.86c-11.562 3.286-23.168-3.37-26.368-14.678l-1.706-5.846h-851.628l-1.706 5.846c-3.2 11.306-14.976 17.878-26.368 14.678-11.35-3.242-17.878-15.062-14.634-26.368l58.794-205.824c18.218-63.786 77.27-108.33 143.574-108.33h532.266c66.346 0 125.354 44.544 143.574 108.33l58.794 205.824c3.286 11.306-3.286 23.126-14.592 26.368zM245.888 266.67c-28.416 0-53.76 19.072-61.526 46.422l-27.69 97.024c-3.242 11.35 3.328 23.126 14.634 26.368 11.478 3.158 23.126-3.328 26.368-14.678l27.69-97.024c2.646-9.088 11.050-15.488 20.522-15.488 11.776 0 21.334-9.558 21.334-21.334 0.002-11.774-9.556-21.29-21.332-21.29zM286.848 221.786c-10.538 5.162-23.296 1.024-28.63-9.558l-42.666-85.334c-5.248-10.538-0.982-23.338 9.558-28.63 3.114-1.536 6.358-2.262 9.558-2.262 7.808 0 15.318 4.31 19.072 11.818l42.666 85.334c5.248 10.54 0.98 23.34-9.558 28.632zM808.448 126.852l-42.666 85.334c-5.29 10.582-18.090 14.806-28.63 9.558-10.538-5.29-14.806-18.090-9.558-28.63l42.666-85.334c3.754-7.466 11.264-11.776 19.072-11.776 3.2 0 6.442 0.726 9.558 2.218 10.54 5.292 14.806 18.092 9.558 28.63zM292.438 687.108l-42.666 42.666c-5.718 5.674-14.122 7.722-21.846 5.12l-128-42.666c-8.704-2.902-14.592-11.050-14.592-20.224v-85.334c0-11.776 9.558-21.334 21.334-21.334s21.332 9.558 21.332 21.334v69.974l100.906 33.622 33.366-33.322c8.32-8.32 21.846-8.32 30.166 0 8.32 8.318 8.32 21.844 0 30.164zM192 714.67c-11.776 0-21.334-9.558-21.334-21.334v-106.666c0-11.776 9.558-21.334 21.334-21.334s21.334 9.558 21.334 21.334v106.666c0 11.778-9.558 21.334-21.334 21.334zM211.072 788.228c-5.29 10.538-18.048 14.762-28.63 9.514l-42.666-21.332c-7.21-3.628-11.776-10.966-11.776-19.072v-64c0-11.776 9.558-21.334 21.334-21.334s21.334 9.558 21.334 21.334v50.816l30.89 15.446c10.538 5.246 14.762 18.090 9.514 28.628z" />
<glyph unicode="&#xe91b;" glyph-name="cottage" d="M503.762 793.663l406.115-232.364 89.663-0.38-197.576 320.697-90.17-0.127v78.511h-104.491v-78.701l-98.154-0.697-287.176-0.507-197.513-326.653 104.871 0.57zM924.388 491.533l-416.95 231.667-397.814-235.089v-441.537h-61.719v-110.574h933.386v110.574h-56.903v444.958zM301.814 193.394h-121.6v205.18h121.537l0.063-205.18zM592.665 40.491v0h-168.111v350.099h168.111v-350.099zM852.784 193.394h-121.537v205.18h121.537v-205.18z" />
<glyph unicode="&#xe91c;" glyph-name="maps-and-flags" d="M512 960c-204.49 0-370.854-166.364-370.854-370.852 0-253.776 331.878-626.334 346.008-642.070 13.272-14.782 36.444-14.756 49.692 0 14.13 15.736 346.008 388.294 346.008 642.070-0.004 204.488-166.366 370.852-370.854 370.852zM512 402.562c-102.884 0-186.584 83.702-186.584 186.586s83.702 186.584 186.584 186.584 186.582-83.702 186.582-186.586-83.7-186.584-186.582-186.584z" />
<glyph unicode="&#xe91d;" glyph-name="bath" d="M784.958 669.982c9.422 0 17.059 7.637 17.059 17.059v17.061c0 9.422-7.639 17.059-17.059 17.059-9.422 0-17.059-7.637-17.059-17.059v-17.059c-0.002-9.422 7.637-17.061 17.059-17.061zM767.897 601.743c0-9.422 7.639-17.059 17.059-17.059 9.422 0 17.059 7.637 17.059 17.059v17.059c0 9.422-7.639 17.059-17.059 17.059-9.422 0-17.059-7.637-17.059-17.059v-17.059zM767.897 516.444c0-9.422 7.639-17.059 17.059-17.059 9.422 0 17.059 7.637 17.059 17.059v17.059c0 9.422-7.639 17.059-17.059 17.059-9.422 0-17.059-7.639-17.059-17.059v-17.059zM716.717 669.982c9.422 0 17.059 7.637 17.059 17.059v17.061c0 9.422-7.637 17.059-17.059 17.059s-17.059-7.637-17.059-17.059v-17.059c0-9.422 7.637-17.061 17.059-17.061zM716.717 584.684c9.422 0 17.059 7.637 17.059 17.059v17.059c0 9.422-7.637 17.059-17.059 17.059s-17.059-7.637-17.059-17.059v-17.059c0-9.422 7.637-17.059 17.059-17.059zM716.717 499.384c9.422 0 17.059 7.637 17.059 17.059v17.059c0 9.422-7.637 17.059-17.059 17.059s-17.059-7.639-17.059-17.059v-17.059c0-9.422 7.637-17.059 17.059-17.059zM853.196 669.982c9.422 0 17.059 7.637 17.059 17.059v17.061c0 9.422-7.637 17.059-17.059 17.059s-17.059-7.637-17.059-17.059v-17.059c0-9.422 7.637-17.061 17.059-17.061zM836.137 601.743c0-9.422 7.637-17.059 17.059-17.059s17.059 7.637 17.059 17.059v17.059c0 9.422-7.637 17.059-17.059 17.059s-17.059-7.637-17.059-17.059v-17.059zM836.137 516.444c0-9.422 7.637-17.059 17.059-17.059s17.059 7.637 17.059 17.059v17.059c0 9.422-7.637 17.059-17.059 17.059s-17.059-7.639-17.059-17.059v-17.059zM1000.763 448.205h-28.149v375.316c0 75.376-61.104 136.479-136.477 136.479h-51.18c-9.422 0-17.059-7.637-17.059-17.059v-87.005c-39.72-8.109-68.247-43.053-68.239-83.593 0-9.422 7.637-17.059 17.059-17.059h136.479c9.422 0 17.059 7.637 17.059 17.059 0.008 40.54-28.519 75.486-68.239 83.593v69.944h34.12c56.531 0 102.359-45.828 102.359-102.359v-375.316h-915.264c-12.719 0-23.031-10.312-23.031-23.031v-22.177c0-12.719 10.312-23.031 23.031-23.031h977.529c12.719 0 23.031 10.312 23.031 23.031v22.177c0 12.719-10.31 23.031-23.031 23.031zM963.232 345.846h-902.465c-4.806 0.004-8.705-3.888-8.707-8.695 0-0.116 0.002-0.232 0.006-0.348 6.653-121.465 59.368-247.197 136.477-285.922-25.76-27.511-24.338-70.694 3.171-96.453 27.511-25.76 70.694-24.338 96.453 3.171 20.662 22.065 24.342 55.096 9.046 81.17h429.054c-9.984-16.663-12.167-36.863-5.972-55.274 12.019-35.72 50.72-54.932 86.439-42.911 35.72 12.019 54.932 50.72 42.911 86.439-3.093 9.188-8.107 17.613-14.708 24.712 77.623 38.726 130.338 164.456 136.479 285.924-0.25 4.412-3.772 7.935-8.187 8.187z" />
<glyph unicode="&#xe91e;" glyph-name="bathroom" d="M43.132 960h309.48v-113.792h-309.48v113.792zM167.926 418.992v-171.89c0-62.482 50.832-113.314 113.314-113.314h11.48v-197.788h252.612v214.706h75.674c155.428 0 283.916 117.468 301.4 268.286h-754.48zM897.55 626.6h-544.94v159.718h-309.478v-206.59c0-41.27 20.014-77.934 50.832-100.848h862.808c14.888 15.052 24.094 35.728 24.094 58.522v5.882c0 45.942-37.374 83.316-83.316 83.316z" />
<glyph unicode="&#xe91f;" glyph-name="sofa2" d="M169.323 424.071h139.139c-27.505 53.894-74.367 123.182-153.883 196.764-15.507 14.35-36.337 22.58-57.154 22.58-21.886 0-43.333-8.484-63.748-25.219-63.658-52.178-20.247-116.644-5.426-135.162 19.585-24.469 40.084-58.941 58.148-99.96 19.125 24.903 49.174 40.998 82.924 40.998zM990.321 618.196c-20.415 16.733-41.862 25.219-63.748 25.219-20.815 0-41.647-8.23-57.154-22.58-79.518-73.582-126.377-142.87-153.88-196.764h139.139c33.74 0 63.782-16.086 82.905-40.976 18.069 41.015 38.576 75.47 58.163 99.941 14.824 18.516 58.234 82.984-5.424 135.16zM916.194 181.198v138.343c0 33.92-27.595 61.518-61.516 61.518h-685.356c-33.92 0-61.516-27.598-61.516-61.518v-138.343c0-33.92 27.595-61.516 61.516-61.516h685.353c33.922 0 61.518 27.595 61.518 61.516zM777.419 76.672l10.148-80.343h51.757l10.148 80.343zM174.528 76.672l10.148-80.343h51.759l10.148 80.343zM667.517 424.071c29.477 63.941 81.348 143.805 172.689 228.334 12.884 11.922 27.834 20.907 43.927 26.651-57.888 128.949-202.848 220.615-372.132 220.615s-314.27-91.655-372.16-220.607c16.101-5.744 31.060-14.731 43.952-26.66 91.341-84.526 143.212-164.388 172.689-228.334h311.036z" />
<glyph unicode="&#xe920;" glyph-name="menu" d="M512 960c-282.313 0-512-229.687-512-512s229.687-512 512-512 512 229.687 512 512-229.687 512-512 512zM274.286 685.714h475.429c10.112 0 18.286-8.192 18.286-18.286s-8.174-18.286-18.286-18.286h-475.429c-10.112 0-18.286 8.192-18.286 18.286s8.174 18.286 18.286 18.286zM749.714 210.286h-475.429c-10.112 0-18.286 8.192-18.286 18.286s8.174 18.286 18.286 18.286h475.429c10.112 0 18.286-8.192 18.286-18.286s-8.174-18.286-18.286-18.286zM822.857 356.571h-621.714c-10.112 0-18.286 8.192-18.286 18.286s8.174 18.286 18.286 18.286h621.714c10.112 0 18.286-8.192 18.286-18.286s-8.174-18.286-18.286-18.286zM822.857 502.857h-621.714c-10.112 0-18.286 8.192-18.286 18.286s8.174 18.286 18.286 18.286h621.714c10.112 0 18.286-8.192 18.286-18.286s-8.174-18.286-18.286-18.286z" />
<glyph unicode="&#xe921;" glyph-name="phone" d="M517.977 714.957c173.323-1.992 280.903 9.961 294.848-181.292h211.175c0 296.84-258.988 336.685-512 336.685s-510.008-39.844-510.008-336.685h209.183c13.946 195.237 135.471 183.284 306.802 181.292zM105.588 438.039c51.798 0 93.634-3.984 103.595 47.813 1.992 5.977 1.992 13.946 1.992 23.907h-211.175c0-75.704 47.813-71.72 105.588-71.72zM814.817 509.759v0c-1.992-9.961-1.992-15.938 0-23.907 9.961-45.821 51.798-43.829 103.595-43.829 57.774 0 105.588-3.984 105.588 67.735 0 0-209.183 0-209.183 0zM711.222 559.564v29.883c0 13.946-15.938 13.946-33.868 13.946h-31.875c-19.922 0-33.868 0-33.868-13.946v-45.821h-219.144v45.821c0 13.946-15.938 13.946-33.868 13.946h-31.875c-19.922 0-33.868 0-33.868-13.946v-55.782c-49.805-51.798-213.167-272.934-219.144-298.833v-179.3c0-15.938 13.946-29.883 29.883-29.883h796.887c15.938 0 29.883 13.946 29.883 29.883v179.3c-5.977 25.899-169.339 247.035-219.144 298.833v25.899zM382.506 210.926c-15.938 0-29.883 13.946-29.883 29.883s13.946 29.883 29.883 29.883 29.883-13.946 29.883-29.883-13.946-29.883-29.883-29.883zM382.506 310.537c-15.938 0-29.883 13.946-29.883 29.883s13.946 29.883 29.883 29.883 29.883-13.946 29.883-29.883-13.946-29.883-29.883-29.883zM382.506 410.148c-15.938 0-29.883 13.946-29.883 29.883s13.946 29.883 29.883 29.883 29.883-13.946 29.883-29.883c-1.992-17.93-13.946-29.883-29.883-29.883zM502.039 210.926c-15.938 0-29.883 13.946-29.883 29.883s13.946 29.883 29.883 29.883c15.938 0 29.883-13.946 29.883-29.883s-13.946-29.883-29.883-29.883zM502.039 310.537c-15.938 0-29.883 13.946-29.883 29.883s13.946 29.883 29.883 29.883c15.938 0 29.883-13.946 29.883-29.883s-13.946-29.883-29.883-29.883zM502.039 410.148c-15.938 0-29.883 13.946-29.883 29.883s13.946 29.883 29.883 29.883c15.938 0 29.883-13.946 29.883-29.883-1.992-17.93-13.946-29.883-29.883-29.883zM621.572 210.926c-15.938 0-29.883 13.946-29.883 29.883s13.946 29.883 29.883 29.883 29.883-13.946 29.883-29.883-13.946-29.883-29.883-29.883zM621.572 310.537c-15.938 0-29.883 13.946-29.883 29.883s13.946 29.883 29.883 29.883 29.883-13.946 29.883-29.883-13.946-29.883-29.883-29.883zM621.572 410.148c-15.938 0-29.883 13.946-29.883 29.883s13.946 29.883 29.883 29.883 29.883-13.946 29.883-29.883c-1.992-17.93-13.946-29.883-29.883-29.883z" />
<glyph unicode="&#xe922;" glyph-name="searcher" d="M999.044 82.052l-222.555 222.555c-1.227 1.227-2.455 2.046-3.682 3.273 43.775 66.276 69.139 146.052 69.139 231.556 0 231.965-188.599 420.564-420.973 420.564s-420.973-188.599-420.973-420.973c0-232.374 188.599-420.973 420.973-420.973 85.504 0 164.871 25.365 231.556 69.139 1.227-1.227 2.046-2.455 3.273-3.682l222.555-222.555c33.547-33.547 87.549-33.547 121.096 0 33.138 33.547 33.138 87.549-0.409 121.096zM420.973 264.105c-151.779 0-274.921 123.142-274.921 274.921s123.142 274.921 274.921 274.921c151.779 0 274.921-123.142 274.921-274.921s-123.142-274.921-274.921-274.921z" />
<glyph unicode="&#xe923;" glyph-name="twitter" d="M0 960v-1024h1024v1024h-1024zM793.994 592.485c0.225-6.302 0.45-12.603 0.45-18.905 0-192.197-146.286-413.876-413.876-413.876-82.145 0-158.664 24.081-223.029 65.266 11.478-1.35 22.956-2.025 34.658-2.025 68.192 0 130.757 23.181 180.719 62.34-63.691 1.125-117.254 43.211-135.933 101.050 8.777-1.8 18.004-2.701 27.457-2.701 13.278 0 26.106 1.8 38.259 5.176-66.616 13.278-116.578 72.243-116.578 142.685 0 0.675 0 1.125 0 1.8 19.58-10.803 42.085-17.329 65.941-18.229-38.935 26.106-64.591 70.667-64.591 121.080 0 26.556 7.202 51.538 19.805 73.143 71.793-87.996 178.919-145.836 299.773-151.912-2.476 10.578-3.826 21.83-3.826 33.083 0 80.345 65.041 145.385 145.385 145.385 41.86 0 79.669-17.554 106.226-45.911 33.083 6.527 64.366 18.68 92.273 35.334-10.803-33.983-33.983-62.565-63.916-80.57 29.482 3.601 57.389 11.253 83.495 22.956-19.805-29.032-44.336-54.463-72.693-75.168z" />
<glyph unicode="&#xe924;" glyph-name="user22" d="M461.8 773.8c0-90.685-73.515-164.2-164.2-164.2s-164.2 73.515-164.2 164.2c0 90.685 73.515 164.2 164.2 164.2s164.2-73.515 164.2-164.2zM751.8 502c-150 0-272.2-122-272.2-272.2s122-272.2 272.2-272.2 272.2 122.2 272.2 272.2-122 272.2-272.2 272.2zM920.2 188.8h-127.2v-127.2h-82.2v127.2h-127.2v82.2h127.2v127.2h82.2v-127.2h127.2v-82.2zM297.6 527.4c-164.4 0-297.6-133.2-297.6-297.6h397.6c0 88.6 32.6 169.6 86.6 231.8-51 41.2-115.8 65.8-186.6 65.8z" />
<glyph unicode="&#xe925;" glyph-name="youtube" d="M0 960v-1024h1024v1024h-1024zM854.084 280.334c-8.777-37.809-39.61-65.491-76.744-69.767-87.771-9.902-176.893-9.902-265.565-9.902s-177.568 0-265.34 9.902c-37.134 4.051-67.967 31.958-76.519 69.767-12.378 53.788-12.378 112.302-12.378 167.666s0.225 113.878 12.603 167.441c8.552 37.809 39.385 65.491 76.519 69.767 87.996 9.902 176.893 9.902 265.565 9.902s177.568 0 265.34-9.902c37.134-4.051 67.967-31.958 76.744-69.767 12.378-53.563 12.153-112.302 12.153-167.441 0-55.364 0-113.878-12.378-167.666zM420.628 337.948c75.393 39.16 149.887 77.869 225.28 116.804-75.618 39.385-150.337 78.319-225.28 117.479v-234.282z" />
<glyph unicode="&#xe926;" glyph-name="money" d="M990.084 675.999l-901.809 144.278v-76.447l-52.966 4.237v-72.086h-35.31v-600.276h1024v600.276h-33.916zM123.586 778.876l473.194-75.705-473.194 37.853v37.853zM70.621 709.844l423.018-33.845h-423.018v33.845zM988.69 111.033h-953.379v529.655h953.379v-529.655zM829.793 190.482c0 43.802 35.646 79.448 79.448 79.448 2.436 0 4.82-0.159 7.203-0.371l19.279-1.766v216.135l-19.279-1.766c-2.383-0.212-4.785-0.371-7.203-0.371-43.802 0-79.448 35.646-79.448 79.448 0 2.454 0.177 4.873 0.371 7.274l1.713 19.209h-193.218c-37.094 22.263-80.331 35.31-126.658 35.31s-89.565-13.047-126.658-35.31h-193.271l1.766-19.262c0.212-2.401 0.371-4.785 0.371-7.221 0-43.802-35.646-79.448-79.448-79.448-2.436 0-4.838 0.159-7.221 0.371l-19.262 1.766v-216.135l19.262 1.766c2.383 0.212 4.785 0.371 7.221 0.371 43.802 0 79.448-35.646 79.448-79.448 0-2.436-0.159-4.838-0.371-7.221l-1.766-19.262h141.171c15.289 0 29.007 9.11 34.94 23.199 1.359 3.249 2.136 6.603 2.56 9.975v0c5.685 6.356 11.529 11.105 17.832 14.566l56.744 27.966v3.019c-24.7 13.877-42.161 36.299-52.065 66.86-15.148 8.422-24.788 24.311-24.788 42.090v15.378c0 14.495 6.55 28.019 17.585 37.129 2.101 14.424 5.738 27.966 10.805 40.342 2.295 5.597 4.237 9.799 5.826 13.188 3.849 8.28 3.849 8.28 1.024 22.546-1.465 7.398-2.454 14.159-3.107 19.968-0.689 5.862 1.165 11.758 5.085 16.154 8.174 9.163 24.135 8.739 31.815-1.006 2.913-3.69 7.468-7.645 13.559-11.741 12.8-8.633 30.067-12.482 48.093-11.017 3.213 0.265 6.55 0.388 9.958 0.388 87.34 0 115.359-46.38 122.739-88.594 11.211-9.092 17.885-22.722 17.885-37.358v-15.378c0-17.779-9.64-33.686-24.788-42.090-9.905-30.561-27.366-52.983-52.065-66.86v-3.213l54.731-27.948c8.422-4.22 15.837-10.134 21.928-17.514l8.121-9.852c6.55-12.253 19.032-20.215 33.121-20.215h141.118l-1.713 19.209c-0.212 2.419-0.388 4.82-0.388 7.292zM335.642 200.881c-0.671-1.589-1.924-1.589-2.401-1.589h-104.060c-4.308 56.267-49.329 101.305-105.596 105.613v141.912c56.267 4.308 101.288 49.329 105.596 105.596h110.027c-0.265-0.265-0.494-0.547-0.759-0.812-3.019-2.984-5.809-6.179-8.669-9.322-2.754-3.001-5.614-5.897-8.192-9.022-0.989-1.201-1.854-2.507-2.825-3.725-28.954-36.193-47.298-79.854-52.383-126.746-0.071-0.583-0.194-1.148-0.265-1.73-0.847-8.298-1.289-16.719-1.289-25.194 0-9.022 0.6-17.973 1.554-26.818 0.282-2.666 0.777-5.244 1.148-7.874 0.883-6.25 1.924-12.447 3.266-18.591 0.6-2.754 1.306-5.455 2.013-8.157 1.554-6.056 3.319-12.023 5.332-17.92 0.812-2.366 1.607-4.732 2.489-7.062 2.383-6.374 5.067-12.606 7.98-18.767 0.794-1.66 1.501-3.354 2.33-4.996 3.655-7.309 7.68-14.442 12.058-21.38 0.247-0.388 0.459-0.812 0.706-1.201 9.039-14.089 19.491-27.401 31.444-39.636 0.353-0.371 1.095-1.13 0.494-2.578zM794.818 199.309h-104.060c-0.477 0-1.73 0-2.401 1.589-0.618 1.448 0.124 2.207 0.477 2.578 4.431 4.537 8.492 9.322 12.535 14.124 0.159 0.177 0.318 0.353 0.477 0.547 17.743 21.239 31.567 45.021 41.19 70.444 0.689 1.783 1.271 3.619 1.907 5.42 2.295 6.497 4.308 13.082 6.056 19.756 0.671 2.542 1.306 5.067 1.889 7.627 1.448 6.391 2.578 12.871 3.513 19.385 0.371 2.595 0.847 5.138 1.13 7.751 1.006 9.022 1.642 18.114 1.642 27.33 0 8.492-0.441 16.896-1.271 25.212-0.053 0.583-0.194 1.148-0.265 1.73-5.085 46.874-23.446 90.553-52.383 126.746-0.971 1.218-1.836 2.525-2.825 3.725-2.595 3.107-5.438 6.020-8.192 9.022-2.86 3.125-5.65 6.338-8.669 9.322-0.265 0.265-0.494 0.547-0.759 0.812h110.027c4.308-56.267 49.329-101.288 105.596-105.596v-141.912c-56.285-4.326-101.305-49.364-105.613-105.613zM114.759 499.447c34.074 0 61.793 27.719 61.793 61.793s-27.719 61.793-61.793 61.793-61.793-27.719-61.793-61.793 27.719-61.793 61.793-61.793zM847.448 561.24c0-34.074 27.719-61.793 61.793-61.793s61.793 27.719 61.793 61.793-27.719 61.793-61.793 61.793-61.793-27.736-61.793-61.793zM114.759 252.275c-34.074 0-61.793-27.719-61.793-61.793s27.719-61.793 61.793-61.793 61.793 27.719 61.793 61.793-27.719 61.793-61.793 61.793zM909.241 252.275c-34.074 0-61.793-27.719-61.793-61.793s27.719-61.793 61.793-61.793 61.793 27.719 61.793 61.793-27.719 61.793-61.793 61.793z" />
<glyph unicode="&#xe927;" glyph-name="coins" d="M1024 320v640h-1024v-640h133.124c3.5-11.188 8.626-21.938 15.656-32-13.438-19.25-20.782-40.75-20.782-64s7.344-44.75 20.782-64c-13.438-19.25-20.782-40.75-20.782-64 0-94.25 118.438-160 288-160 169.56 0 288.002 65.75 288.002 160 0 23.25-7.312 44.75-20.75 64 0 0-0.062 0-0.062-0.062 13.436 19.25 20.812 40.812 20.812 64.062s-7.312 44.75-20.75 64c0 0-0.062 0-0.062-0.062 7 10.062 12.188 20.812 15.688 32.062h325.124zM133.124 384h-69.124v512h896v-512h-261.124c-3.5 11.25-8.624 22-15.688 32.062 0-0.062 0.062-0.062 0.062-0.062h148.75c0 53.062 43 96 96 96v256c-53 0-96 42.938-96 96h-244.062c49.874-43.376 84.062-126.876 84.062-224 0-68.376-17.192-129.626-44.628-175.25-50.996 29.624-124.216 47.25-211.372 47.25-14.376 0-27.844-1.126-41.468-2 0.062 0 0.094 0 0.126 0-14.312 37.938-22.656 82.25-22.656 130 0 97.126 34.25 180.626 84 224h-244c0-53.062-43-96-96-96v-256c40.5 0 75-25.126 89.094-60.626-25.66-19.062-43.972-41.624-51.972-67.374zM736 640c0 26.5 21.5 48 48 48s48-21.5 48-48-21.5-48-48-48-48 21.5-48 48zM661.75 439.5c-0.938 0.876-1.5 1.876-2.5 2.75 1-0.874 1.562-1.874 2.5-2.75zM192 640c0 26.5 21.5 48 48 48s48-21.5 48-48-21.5-48-48-48-48 21.5-48 48zM416 0c-123.718 0-224 43-224 96 0 7 1.938 13.75 5.25 20.312 51.156-32.562 127-52.312 218.75-52.312s167.624 19.75 218.75 52.312c3.312-6.562 5.25-13.312 5.25-20.312 0-53-100.25-96-224-96zM416 128c-123.718 0-224 43-224 96 0 7 1.938 13.75 5.25 20.312 51.156-32.562 127-52.312 218.75-52.312s167.624 19.75 218.75 52.312c3.312-6.562 5.25-13.312 5.25-20.312 0-53-100.25-96-224-96zM416 256c-123.718 0-224 43-224 96s100.282 96 224 96c123.75 0 224-43 224-96s-100.25-96-224-96z" />
<glyph unicode="&#xe928;" glyph-name="star-1" d="M1001.773 493.91c20.156 19.643 27.271 48.473 18.577 75.272-8.714 26.8-31.413 45.93-59.299 49.99l-247.942 36.027c-10.56 1.538-19.684 8.161-24.4 17.736l-110.848 224.669c-12.446 25.241-37.708 40.927-65.861 40.927-28.132 0-53.394-15.686-65.84-40.927l-110.868-224.669c-4.716-9.576-13.861-16.199-24.421-17.736l-247.942-36.047c-27.866-4.039-50.564-23.17-59.279-49.97-8.694-26.8-1.579-55.629 18.577-75.272l179.395-174.863c7.648-7.464 11.155-18.208 9.35-28.706l-42.342-246.937c-4.757-27.743 6.418-55.239 29.199-71.807 22.76-16.588 52.389-18.741 77.343-5.598l221.737 116.589c9.453 4.962 20.73 4.962 30.183 0l221.757-116.589c10.826-5.7 22.555-8.509 34.222-8.509 15.153 0 30.244 4.737 43.121 14.107 22.781 16.568 33.956 44.064 29.199 71.807l-42.363 246.916c-1.804 10.519 1.702 21.243 9.35 28.706l179.395 174.884zM772.634 283.389l42.342-246.916c2.132-12.426-2.686-24.298-12.897-31.721-10.232-7.402-22.965-8.304-34.14-2.481l-221.757 116.61c-10.683 5.598-22.453 8.427-34.181 8.427s-23.478-2.83-34.181-8.448l-221.716-116.589c-11.216-5.823-23.949-4.921-34.161 2.481-10.211 7.423-15.009 19.274-12.897 31.721l42.342 246.916c4.080 23.826-3.814 48.145-21.12 65l-179.415 174.884c-9.043 8.817-12.118 21.243-8.202 33.238 3.896 12.016 13.677 20.259 26.164 22.083l247.921 36.027c23.929 3.465 44.618 18.475 55.301 40.169l110.868 224.669c5.577 11.319 16.465 18.065 29.076 18.065 12.631 0 23.498-6.746 29.096-18.065l110.868-224.669c10.683-21.694 31.352-36.703 55.28-40.169l247.942-36.027c12.487-1.825 22.268-10.068 26.164-22.083 3.896-11.995 0.841-24.421-8.202-33.238l-179.395-174.863c-17.306-16.875-25.2-41.173-21.099-65.020z" />
<glyph unicode="&#xe929;" glyph-name="like" d="M1022.306 640.139c-14.947 164.519-131.395 283.881-277.126 283.881-97.089 0-185.985-52.247-236.006-135.983-49.568 84.82-134.821 136.003-230.354 136.003-145.712 0-262.179-119.362-277.106-283.881-1.182-7.267-6.026-45.512 8.705-107.881 21.23-89.96 70.266-171.786 141.773-236.577l356.747-323.741 362.871 323.721c71.507 64.811 120.544 146.618 141.773 236.597 14.731 62.349 9.886 100.594 8.724 107.861zM975.239 541.298c-19.378-82.161-64.299-157.016-129.78-216.332l-336.285-300.030-330.515 299.951c-65.599 59.435-110.5 134.27-129.898 216.431-13.943 59.021-8.212 92.362-8.192 92.579l0.295 1.989c12.801 144.136 112.863 248.768 237.956 248.768 92.303 0 173.558-56.717 212.118-147.996l18.138-42.991 18.138 42.991c37.949 89.881 123.498 147.977 217.987 147.977 125.073 0 225.155-104.631 238.212-250.638 0.039-0.315 5.77-33.676-8.173-92.697z" />
<glyph unicode="&#xe92a;" glyph-name="hands" d="M167.724 200.828c-48.675 0-88.276-39.601-88.276-88.276s39.601-88.276 88.276-88.276 88.276 39.601 88.276 88.276-39.601 88.276-88.276 88.276zM167.724 59.586c-29.202 0-52.966 23.764-52.966 52.966s23.764 52.966 52.966 52.966 52.966-23.764 52.966-52.966-23.764-52.966-52.966-52.966zM997.517 342.069c0 44.050-24.276 64.653-47.934 74.734 18.538 16.19 30.279 40.007 30.279 66.507 0 48.675-39.601 88.276-88.276 88.276h-253.634l12.871 60.204c17.178 80.313 5.897 171.538 2.048 197.579-9.145 61.67-63.682 130.631-122.986 130.631h-4.22c-28.178 0-75.458-16.049-75.458-123.586 0-141.647-35.346-206.46-64.989-235.873-29.078-28.849-57.044-28.531-58.598-28.954h-17.655v35.31h-282.483v-670.897h282.483v35.31h494.345c48.675 0 88.276 39.601 88.276 88.276 0 20.551-7.062 39.477-18.873 54.502 40.854 7.715 71.839 43.679 71.839 86.74 0 20.551-7.062 39.477-18.873 54.502 40.854 7.715 71.839 43.679 71.839 86.74zM61.793-28.69v600.276h211.862v-600.276h-211.862zM909.241 289.103h-194.207c-9.746 0-17.655-7.892-17.655-17.655s7.91-17.655 17.655-17.655h141.241c29.202 0 52.966-23.764 52.966-52.966s-23.764-52.966-52.966-52.966h-176.552c-9.746 0-17.655-7.892-17.655-17.655s7.91-17.655 17.655-17.655h123.586c29.202 0 52.966-23.764 52.966-52.966s-23.764-52.966-52.966-52.966h-494.345v529.655l17.108 0.018c1.713-0.335 42.726-0.883 82.662 37.853 50.953 49.364 76.782 137.604 76.782 262.268 0 32.962 5.208 88.276 40.148 88.276h4.22c39.389 0 81.355-55.261 88.046-100.476 3.655-24.576 14.301-110.521-1.642-185.026l-21.981-102.912h297.278c29.202 0 52.966-23.764 52.966-52.966s-23.764-52.966-52.966-52.966h-176.552c-9.746 0-17.655-7.892-17.655-17.655s7.91-17.655 17.655-17.655h123.586c15.59 0 49.876-0.706 68.043-3.407 46.098-6.833 55.543-24.753 55.543-49.558 0-29.202-23.764-52.966-52.966-52.966z" />
<glyph unicode="&#xe92b;" glyph-name="bars" d="M512 960c-282.313 0-512-229.687-512-512s229.687-512 512-512 512 229.687 512 512-229.687 512-512 512zM512-27.429c-262.162 0-475.429 213.285-475.429 475.429s213.266 475.429 475.429 475.429 475.429-213.285 475.429-475.429-213.266-475.429-475.429-475.429zM731.429 667.429h-438.857c-10.112 0-18.286-8.192-18.286-18.286s8.174-18.286 18.286-18.286h438.857c10.112 0 18.286 8.192 18.286 18.286s-8.174 18.286-18.286 18.286zM731.429 466.286h-438.857c-10.112 0-18.286-8.192-18.286-18.286s8.174-18.286 18.286-18.286h438.857c10.112 0 18.286 8.192 18.286 18.286s-8.174 18.286-18.286 18.286zM731.429 265.143h-438.857c-10.112 0-18.286-8.192-18.286-18.286s8.174-18.286 18.286-18.286h438.857c10.112 0 18.286 8.192 18.286 18.286s-8.174 18.286-18.286 18.286z" />
<glyph unicode="&#xe92c;" glyph-name="round" d="M512 960c-282.329 0-512-229.671-512-512s229.671-512 512-512 512 229.671 512 512-229.671 512-512 512zM512-24.615c-260.588 0-472.615 212.027-472.615 472.615s212.027 472.615 472.615 472.615 472.615-212.027 472.615-472.615-212.027-472.615-472.615-472.615zM512 231.385c-10.89 0-19.692-8.802-19.692-19.692v-39.385c0-10.89 8.802-19.692 19.692-19.692s19.692 8.802 19.692 19.692v39.385c0 10.89-8.802 19.692-19.692 19.692zM514.225 782.75c-0.748 0-1.497 0.020-2.265 0.020-41.669 0-80.857-16.049-110.572-45.371-30.247-29.834-46.927-69.671-46.927-112.167 0-10.89 8.802-19.692 19.692-19.692s19.692 8.802 19.692 19.692c0 31.862 12.505 61.755 35.19 84.126 22.705 22.39 52.933 34.757 84.657 34.009 62.247-0.866 115.574-54.193 116.441-116.441 0.571-41.039-19.673-78.809-54.174-101.061-52.382-33.792-83.653-93.499-83.653-159.744v-55.966c0-10.89 8.802-19.692 19.692-19.692s19.692 8.802 19.692 19.692v55.966c0 52.027 25.127 100.529 65.615 126.661 45.982 29.657 72.98 80.010 72.212 134.695-1.182 84.421-70.853 154.092-155.294 155.274z" />
<glyph unicode="&#xe92d;" glyph-name="success" d="M512 960c-282.309 0-512-229.671-512-512s229.691-512 512-512 512 229.671 512 512-229.691 512-512 512zM512-24.615c-260.588 0-472.615 212.027-472.615 472.615s212.027 472.615 472.615 472.615 472.615-212.027 472.615-472.615-212.027-472.615-472.615-472.615zM753.27 657.999l-302.651-340.48-182.331 145.861c-8.468 6.794-20.894 5.396-27.668-3.072-6.794-8.507-5.415-20.894 3.072-27.687l196.923-157.538c3.623-2.895 7.975-4.313 12.308-4.313 5.435 0 10.85 2.245 14.73 6.617l315.077 354.462c7.227 8.113 6.498 20.578-1.634 27.786-8.153 7.247-20.578 6.518-27.825-1.634z" />
<glyph unicode="&#xe92e;" glyph-name="error" d="M512 960c-282.309 0-512-229.671-512-512s229.691-512 512-512 512 229.671 512 512-229.691 512-512 512zM512-24.615c-260.588 0-472.615 212.027-472.615 472.615s212.027 472.615 472.615 472.615 472.615-212.027 472.615-472.615-212.027-472.615-472.615-472.615zM703.153 639.153c-7.7 7.7-20.145 7.7-27.845 0l-163.308-163.308-163.308 163.308c-7.7 7.7-20.145 7.7-27.845 0s-7.7-20.145 0-27.845l163.308-163.308-163.308-163.308c-7.7-7.7-7.7-20.145 0-27.845 3.84-3.84 8.881-5.77 13.922-5.77s10.082 1.93 13.922 5.77l163.308 163.308 163.308-163.308c3.84-3.84 8.881-5.77 13.922-5.77s10.082 1.93 13.922 5.77c7.7 7.7 7.7 20.145 0 27.845l-163.308 163.308 163.308 163.308c7.7 7.7 7.7 20.145 0 27.845z" />
<glyph unicode="&#xe92f;" glyph-name="play-button" d="M777.609 462.097l-375.467 256c-5.239 3.55-11.998 3.942-17.596 0.99-5.581-2.953-9.079-8.755-9.079-15.087v-512c0-6.332 3.499-12.134 9.097-15.087 2.492-1.331 5.239-1.98 7.97-1.98 3.362 0 6.724 1.007 9.609 2.97l375.467 256c4.659 3.174 7.458 8.448 7.458 14.097s-2.799 10.923-7.458 14.097zM409.6 224.307v447.386l328.107-223.693-328.107-223.693zM512 960c-282.317 0-512-229.683-512-512s229.683-512 512-512 512 229.683 512 512-229.683 512-512 512zM512-29.867c-263.492 0-477.867 214.374-477.867 477.867s214.374 477.867 477.867 477.867 477.867-214.374 477.867-477.867-214.374-477.867-477.867-477.867z" />
<glyph unicode="&#xe930;" glyph-name="puzzle-part" d="M511.947-64l-511.919 511.98 196.685 196.682c9.562 9.507 18.815 14.153 28.322 14.153 23.587 0 31.296-24.091 38.043-45.312 4.781-14.887 10.152-31.636 19.136-42.035l2.094-1.993c24.733-24.66 67.713-24.678 92.302-0.018 12.371 12.353 19.191 28.692 19.191 46.092 0 17.455-6.802 33.849-19.136 46.22l-1.975 1.938c-10.546 9.397-26.91 15.208-41.485 20.356-20.053 7.083-39.033 13.796-43.246 32.443-3.946 17.4 9.25 30.654 13.631 35.032l208.372 208.463 198.29-198.308c0.275-0.284 0.587-0.559 0.844-0.825 2.494 5.487 5.359 13.573 7.636 20.053 7.706 21.753 17.326 48.855 36.86 68.44l1.779 1.687c22.963 22.147 53.067 34.307 84.969 34.307 32.748 0 63.549-12.769 86.751-35.943 23.092-23.101 35.866-53.847 35.866-86.555-0.055-29.829-10.574-58.022-30.028-80.335v-0.391l-5.857-6.184c-19.64-19.68-47.91-28.735-70.58-36.050-6.297-2.030-14.077-4.506-19.64-6.783l185.121-185.13-200.042-200.115c-6.811-6.756-17.418-15.786-31.186-15.786v0c-25.369 0-33.794 26.249-41.888 51.637-5.799 18.191-12.334 38.565-23.495 51.637l-3.048 2.809c-15.511 15.584-36.27 24.174-58.316 24.174-21.991 0-42.717-8.593-58.316-24.174-32.125-32.143-32.125-84.458 0-116.632 13.362-13.365 34.784-20.909 53.673-27.628 24.064-8.498 44.863-15.822 49.451-36.050 4.261-18.76-10.516-33.519-15.382-38.4l-183.476-183.455z" />
<glyph unicode="&#xe931;" glyph-name="house" d="M1001.324 574.966h-451.325v75.147h10.884c12.523 0 22.676 10.152 22.676 22.676v73.382c0 12.523-10.152 22.676-22.676 22.676h-538.208c-12.523 0-22.676-10.152-22.676-22.676v-73.382c0-12.523 10.152-22.676 22.676-22.676h10.884v-485.678c0-12.523 10.152-22.676 22.676-22.676h471.088c12.523 0 22.676 10.152 22.676 22.676v291.798h364.441v-291.798c0-12.523 10.152-22.676 22.676-22.676s22.676 10.152 22.676 22.676v291.798h41.532c12.523 0 22.676 10.152 22.676 22.676v73.382c0 12.527-10.149 22.676-22.676 22.676zM978.649 501.584h-428.649v28.030h428.649v-28.030zM45.351 695.465v28.030h492.86v-28.030h-492.86zM78.912 650.114h425.737v-463.003h-133.735v159.245c0 12.523-10.152 22.676-22.676 22.676h-112.912c-12.523 0-22.676-10.152-22.676-22.676v-159.245h-133.738v463.003zM325.562 187.111h-67.561v136.569h67.561v-136.569zM854.486 312.715v44.227c0 30.373-24.71 55.083-55.083 55.083h-129.009c-30.373 0-55.083-24.71-55.083-55.083v-44.227c-18.824-6.851-32.326-24.872-32.326-46.035v-90.016c0-12.523 10.152-22.676 22.676-22.676h12.993v-4.166c0-12.523 10.152-22.676 22.676-22.676s22.676 10.152 22.676 22.676v4.166h141.788v-4.166c0-12.523 10.152-22.676 22.676-22.676s22.676 10.152 22.676 22.676v4.166h12.993c12.523 0 22.676 10.152 22.676 22.676v90.016c-0.003 21.163-13.505 39.184-32.329 46.035zM628.338 199.343v67.34c0 2.025 1.649 3.673 3.673 3.673h205.776c2.025 0 3.673-1.649 3.673-3.673v-67.34h-213.123zM670.395 366.674h129.009c5.364 0 9.731-4.367 9.731-9.731v-41.234h-148.471v41.234c0 5.364 4.367 9.731 9.731 9.731zM662.212 247.406c-5.96 0-11.795-2.397-16.035-6.641-4.211-4.211-6.641-10.074-6.641-16.035s2.43-11.791 6.641-16.035c4.244-4.211 10.074-6.641 16.035-6.641 5.993 0 11.821 2.43 16.032 6.641 4.214 4.211 6.644 10.074 6.644 16.035 0 5.993-2.43 11.824-6.644 16.035-4.211 4.244-10.042 6.641-16.032 6.641zM807.563 247.406c-5.964 0-11.795-2.397-16.035-6.641-4.211-4.211-6.641-10.042-6.641-16.035 0-5.96 2.43-11.791 6.641-16.035 4.244-4.211 10.071-6.641 16.035-6.641 5.96 0 11.821 2.43 16.032 6.641 4.214 4.244 6.644 10.074 6.644 16.035 0 5.993-2.43 11.824-6.644 16.035-4.211 4.244-10.039 6.641-16.032 6.641zM181.584 583.913c-12.523 0-22.676-10.152-22.676-22.676v-47.82c0-12.523 10.152-22.676 22.676-22.676s22.676 10.152 22.676 22.676v47.82c0 12.523-10.152 22.676-22.676 22.676zM291.781 490.742c12.523 0 22.676 10.152 22.676 22.676v47.82c0 12.523-10.152 22.676-22.676 22.676s-22.676-10.152-22.676-22.676v-47.82c0-12.523 10.152-22.676 22.676-22.676zM401.979 490.742c12.523 0 22.676 10.152 22.676 22.676v47.82c0 12.523-10.152 22.676-22.676 22.676s-22.676-10.152-22.676-22.676v-47.82c0-12.523 10.152-22.676 22.676-22.676z" />
<glyph unicode="&#xe932;" glyph-name="android" d="M84.396 633.671c-31.851 0-57.669-25.193-57.669-56.265v-225.054c0-31.074 25.82-56.265 57.669-56.265s57.669 25.191 57.669 56.265v225.056c0 31.072-25.816 56.263-57.669 56.263zM939.602 633.671c31.851 0 57.669-25.193 57.669-56.265v-225.054c0-31.074-25.82-56.265-57.669-56.265s-57.669 25.191-57.669 56.265v225.056c0 31.072 25.822 56.263 57.669 56.263zM164.571 633.671c0 0 0-360.088 0-405.098s53.631-67.517 67.517-67.517h84.394v-168.792c0-31.074 25.82-56.265 57.669-56.265s57.673 25.191 57.673 56.265v168.792h157.538v-168.792c0-31.074 25.82-56.265 57.669-56.265s57.669 25.191 57.669 56.265v168.792h90.023c13.885 0 67.517 22.506 67.517 67.517s0 405.098 0 405.098h-697.667zM862.242 656.175c0 72.096-28.849 138.313-77.019 190.408 0.032 0.032 0.065 0.057 0.099 0.089l63.653 63.655c8.791 8.789 8.791 23.039 0 31.829-8.789 8.789-23.037 8.789-31.823 0l-63.655-63.655c-0.355-0.355-0.673-0.734-0.998-1.106-62.446 51.211-146.554 82.605-239.091 82.605-95.591 0-182.186-33.498-245.192-87.735-1.075 2.254-2.521 4.371-4.383 6.236l-63.657 63.653c-8.789 8.789-23.039 8.789-31.827 0s-8.789-23.039 0-31.829l63.655-63.653c1.755-1.755 3.738-3.146 5.84-4.199-45.918-51.448-73.276-116.087-73.276-186.296l697.675-0.002zM656.879 836.219c24.857 0 45.010-20.153 45.010-45.012 0-24.855-20.155-45.010-45.010-45.010-24.859 0-45.012 20.153-45.012 45.010 0.002 24.861 20.153 45.012 45.012 45.012zM364.308 836.219c24.859 0 45.010-20.153 45.010-45.012 0-24.855-20.151-45.010-45.010-45.010s-45.010 20.153-45.010 45.010c0 24.861 20.151 45.012 45.010 45.012z" />
<glyph unicode="&#xe933;" glyph-name="video" d="M1008.706 481.557l-693.229 345.69c-13.651 6.8-30.231 1.259-37.038-12.392l-147.894-296.573c-3.269-6.555-3.799-14.14-1.475-21.085 2.324-6.948 7.309-12.685 13.867-15.954l206.98-103.21-18.364-36.827c-6.805-13.651-1.259-30.231 12.392-37.038l6.525-3.256-35.663-63.512h-210.282c-19.556 37.823-59.005 63.698-104.525 63.698v-235.25c44.468 0 83.162 24.682 103.156 61.089h243.983c19.969 0 38.381 10.774 48.159 28.185l54.151 96.43 9.414-4.693c13.648-6.805 30.234-1.256 37.041 12.389l18.364 36.827 154.645-77.121c8.92-4.448 19.543-3.748 27.798 1.842l42.682 28.871 76.207-38.002c3.867-1.931 8.086-2.904 12.323-2.904 2.953 0 5.911 0.479 8.762 1.432 6.948 2.318 12.685 7.309 15.954 13.862l78.021 156.462 80.907 53.255c8.252 5.432 12.973 14.858 12.382 24.718-0.591 9.865-6.405 18.657-15.243 23.067z" />
<glyph unicode="&#xe934;" glyph-name="signing-the-contract" d="M570.782 777.684h-349.075c-25.709 0-46.559-20.85-46.559-46.538s20.85-46.538 46.559-46.538h349.075c25.753 0 46.559 20.85 46.559 46.538-0.022 25.687-20.829 46.538-46.559 46.538zM617.319 556.609c0 25.709-20.807 46.538-46.559 46.538h-349.053c-25.709 0-46.559-20.85-46.559-46.538 0-25.709 20.85-46.559 46.559-46.559h349.075c25.731 0 46.538 20.85 46.538 46.559zM396.266 335.513c25.709 0 46.538 20.85 46.538 46.538 0 25.709-20.829 46.559-46.538 46.559h-174.559c-25.709 0-46.559-20.85-46.559-46.559s20.85-46.538 46.559-46.538h174.559zM747.607 177.185l-48.825-32.223v-115.865h-605.075v837.806h605.075v-183.928l93.097 161.247v69.24c0 25.709-20.85 46.538-46.559 46.538h-698.172c-25.709 0-46.538-20.85-46.538-46.538v-930.947c0-25.709 20.829-46.538 46.538-46.538h698.172c25.731 0 46.581 20.85 46.581 46.538v256.545l-22.245-38.476c-5.425-9.39-13.051-17.473-22.049-23.399zM1022.845 744.437c-0.959 4.183-10.785 41.788-70.002 75.994-59.218 34.184-96.692 23.901-100.831 22.615-5.556-1.765-10.24-5.512-13.159-10.567l-290.903-503.852c-1.808-3.159-2.876-6.667-3.094-10.284l-10.894-181.814c-0.523-8.802 3.965-17.125 11.569-21.548 7.669-4.401 17.103-4.096 24.467 0.719l152.010 100.352c3.028 1.961 5.534 4.641 7.342 7.756l290.925 503.939c2.919 5.055 3.813 10.981 2.571 16.689zM628.649 196.249c-7.734 6.253-16.515 12.157-25.949 17.626-9.477 5.469-18.977 10.066-28.258 13.682l3.246 54.512c12.135-1.59 30.132-6.514 52.987-19.674 22.833-13.181 36.058-26.341 43.553-36.036l-45.579-30.11zM325.109 120.451c1.525-9.347 12.31-12.244 19.521-15.251 6.972-2.941 15.295 2.636 21.090 5.447 35.513 17.277 83.619-3.028 121.66-3.028 22.506 0 22.506 34.903 0 34.903-44.359 0-81.266 11.22-125.233 3.965 0 2.549-0.937 5.991-3.682 10.676-8.214 14.053-18.672 18.040-29.151 16.34-0.697 1.656-1.373 3.312-2.353 4.989-2.745 4.488-6.58 6.732-10.894 7.669 12.266 21.439 20.175 44.119 12.135 62.464-2.462 5.578-9.456 8.432-15.077 8.65-23.312 0.871-43.313-23.596-58.303-38.28-37.496-36.755-70.525-78.478-102.487-120.004-13.726-17.844 16.624-35.186 30.132-17.648 28.323 36.777 58.324 72.486 90.613 105.886-7.778-12.767-16.035-25.295-24.729-37.365-12.419-19.195 17.234-35.535 30.132-17.626 3.072 4.684 6.972 8.061 11.242 10.959-0.85-2.157-1.721-4.27-2.593-6.449 0.044 0 0.087-0.022 0.131-0.044-0.675-1.394-1.351-2.789-1.895-4.118-7.8-19.543 21.33-28.498 31.918-13.421 2.68 3.791 5.164 7.843 7.408 12.092-0.153-2.919-0.218-6.841 0.414-10.806z" />
<glyph unicode="&#xe935;" glyph-name="cold" d="M964.008 944.385c-9.211-9.53-19.338-19.484-31.556-25.023-7.169-3.253-14.625-4.088-22.281-2.102-6.903 1.792-13.414 5.165-19.424 8.945-9.191 5.78-18.417 11.122-28.894 14.275-12.962 3.902-26.93 4.409-39.989 0.662-12.225-3.508-23.087-10.721-31.268-20.432-6.994-8.305-13.106-19.3-14.094-30.307 13.525 8.433 29.12 16.402 45.305 17.294 9.835 0.54 19.405-1.911 28.259-6.084 6.405-3.019 12.296-6.934 18.319-10.621 19.588-11.983 44.975-16.791 66-5.561 10.768 5.749 19.125 15.405 24.162 26.436 4.471 9.778 7.189 21.761 5.463 32.517zM842.029 637.936v227.014h-110.634v-121.071l-226.554 216.121-445.374-425.666 67.238-64.39 378.136 362.104 378.134-362.104 67.24 64.39zM812.025 132.335v340.968l-307.184 294.162-307.184-294.162v-301.47c-19.256-13.959-36.847-30.274-52.287-48.604-31.459-37.345-58.951-86.811-63.398-136.317 60.838 37.925 130.986 73.774 203.776 77.789 44.246 2.432 87.269-8.599 127.095-27.362 28.803-13.578 55.301-31.191 82.413-47.774 88.107-53.904 202.279-75.523 296.859-25.014 48.436 25.854 86.012 69.289 108.674 118.899 20.1 43.98 32.331 97.88 24.567 146.267-34.025-35.197-70.837-71.656-113.331-97.381zM470.922 189.838h-119.293v119.291h119.293v-119.291zM470.922 376.969h-119.293v119.295h119.293v-119.295zM658.056 189.838h-119.293v119.291h119.293v-119.291zM658.056 376.969h-119.293v119.295h119.293v-119.295z" />
<glyph unicode="&#xe936;" glyph-name="luxury" d="M229.879 458.448h564.247v208.98h-564.247v-208.98zM731.43 646.529v-167.184h-83.592v167.184h83.592zM543.348 646.529h83.592v-167.184h-83.592v167.184zM480.655 646.529v-167.184h-83.592v167.184h83.592zM292.572 646.529h83.592v-167.184h-83.592v167.184zM555.868 808.407c121.834-14.776 203.962-75.399 238.256-105.953v132.158h-233.515l-4.74-26.205zM229.879 705.441c31.411 31.723 102.651 88.524 217.381 102.902l-4.764 26.269h-212.616v-129.171zM532.899 730.121h-71.408l-10.47 57.553c-111.344-13.96-180.183-70.718-208.311-99.349h535.53c-33.688 29.11-112.494 85.64-226.137 99.412l-10.492-57.616h-8.711zM188.081 918.204h239.2l-3.805 20.899h-235.395zM575.823 918.204h260.097v20.899h-256.292zM431.083 897.305h-233.933l27.879-41.794h213.661zM564.413 855.511h234.56l27.877 41.794h-254.83zM626.939 437.552h-397.061v-501.552h564.247v501.552h-167.186zM543.348 395.753h83.592v-83.592h-83.592v83.592zM626.939 207.673h-83.592v83.592h83.592v-83.592zM397.063 291.265h83.592v-83.592h-83.592v83.592zM376.164 207.673h-83.592v83.592h83.592v-83.592zM292.572 165.877h83.592v-83.592h-83.592v83.592zM397.063 165.877h83.592v-83.592h-83.592v83.592zM543.348 165.877h83.592v-83.592h-83.592v83.592zM647.839 165.877h83.592v-83.592h-83.592v83.592zM731.43 207.673h-83.592v83.592h83.592v-83.592zM480.655 395.753v-83.592h-83.592v83.592h83.592zM292.572 395.753h83.592v-83.592h-83.592v83.592zM292.572 61.386h83.592v-83.592h-83.592v83.592zM480.655-22.206h-83.592v83.592h83.592v-83.592zM543.348 61.386h83.592v-83.592h-83.592v83.592zM731.43-22.206h-83.592v83.592h83.592v-83.592zM731.43 395.753v-83.592h-83.592v83.592h83.592zM562.175 960h-121.249l3.805-20.897 7.605-41.798 7.588-41.794 3.803-20.899 4.366-23.948 3.763-20.775 7.063-38.87h45.264l7.063 38.87 3.783 20.794 4.349 23.928 3.803 20.899 7.586 41.794 7.605 41.798z" />
<glyph unicode="&#xe937;" glyph-name="sofa" d="M736.759 366.319h-449.502c-76.129 0-89.442-29.018-89.442-64.836v-17.985h628.378v17.981c0 35.875-13.318 64.84-89.434 64.84zM201.53 390.605h305.611v258.864c-30.078 36.015-88.446 60.837-156.504 60.837h-67.43c-98.561 0-178.472-51.39-178.472-114.769v-76.581c57.847-21.744 96.82-60.589 96.82-105.218l-0.024-23.133zM919.294 595.477c0 63.443-79.919 114.761-178.444 114.761h-67.426c-68.067 0-126.442-24.786-156.556-60.829v-258.864h305.603v23.129c0 44.629 38.977 83.418 96.824 105.218v76.585zM0 516.071v-330.377h166.632v228.049c0 56.478-74.667 102.328-166.632 102.328zM857.36 413.743v-228.049h166.64v330.377c-91.968 0-166.64-45.85-166.64-102.328zM197.815 275.16h628.378v-89.466h-628.378v89.466z" />
<glyph unicode="&#xe938;" glyph-name="magnifying-glass" d="M1001.239 70.148l-211.077 211.068c50.868 73.43 76.314 155.291 76.314 245.538 0 58.666-11.389 114.773-34.168 168.309-22.763 53.545-53.536 99.696-92.305 138.466s-84.914 69.542-138.448 92.308c-53.551 22.772-109.654 34.157-168.32 34.157-58.662 0-114.769-11.385-168.305-34.157-53.545-22.765-99.696-53.538-138.466-92.308-38.774-38.769-69.542-84.93-92.31-138.466-22.77-53.542-34.155-109.643-34.155-168.309 0-58.662 11.385-114.75 34.155-168.301 22.765-53.536 53.536-99.681 92.31-138.45 38.769-38.782 84.93-69.542 138.466-92.32 53.542-22.768 109.643-34.15 168.305-34.15 90.266 0 172.114 25.449 245.548 76.312l211.077-210.456c14.769-15.586 33.206-23.384 55.379-23.384 21.332 0 39.804 7.796 55.381 23.384 15.584 15.584 23.382 34.047 23.382 55.379 0.006 21.731-7.583 40.201-22.763 55.381zM628.006 332.005c-53.948-53.956-118.866-80.933-194.771-80.933-75.892 0-140.811 26.984-194.763 80.933s-80.927 118.858-80.927 194.763c0 75.892 26.981 140.821 80.927 194.763 53.941 53.954 118.871 80.927 194.763 80.927 75.896 0 140.815-26.984 194.771-80.927 53.956-53.941 80.931-118.871 80.931-194.763 0-75.905-26.984-140.815-80.931-194.763z" />
<glyph unicode="&#xe939;" glyph-name="photo-camera-1" d="M942.097 695.467h-145.476l-68.267 170.667h-432.708l-68.267-170.667h-22.579v85.333h-102.4v-85.333h-20.497c-45.175 0-81.903-36.727-81.903-81.903v-501.214c0-45.483 37.001-82.483 82.483-82.483h859.034c45.483 0 82.483 37.001 82.483 82.483v501.214c0 45.175-36.727 81.903-81.903 81.903zM136.533 746.667h34.133v-51.2h-34.133v51.2zM989.867 112.35c0-26.675-21.692-48.35-48.35-48.35h-859.034c-26.658 0-48.35 21.692-48.35 48.35v501.214c0 26.334 21.436 47.77 47.77 47.77h168.585l68.267 170.667h386.492l68.267-170.667h168.585c26.334 0 47.77-21.436 47.77-47.77v-501.214zM512 712.533c-169.387 0-307.2-137.813-307.2-307.2s137.813-307.2 307.2-307.2 307.2 137.813 307.2 307.2-137.813 307.2-307.2 307.2zM512 132.267c-150.562 0-273.067 122.505-273.067 273.067s122.505 273.067 273.067 273.067 273.067-122.505 273.067-273.067-122.505-273.067-273.067-273.067zM512 610.133c-112.93 0-204.8-91.87-204.8-204.8s91.87-204.8 204.8-204.8 204.8 91.87 204.8 204.8-91.87 204.8-204.8 204.8zM512 234.667c-94.106 0-170.667 76.561-170.667 170.667s76.561 170.667 170.667 170.667 170.667-76.561 170.667-170.667-76.561-170.667-170.667-170.667zM887.467 627.2c-37.649 0-68.267-30.618-68.267-68.267s30.618-68.267 68.267-68.267 68.267 30.618 68.267 68.267-30.618 68.267-68.267 68.267zM887.467 524.8c-18.825 0-34.133 15.309-34.133 34.133s15.309 34.133 34.133 34.133 34.133-15.309 34.133-34.133-15.309-34.133-34.133-34.133z" />
<glyph unicode="&#xe93a;" glyph-name="placeholder" d="M517.926 514.963c64.603 0 117.185 52.583 117.185 117.185s-52.583 117.185-117.185 117.185-117.185-52.583-117.185-117.185 52.566-117.185 117.185-117.185zM517.926 715.852c46.154 0 83.704-37.55 83.704-83.704s-37.55-83.704-83.704-83.704-83.704 37.55-83.704 83.704 37.55 83.704 83.704 83.704zM840.655 330.815h-119.881l51.009 73.659c96.343 128.419 82.398 339.503-29.815 451.7-60.618 60.635-141.242 94.033-227.005 94.033-85.746 0-166.37-33.398-227.005-94.033-112.213-112.197-126.159-323.298-30.2-451.197l51.361-74.178h-125.773l-183.345-385.021h1024l-183.345 385.038zM284.928 424.563c-87.035 116.064-74.563 306.691 26.718 407.956 54.307 54.307 126.527 84.223 203.334 84.223s149.010-29.916 203.334-84.223c101.282-101.265 113.754-291.909 26.333-408.458l-229.683-331.685-230.035 332.187zM204.505 297.333h127.799l182.659-263.784 182.642 263.784h121.89l151.471-318.075h-917.93l151.471 318.075z" />
<glyph unicode="&#xe93b;" glyph-name="construction" d="M550.398 158.463c-8.062 0-14.598-6.534-14.598-14.598v-30.168c0-8.062 6.534-14.598 14.598-14.598 8.062 0 14.598 6.534 14.598 14.598v30.168c0 8.062-6.536 14.598-14.598 14.598zM363.039 275.251h-97.26c-11.29 0-20.474-9.184-20.474-20.474v-122.854h-0.002c0-11.29 9.186-20.474 20.474-20.474h97.262c11.29 0 20.474 9.184 20.474 20.474v122.854c0 11.29-9.186 20.474-20.474 20.474zM354.319 140.643h-79.82v105.414h79.82v-105.414zM758.217 275.251h-97.264c-11.288 0-20.472-9.184-20.472-20.474v-122.854c0-11.29 9.184-20.474 20.472-20.474h97.264c11.288 0 20.472 9.184 20.472 20.474v122.854c0 11.29-9.184 20.474-20.472 20.474zM749.495 140.643h-79.818v105.414h79.818v-105.414zM363.039 553.028h-97.26c-11.29 0-20.474-9.184-20.474-20.474v-122.854h-0.002c0-11.29 9.186-20.474 20.474-20.474h97.262c11.29 0 20.474 9.184 20.474 20.474v122.854c0 11.29-9.186 20.474-20.474 20.474zM354.319 418.42h-79.82v105.414h79.82v-105.414zM560.628 553.028h-97.262c-11.29 0-20.474-9.184-20.474-20.474v-122.854c0-11.29 9.186-20.474 20.474-20.474h97.262c11.29 0 20.474 9.184 20.474 20.474v122.854c0 11.29-9.184 20.474-20.474 20.474zM551.908 418.42h-79.82v105.414h79.82v-105.414zM758.217 553.028h-97.264c-11.288 0-20.472-9.184-20.472-20.474v-122.854c0-11.29 9.184-20.474 20.472-20.474h97.264c11.288 0 20.472 9.184 20.472 20.474v122.854c0 11.29-9.184 20.474-20.472 20.474zM749.495 418.42h-79.818v105.414h79.818v-105.414zM363.041 808.417h-97.262c-11.29 0-20.474-9.184-20.474-20.474v-122.854c-0.002-11.29 9.184-20.474 20.474-20.474h97.262c11.29 0 20.474 9.184 20.474 20.474v122.854c0 11.29-9.186 20.474-20.474 20.474zM354.319 673.809h-79.82v105.414h79.82v-105.414zM560.628 808.417h-97.262c-11.29 0-20.474-9.184-20.474-20.474v-122.854c0-11.29 9.186-20.474 20.474-20.474h97.262c11.29 0 20.474 9.184 20.474 20.474v122.854c0 11.29-9.184 20.474-20.474 20.474zM551.908 673.809h-79.82v105.414h79.82v-105.414zM758.219 808.417h-97.264c-11.288 0-20.472-9.184-20.472-20.474v-122.854c-0.002-11.29 9.182-20.474 20.472-20.474h97.264c11.288 0 20.472 9.184 20.472 20.474v122.854c0 11.29-9.184 20.474-20.472 20.474zM749.495 673.809h-79.818v105.414h79.818v-105.414zM936.57 15.802h-22.674c-2.858 37.688-29.284 68.876-64.55 78.832l-0.49 777.361h17.706c10.462 0 18.972 8.51 18.972 18.97v50.066c0 10.46-8.51 18.97-18.972 18.97h-101.6c-8.062 0-14.598-6.534-14.598-14.598s6.534-14.598 14.598-14.598h91.376v-29.616h-688.679v29.616h506.008c8.062 0 14.598 6.534 14.598 14.598s-6.536 14.598-14.598 14.598h-516.234c-10.46 0-18.97-8.51-18.97-18.97v-50.068c0-10.46 8.51-18.97 18.97-18.97h17.142l0.31-490.932c0.004-8.060 6.54-14.588 14.598-14.588 0.002 0 0.006 0 0.010 0 8.062 0.006 14.592 6.544 14.588 14.608l-0.31 490.914h615.89l0.488-774.147c-0.048-0.002-0.094-0.010-0.142-0.012-0.508-0.028-1.012-0.088-1.518-0.126-1.202-0.090-2.404-0.18-3.594-0.316-0.65-0.074-1.29-0.182-1.936-0.27-1.038-0.142-2.078-0.28-3.106-0.46-0.698-0.12-1.388-0.272-2.082-0.408-0.962-0.19-1.926-0.378-2.878-0.6-0.718-0.166-1.424-0.358-2.136-0.542-0.918-0.238-1.834-0.474-2.74-0.74-0.716-0.21-1.424-0.442-2.134-0.67-0.886-0.284-1.77-0.572-2.646-0.884-0.708-0.252-1.408-0.522-2.11-0.792-0.858-0.332-1.714-0.668-2.56-1.026-0.698-0.294-1.388-0.6-2.076-0.912-0.834-0.376-1.66-0.764-2.48-1.166-0.678-0.332-1.352-0.674-2.022-1.024-0.812-0.424-1.614-0.862-2.412-1.312-0.656-0.37-1.308-0.744-1.954-1.13-0.79-0.472-1.568-0.96-2.344-1.458-0.63-0.404-1.258-0.808-1.878-1.226-0.77-0.522-1.526-1.064-2.28-1.61-0.598-0.434-1.198-0.864-1.786-1.312-0.752-0.574-1.488-1.172-2.222-1.772-0.564-0.46-1.132-0.912-1.684-1.386-0.74-0.634-1.458-1.294-2.178-1.954-0.52-0.476-1.046-0.94-1.554-1.43-0.742-0.712-1.456-1.456-2.174-2.196-0.458-0.472-0.928-0.93-1.376-1.414-0.778-0.838-1.524-1.708-2.272-2.58-0.36-0.42-0.736-0.822-1.090-1.25-1.086-1.312-2.142-2.658-3.16-4.040-1.668-0.346-3.312-0.762-4.938-1.222-0.536-0.152-1.058-0.332-1.59-0.496-1.084-0.336-2.162-0.68-3.224-1.066-0.61-0.22-1.208-0.46-1.81-0.698-0.968-0.38-1.928-0.776-2.876-1.198-0.61-0.27-1.212-0.548-1.812-0.836-0.934-0.446-1.852-0.916-2.762-1.402-0.568-0.302-1.136-0.6-1.696-0.918-0.968-0.55-1.914-1.134-2.852-1.726-0.464-0.294-0.94-0.572-1.398-0.876-1.372-0.91-2.718-1.858-4.022-2.86-0.084-0.064-0.162-0.136-0.244-0.2-1.224-0.948-2.414-1.936-3.572-2.958-0.418-0.37-0.816-0.762-1.226-1.14-0.806-0.746-1.604-1.498-2.374-2.28-0.45-0.456-0.884-0.926-1.322-1.394-0.702-0.75-1.39-1.512-2.060-2.292-0.426-0.498-0.846-0.998-1.26-1.508-0.654-0.804-1.284-1.626-1.902-2.458-0.378-0.508-0.758-1.012-1.122-1.53-0.65-0.926-1.266-1.874-1.874-2.832-0.284-0.45-0.584-0.888-0.86-1.342-0.858-1.422-1.678-2.872-2.438-4.358-0.054-0.106-0.1-0.218-0.154-0.324-0.7-1.384-1.354-2.796-1.966-4.23-0.22-0.518-0.412-1.048-0.62-1.57-0.308-0.77-0.634-1.53-0.914-2.314h-94.62v234.629c0 13.686-11.134 24.82-24.82 24.82h-138.599c-13.686 0-24.82-11.134-24.82-24.82v-234.631h-94.616c-0.282 0.784-0.608 1.546-0.916 2.318-0.208 0.522-0.4 1.052-0.62 1.566-0.604 1.418-1.252 2.814-1.944 4.184-0.062 0.122-0.114 0.25-0.176 0.374-0.758 1.482-1.576 2.928-2.432 4.346-0.28 0.466-0.586 0.912-0.878 1.372-0.602 0.948-1.212 1.886-1.854 2.802-0.368 0.526-0.754 1.034-1.136 1.55-0.614 0.824-1.238 1.638-1.886 2.436-0.418 0.514-0.842 1.022-1.274 1.524-0.666 0.776-1.35 1.532-2.048 2.278-0.44 0.472-0.878 0.944-1.332 1.404-0.768 0.778-1.56 1.526-2.362 2.268-0.414 0.382-0.816 0.778-1.238 1.15-1.16 1.024-2.35 2.012-3.574 2.958-0.082 0.064-0.158 0.134-0.242 0.198-1.306 1.002-2.652 1.95-4.026 2.862-0.454 0.302-0.924 0.576-1.384 0.868-0.944 0.596-1.894 1.182-2.866 1.734-0.556 0.316-1.12 0.612-1.684 0.912-0.916 0.488-1.838 0.96-2.776 1.41-0.596 0.284-1.194 0.56-1.798 0.83-0.954 0.424-1.92 0.822-2.894 1.206-0.596 0.234-1.19 0.472-1.794 0.69-1.068 0.386-2.152 0.734-3.242 1.072-0.526 0.162-1.044 0.342-1.576 0.492-1.626 0.46-3.27 0.878-4.94 1.224-1.016 1.38-2.068 2.72-3.152 4.030-0.356 0.43-0.732 0.834-1.094 1.256-0.742 0.864-1.484 1.728-2.256 2.56-0.454 0.49-0.93 0.956-1.394 1.434-0.71 0.73-1.416 1.464-2.148 2.168-0.512 0.492-1.040 0.96-1.562 1.44-0.714 0.656-1.428 1.312-2.162 1.942-0.554 0.476-1.122 0.932-1.688 1.392-0.73 0.596-1.46 1.188-2.206 1.76-0.59 0.45-1.19 0.884-1.788 1.32-0.75 0.544-1.504 1.082-2.27 1.602-0.618 0.42-1.244 0.824-1.872 1.228-0.774 0.496-1.552 0.984-2.34 1.456-0.644 0.384-1.29 0.76-1.944 1.128-0.798 0.45-1.602 0.886-2.414 1.312-0.664 0.348-1.33 0.69-2.004 1.022-0.824 0.406-1.656 0.792-2.492 1.172-0.68 0.308-1.362 0.616-2.050 0.908-0.854 0.362-1.716 0.7-2.582 1.034-0.69 0.266-1.378 0.536-2.074 0.784-0.888 0.318-1.788 0.608-2.688 0.898-0.692 0.222-1.38 0.454-2.078 0.66-0.932 0.276-1.876 0.516-2.82 0.762-0.682 0.176-1.358 0.366-2.044 0.526-1.008 0.236-2.030 0.434-3.048 0.634-0.634 0.126-1.262 0.268-1.898 0.38-1.208 0.212-2.43 0.378-3.652 0.54-0.46 0.060-0.914 0.144-1.376 0.198-1.662 0.194-3.332 0.344-5.014 0.446l-0.12 190.723c-0.004 8.060-6.54 14.588-14.598 14.588-0.002 0-0.006 0-0.010 0-8.062-0.006-14.592-6.544-14.588-14.608l0.122-193.775c-35.476-9.826-62.1-41.114-64.968-78.952h-22.674c-22 0-39.898-17.898-39.898-39.898 0-22.002 17.898-39.898 39.898-39.898h849.147c22.002 0 39.898 17.898 39.898 39.898 0 22.006-17.898 39.904-39.9 39.904zM734.511 17.496c0.026 0.034 0.048 0.068 0.074 0.1 0.612 0.792 1.262 1.556 1.926 2.302 0.168 0.19 0.34 0.376 0.512 0.564 0.65 0.704 1.318 1.392 2.012 2.050 0.036 0.034 0.070 0.070 0.106 0.104 0.724 0.68 1.48 1.326 2.25 1.954 0.202 0.164 0.406 0.328 0.61 0.488 0.752 0.592 1.52 1.166 2.31 1.706 0.040 0.028 0.078 0.058 0.118 0.084 0.822 0.558 1.674 1.076 2.536 1.576 0.226 0.132 0.456 0.26 0.686 0.388 0.848 0.472 1.71 0.924 2.594 1.336 0.034 0.016 0.068 0.036 0.102 0.052 0.91 0.422 1.842 0.802 2.784 1.16 0.246 0.094 0.494 0.186 0.744 0.274 0.94 0.336 1.888 0.652 2.856 0.924 0.020 0.006 0.040 0.014 0.062 0.018 0.984 0.274 1.988 0.5 2.998 0.702 0.256 0.052 0.514 0.1 0.772 0.148 1.022 0.186 2.054 0.348 3.1 0.458 4.464 0.47 8.466 2.968 10.848 6.774 11.020 17.616 29.974 28.132 50.702 28.132 1.198 0 2.432-0.044 3.686-0.126 0.064-0.004 0.128-0.010 0.192-0.014 1.25-0.086 2.52-0.208 3.808-0.374 0.056-0.008 0.112-0.006 0.166-0.012 27.044-3.566 48.452-25.274 51.538-52.466h-151.295c0.396 0.574 0.784 1.15 1.204 1.698zM576.924 246.057v-230.255h-129.851v230.255h129.851zM191.379 68.319c0.022 0.002 0.042 0.002 0.064 0.004 1.244 0.152 2.442 0.262 3.62 0.338 0.072 0.004 0.142 0.010 0.212 0.016 1.19 0.074 2.356 0.114 3.51 0.114 20.726 0 39.682-10.516 50.704-28.132 1.562-2.498 3.83-4.416 6.462-5.584 1.378-0.612 2.85-1.028 4.386-1.19 0.004 0 0.006 0 0.010-0.002 1.042-0.11 2.070-0.272 3.088-0.456 0.26-0.046 0.518-0.096 0.776-0.148 1.010-0.202 2.014-0.428 2.998-0.702 0.022-0.006 0.042-0.014 0.064-0.020 0.968-0.27 1.918-0.586 2.856-0.924 0.246-0.088 0.492-0.178 0.736-0.272 0.944-0.358 1.88-0.738 2.79-1.162 0.028-0.012 0.054-0.028 0.082-0.042 0.892-0.416 1.76-0.872 2.616-1.348 0.226-0.124 0.45-0.252 0.672-0.38 0.866-0.502 1.72-1.022 2.548-1.582 0.032-0.020 0.060-0.044 0.092-0.066 0.802-0.546 1.578-1.128 2.34-1.726 0.2-0.158 0.4-0.316 0.596-0.478 0.774-0.63 1.532-1.278 2.258-1.962 0.032-0.030 0.060-0.060 0.092-0.090 0.7-0.66 1.37-1.352 2.022-2.060 0.174-0.188 0.346-0.376 0.516-0.566 0.664-0.744 1.31-1.504 1.92-2.294 0.032-0.042 0.062-0.086 0.094-0.126 0.416-0.542 0.798-1.112 1.188-1.674h-151.299c3.102 27.336 24.73 49.13 51.988 52.514zM936.57-34.802h-849.145c-5.902 0-10.704 4.802-10.704 10.704s4.802 10.704 10.704 10.704h849.145c5.902 0 10.704-4.802 10.704-10.704s-4.802-10.704-10.704-10.704z" />
<glyph unicode="&#xe93c;" glyph-name="home-1" d="M761.834 324.496h-50.836c-11.58 0-21-9.42-21-21v-135.694c0-11.58 9.422-21 21-21h50.836c11.58 0 21 9.42 21 21v135.694c0 11.582-9.42 21-21 21zM752.834 176.802h-32.836v117.694h32.836v-117.694zM896.72 324.496h-50.836c-11.58 0-21-9.42-21-21v-135.694c0-11.58 9.42-21 21-21h50.836c11.58 0 21 9.42 21 21v135.694c0 11.582-9.42 21-21 21zM887.72 176.802h-32.836v117.694h32.836v-117.694zM206.044 649.114c-28.022 8.728-31.396 12.102-40.124 40.124-2.816 9.042-11.070 15.118-20.542 15.118-9.474 0-17.73-6.078-20.54-15.118-8.726-28.022-12.1-31.396-40.122-40.124-9.042-2.816-15.12-11.070-15.12-20.54 0.002-9.476 6.082-17.734 15.12-20.54 28.022-8.726 31.398-12.1 40.12-40.114 2.812-9.048 11.068-15.128 20.542-15.128 9.472 0 17.728 6.078 20.542 15.118 8.728 28.022 12.102 31.398 40.112 40.12 9.050 2.81 15.13 11.066 15.13 20.546 0 9.47-6.076 17.724-15.118 20.538zM145.38 598.512c-6.916 14.648-15.408 23.142-30.060 30.058 14.652 6.918 23.144 15.412 30.060 30.062 6.916-14.65 15.41-23.144 30.058-30.060-14.648-6.914-23.142-15.41-30.058-30.060zM587.142 143.47c-22.412 6.978-24.47 9.036-31.446 31.438-2.664 8.572-10.486 14.33-19.464 14.33-8.968 0-16.788-5.752-19.462-14.322-6.978-22.41-9.034-24.468-31.424-31.442-8.58-2.658-14.344-10.48-14.344-19.466 0-8.978 5.76-16.8 14.322-19.46 22.412-6.98 24.468-9.038 31.45-31.458 2.672-8.562 10.492-14.314 19.46-14.314 8.978 0 16.8 5.76 19.462 14.324 6.98 22.412 9.036 24.468 31.436 31.446 8.574 2.664 14.334 10.486 14.334 19.464 0 8.986-5.766 16.808-14.324 19.46zM536.232 104.786c-4.806 8.536-10.684 14.414-19.22 19.22 8.538 4.806 14.416 10.684 19.22 19.222 4.806-8.534 10.684-14.414 19.222-19.22-8.538-4.804-14.414-10.684-19.222-19.222zM990.264 596.728c-22.41 6.98-24.468 9.038-31.448 31.444-2.664 8.568-10.486 14.326-19.462 14.326-8.97 0-16.79-5.752-19.464-14.322-6.978-22.41-9.034-24.468-31.434-31.444-8.576-2.662-14.336-10.484-14.336-19.464 0-8.97 5.756-16.79 14.324-19.46 22.412-6.98 24.468-9.038 31.45-31.456 2.67-8.564 10.492-14.318 19.46-14.318 8.976 0 16.796 5.758 19.46 14.322 6.98 22.412 9.038 24.47 31.45 31.45 8.568 2.67 14.324 10.49 14.324 19.46 0 8.978-5.76 16.802-14.324 19.462zM939.354 558.046c-4.806 8.536-10.684 14.416-19.222 19.222 8.538 4.808 14.416 10.684 19.222 19.222 4.806-8.536 10.684-14.416 19.222-19.222-8.538-4.808-14.416-10.684-19.222-19.222zM982.436 83.494v112.506c0 8.284-6.716 15-15 15s-15-6.716-15-15v-104.234c-8.974 9.792-21.852 15.952-36.148 15.952-4.768 0-9.49-0.704-14.012-2.054-8.882 13.336-24.054 21.922-40.856 21.922-23.37 0-42.974-16.424-47.878-38.336-5.074 0.722-10.378 0.646-15.452-0.244-4.072 22.97-24.184 40.47-48.304 40.47-27.050 0-49.058-22.008-49.058-49.058v-51.218h-61.36v312.914h313.066v-66.114c0-8.284 6.716-15 15-15s15 6.716 15 15v66.112h15.566c8.87 0 15.914 4.244 18.846 11.352s0.926 15.084-5.364 21.338l-229.758 228.38c-6.758 6.718-18.134 11.41-27.664 11.41-0.002 0-0.004 0-0.006 0 0 0-435.522-0.036-435.558-0.036-8.938 0-19.864-4.668-26.61-11.374l-76.462-76.002c-5.876-5.84-5.904-15.338-0.064-21.212 5.84-5.878 15.338-5.906 21.212-0.064l78.036 77.582 15.022-15.086-193.604-193.604c-1.166-1.122-4.858-2.654-6.47-2.682h-27.58l84.598 84.088c5.876 5.84 5.904 15.338 0.064 21.212-5.838 5.876-15.336 5.904-21.212 0.064l-103.3-102.68c-6.29-6.252-8.292-14.228-5.362-21.336 2.932-7.108 9.976-11.35 18.846-11.35h48.948v-58.754c-4.32-1.912-9.65-3.71-16.434-5.824-9.046-2.814-15.124-11.070-15.124-20.542 0-9.468 6.074-17.724 15.12-20.544 6.784-2.112 12.116-3.912 16.436-5.824v-101.248c-19.56-3.268-35.89-16.204-43.86-33.788-6.858 2.752-14.25 4.192-21.884 4.192-32.428 0.006-58.812-26.378-58.812-58.81v-26.774c0-8.284 6.716-15 15-15h994c8.284 0 15 6.716 15 15v20.81c0 24.508-18.058 44.87-41.564 48.488zM124.556 29.198h-94.556v11.774c0 15.888 12.926 28.812 28.814 28.812 7.908 0 15.296-3.17 20.8-8.928 4.236-4.428 10.742-5.75 16.426-3.468 5.688 2.282 9.416 7.882 9.416 14.010 0 12.476 7.986 23.094 19.1 27.092v-69.292zM971.632 372.114h-400.426c-1.61 0.032-5.282 1.556-6.434 2.67l-34.2 34.346h403.82l37.24-37.016zM844.796 498.192h-54.796c-8.284 0-15-6.716-15-15s6.716-15 15-15h84.978l29.236-29.060h-403.514l-28.936 29.060h234.236c8.284 0 15 6.716 15 15s-6.716 15-15 15h-264.11l-28.938 29.062h402.606l29.238-29.062zM754.054 584.594c1.63-0.028 5.35-1.562 6.522-2.686l24.802-24.654h-402.298l-27.158 27.274 398.132 0.066zM402.368 29.198h-108.662v265.298h108.662v-265.298zM432.368 29.198v270.298c0 13.786-11.214 25-25 25h-118.662c-13.786 0-25-11.214-25-25v-270.298h-109.15v157.368c3.826-3.372 8.826-5.354 14.226-5.354 9.478 0 17.734 6.080 20.54 15.118 8.728 28.024 12.104 31.398 40.134 40.126 9.036 2.82 15.108 11.076 15.108 20.542 0 9.47-6.076 17.724-15.118 20.54-28.022 8.726-31.396 12.1-40.122 40.112-2.812 9.048-11.066 15.128-20.542 15.128-5.4 0-10.398-1.98-14.226-5.354v19.686c0.030 1.62 1.56 5.31 2.678 6.472l193.566 193.564 192.714-193.528c6.744-6.772 18.128-11.502 27.684-11.502h38.17v-312.918h-177zM138.722 256.994c14.652 6.916 23.144 15.408 30.060 30.060 6.918-14.652 15.41-23.144 30.060-30.060-14.648-6.916-23.142-15.408-30.060-30.060-6.914 14.654-15.408 23.144-30.060 30.060zM994.002 29.198h-263.274v51.218c0 10.508 8.548 19.058 19.058 19.058 10.506 0 19.056-8.55 19.056-19.058v-14.396c0-5.92 3.48-11.284 8.884-13.698 5.402-2.412 11.722-1.422 16.128 2.53 3.516 3.152 8.024 4.888 12.692 4.888 4.23 0 8.25-1.382 11.624-3.998 4.524-3.506 10.65-4.13 15.792-1.612 5.14 2.52 8.398 7.744 8.398 13.468v10.926c0 10.508 8.55 19.058 19.058 19.058 9.088 0 16.948-6.464 18.688-15.37 1.010-5.17 4.66-9.432 9.614-11.226 4.956-1.794 10.486-0.858 14.574 2.466 3.428 2.79 7.576 4.262 11.994 4.262 10.508 0 19.058-8.548 19.058-19.194 0-6.128 3.728-11.64 9.416-13.922 5.686-2.282 12.188-0.876 16.426 3.554 3.644 3.812 8.53 5.91 13.756 5.91 10.508 0 19.058-8.55 19.058-19.058v-5.806zM377.87 196.284c-8.284 0-15-6.716-15-15v-21.098c0-8.284 6.716-15 15-15s15 6.716 15 15v21.098c0 8.284-6.716 15-15 15zM510 294.776h-38c-11.58 0-21-9.42-21-21v-46c0-11.58 9.42-21 21-21h38c11.58 0 21 9.42 21 21v46c0 11.582-9.42 21-21 21zM501 236.776h-20v28h20v-28zM778 896.802c-56.794 0-103-46.206-103-103s46.206-103 103-103c56.794 0 103 46.206 103 103s-46.206 103-103 103zM778 720.802c-40.252 0-73 32.748-73 73s32.748 73 73 73c40.252 0 73-32.748 73-73s-32.748-73-73-73z" />
<glyph unicode="&#xe93d;" glyph-name="technology" d="M512 355.902c-16.134 0-29.262-13.128-29.262-29.262s13.128-29.26 29.262-29.26 29.262 13.126 29.262 29.26c0 16.132-13.128 29.262-29.262 29.262zM0 821.288v-191.848h1024v191.848h-1024zM836.5 695.364h-60v60h60v-60zM943.5 695.364h-60v60h60v-60zM512 460c-73.536 0-133.362-59.826-133.362-133.362 0-73.534 59.826-133.36 133.362-133.36s133.362 59.826 133.362 133.36c0 73.538-59.826 133.362-133.362 133.362zM512 237.38c-49.218 0-89.262 40.042-89.262 89.26 0 49.22 40.044 89.262 89.262 89.262s89.262-40.042 89.262-89.262c0-49.218-40.044-89.26-89.262-89.26zM62 569.442v-44.73c0-120.2 46.808-233.204 131.802-318.198s197.998-131.802 318.198-131.802c120.2 0 233.204 46.808 318.198 131.802 84.994 84.992 131.802 197.996 131.802 318.196v44.73h-900zM512 133.28c-106.62 0-193.362 86.742-193.362 193.36 0 106.62 86.742 193.36 193.362 193.36s193.362-86.742 193.362-193.362-86.742-193.358-193.362-193.358z" />
</font>
</defs>
</svg>
