<?xml version="1.0" encoding="utf-8"?>
<!-- Generator: Adobe Illustrator 22.0.1, SVG Export Plug-In . SVG Version: 6.00 Build 0)  -->
<svg version="1.1" id="Layer_1" xmlns="http://www.w3.org/2000/svg" xmlns:xlink="http://www.w3.org/1999/xlink" x="0px" y="0px"
	 viewBox="0 0 50 116" style="enable-background:new 0 0 50 116;" xml:space="preserve">
<style type="text/css">
	.st0{fill:#1DBBEB;}
	.st1{fill:#FFFFFF;}
</style>
<g>
	<rect class="st0" width="50" height="116"/>
</g>
<g>
	<path class="st1" d="M21,53.6h-9v15.5h10.2L21.7,73H7.8V32.9h13.8v3.9h-9.5v12.8h9V53.6z"/>
	<path class="st1" d="M25.8,51.8c0-6.1,0-7.8-0.1-9.3h4.1c0.1,0.7,0.2,1.8,0.2,3.1c0.9-2.2,2.7-3.5,5.6-3.5c3.3,0,6,1.9,6,7.5V73
		h-4.3V50.3c0-3-1-4.5-3.2-4.5c-2.6,0-4.1,1.3-4.1,7V73h-4.3V51.8z"/>
</g>
</svg>
