<?xml version="1.0" encoding="utf-8"?>
<!-- Generator: Adobe Illustrator 22.0.1, SVG Export Plug-In . SVG Version: 6.00 Build 0)  -->
<svg version="1.1" id="Layer_1" xmlns="http://www.w3.org/2000/svg" xmlns:xlink="http://www.w3.org/1999/xlink" x="0px" y="0px"
	 viewBox="0 0 117.5 45" style="enable-background:new 0 0 117.5 45;" xml:space="preserve">
<style type="text/css">
	.st0{fill:#FFFFFF;}
	.st1{fill:url(#SVGID_1_);}
	.st2{fill:url(#SVGID_2_);}
	.st3{fill:url(#SVGID_3_);}
	.st4{fill:url(#SVGID_4_);}
	.st5{fill:url(#SVGID_5_);}
	.st6{fill:url(#SVGID_6_);}
	.st7{fill:#94CCF2;}
	.st8{fill:#2682F0;}
</style>
<g>
	<path class="st0" d="M58.9,43.2c0,0.8-0.6,1.4-1.4,1.4H2.9c-0.8,0-1.4-0.6-1.4-1.4V1.8c0-0.8,0.6-1.4,1.4-1.4h54.7
		c0.8,0,1.4,0.6,1.4,1.4V43.2z"/>
	
		<linearGradient id="SVGID_1_" gradientUnits="userSpaceOnUse" x1="-9346.2588" y1="-332.5842" x2="-9346.2588" y2="-340.2342" gradientTransform="matrix(1 0 0 1 9367.0342 342.8652)">
		<stop  offset="0" style="stop-color:#2682F0"/>
		<stop  offset="1" style="stop-color:#67A6E3"/>
	</linearGradient>
	<polygon class="st1" points="16,10.3 16.5,2.6 25.6,7.8 	"/>
	
		<linearGradient id="SVGID_2_" gradientUnits="userSpaceOnUse" x1="-9334.2402" y1="-326.3637" x2="-9345.1992" y2="-326.3637" gradientTransform="matrix(1 0 0 1 9367.0342 342.8652)">
		<stop  offset="0" style="stop-color:#2682F0"/>
		<stop  offset="1" style="stop-color:#67A6E3"/>
	</linearGradient>
	<polygon class="st2" points="32.8,11.3 21.8,14.5 32.5,21.7 	"/>
	
		<linearGradient id="SVGID_3_" gradientUnits="userSpaceOnUse" x1="-9367.0342" y1="-318.4067" x2="-9337.4326" y2="-318.4067" gradientTransform="matrix(1 0 0 1 9367.0342 342.8652)">
		<stop  offset="0" style="stop-color:#2682F0"/>
		<stop  offset="1" style="stop-color:#67A6E3"/>
	</linearGradient>
	<polygon class="st3" points="0.1,6 29.6,32 29.4,42.9 0,13.7 	"/>
	
		<linearGradient id="SVGID_4_" gradientUnits="userSpaceOnUse" x1="-9337.6045" y1="-307.6657" x2="-9325.6836" y2="-307.6657" gradientTransform="matrix(1 0 0 1 9367.0342 342.8652)">
		<stop  offset="0" style="stop-color:#2682F0"/>
		<stop  offset="1" style="stop-color:#67A6E3"/>
	</linearGradient>
	<polygon class="st4" points="29.6,32 41.2,27.5 41.4,38.1 29.4,42.9 	"/>
	
		<linearGradient id="SVGID_5_" gradientUnits="userSpaceOnUse" x1="-9313.5879" y1="-316.9227" x2="-9305.0645" y2="-316.9227" gradientTransform="matrix(1 0 0 1 9367.0342 342.8652)">
		<stop  offset="0" style="stop-color:#2682F0"/>
		<stop  offset="1" style="stop-color:#67A6E3"/>
	</linearGradient>
	<polygon class="st5" points="53.4,22 61.7,18.6 62,29.2 53.5,33.3 	"/>
	
		<linearGradient id="SVGID_6_" gradientUnits="userSpaceOnUse" x1="-9336.291" y1="-321.5447" x2="-9313.4971" y2="-321.5447" gradientTransform="matrix(1 0 0 1 9367.0342 342.8652)">
		<stop  offset="0" style="stop-color:#2682F0"/>
		<stop  offset="1" style="stop-color:#67A6E3"/>
	</linearGradient>
	<polygon class="st6" points="31,9.3 30.7,20.5 53.5,33.3 53.5,22.1 	"/>
	<polygon class="st7" points="7.4,4.5 0.1,6 29.6,32 41.3,27.5 22,14.4 32.7,11.3 53.4,22 61.7,18.6 22.3,1.3 16.5,2.6 25.5,7.8 
		16,10.3 	"/>
	<g>
		<g>
			<path class="st8" d="M63.5,25.4h11.9v4.3h-4v13.2h-3.9V29.8h-4L63.5,25.4L63.5,25.4z"/>
			<path class="st8" d="M83.7,40.1h-4.4L78.7,43h-4l4.7-17.5h4.3L88.5,43h-4.1L83.7,40.1z M82.9,36.3L81.5,30l-1.4,6.3H82.9z"/>
			<path class="st8" d="M89,37.2l3.7-0.3c0.1,0.8,0.2,1.5,0.5,1.9c0.4,0.7,1,1.1,1.7,1.1c0.6,0,1-0.2,1.3-0.5
				c0.3-0.4,0.5-0.8,0.5-1.3c0-0.5-0.1-0.9-0.4-1.2c-0.3-0.4-1-0.7-2-1c-1.7-0.5-2.9-1.2-3.7-2.1c-0.7-0.9-1.1-2-1.1-3.4
				c0-0.9,0.2-1.8,0.6-2.5c0.4-0.8,0.9-1.4,1.7-1.9c0.8-0.5,1.8-0.7,3.1-0.7c1.6,0,2.8,0.4,3.7,1.3c0.8,0.8,1.4,2.2,1.5,4l-3.7,0.3
				c-0.1-0.8-0.3-1.4-0.6-1.7c-0.3-0.4-0.7-0.5-1.3-0.5c-0.5,0-0.8,0.1-1,0.4c-0.2,0.3-0.3,0.6-0.3,1c0,0.3,0.1,0.5,0.3,0.8
				c0.2,0.2,0.6,0.4,1.3,0.6c1.7,0.5,2.9,1,3.7,1.5c0.7,0.5,1.3,1.2,1.6,1.9c0.3,0.8,0.5,1.6,0.5,2.6c0,1.1-0.2,2.2-0.7,3.1
				c-0.4,0.9-1.1,1.7-1.9,2.2c-0.8,0.5-1.8,0.7-3,0.7c-2.1,0-3.6-0.6-4.5-1.7C89.6,40.4,89.1,38.9,89,37.2z"/>
			<path class="st8" d="M102.5,25.4h3.9V32l4.1-6.6h5.2L111,32l4.8,10.9H111l-2.7-7.2l-2,2.9v4.3h-3.9L102.5,25.4L102.5,25.4z"/>
		</g>
	</g>
	<g>
		<path class="st0" d="M65.1,2.2h3.6v6h4v-6h3.6v17.3h-3.6v-7h-4v7h-3.6V2.2z"/>
		<path class="st0" d="M85.9,16.7h-4.1l-0.6,2.9h-3.7l4.4-17.3h3.9l4.4,17.3h-3.8L85.9,16.7z M85.1,12.9l-1.3-6.2l-1.3,6.2H85.1z"/>
		<path class="st0" d="M91.5,19.5V2.2h6c1.1,0,2,0.1,2.6,0.4c0.6,0.3,1.1,0.8,1.4,1.6C101.8,5,102,5.9,102,7c0,1-0.1,1.8-0.4,2.5
			c-0.3,0.7-0.7,1.3-1.1,1.7c-0.3,0.3-0.7,0.5-1.3,0.7c0.4,0.2,0.7,0.4,0.9,0.6c0.1,0.1,0.3,0.4,0.6,0.9c0.3,0.5,0.4,0.8,0.5,1.1
			l1.8,5h-4.1l-1.9-5.3c-0.2-0.7-0.5-1.1-0.7-1.3c-0.3-0.3-0.6-0.4-0.9-0.4h-0.3v7L91.5,19.5L91.5,19.5z M95.1,9.2h1.5
			c0.2,0,0.5-0.1,1-0.2c0.2-0.1,0.4-0.3,0.6-0.5s0.2-0.6,0.2-1c0-0.6-0.1-1-0.4-1.3c-0.2-0.3-0.7-0.4-1.3-0.4h-1.6
			C95.1,5.7,95.1,9.2,95.1,9.2z"/>
		<path class="st0" d="M104.2,2.2h5.4c1.1,0,1.9,0.2,2.6,0.6c0.7,0.4,1.2,1,1.6,1.8c0.4,0.8,0.7,1.7,0.9,2.8
			c0.2,1.1,0.3,2.2,0.3,3.3c0,1.8-0.1,3.3-0.4,4.3c-0.3,1-0.7,1.9-1.2,2.6c-0.5,0.7-1.1,1.1-1.6,1.4c-0.8,0.3-1.5,0.5-2.2,0.5h-5.4
			L104.2,2.2L104.2,2.2z M107.8,6.1v9.4h0.9c0.8,0,1.3-0.1,1.6-0.4c0.3-0.2,0.6-0.7,0.8-1.3c0.2-0.6,0.3-1.6,0.3-3
			c0-1.8-0.2-3.1-0.6-3.8c-0.4-0.7-1.1-1-2-1C108.7,6.1,107.8,6.1,107.8,6.1z"/>
	</g>
</g>
</svg>
